Reijima[wght].glyphspackage
{
color = 10;
glyphname = exclam;
leftMetricsKey = I;
rightMetricsKey = "=|";
layers = (
{
layerId = "F2505AC5-901F-4BF6-BFE9-C6AF332FBC83";
shapes = (
{
closed = 1;
nodes = (
(281,240,l),
(311,730,l),
(71,730,l),
(101,240,l)
);
},
{
closed = 1;
nodes = (
(291,0,l),
(291,170,l),
(91,170,l),
(91,0,l)
);
}
);
width = 382;
},
{
layerId = "A825F678-EB93-40C4-A48C-B705E79FBCA5";
shapes = (
{
closed = 1;
nodes = (
(229,223,l),
(249,730,l),
(82,730,l),
(102,223,l)
);
},
{
closed = 1;
nodes = (
(242,0,l),
(242,143,l),
(89,143,l),
(89,0,l)
);
}
);
width = 331;
},
{
layerId = "0F4B55C1-D1AF-4339-8523-EC07133CB1AA";
shapes = (
{
closed = 1;
nodes = (
(183,207,l),
(193,730,l),
(99,730,l),
(109,207,l)
);
},
{
closed = 1;
nodes = (
(199,0,l),
(199,107,l),
(93,107,l),
(93,0,l)
);
}
);
width = 292;
},
{
layerId = "2AC8629E-CA28-4614-8069-B83962E1F0CC";
shapes = (
{
closed = 1;
nodes = (
(144,190,l),
(144,730,l),
(124,730,l),
(124,190,l)
);
},
{
closed = 1;
nodes = (
(164,0,l),
(164,60,l),
(104,60,l),
(104,0,l)
);
}
);
width = 268;
}
);
leftKerningGroup = I;
rightKerningGroup = I;
unicode = 33;
}
{
color = 10;
glyphname = quotedbl;
leftMetricsKey = quotesingle;
rightMetricsKey = "=|";
layers = (
{
layerId = "F2505AC5-901F-4BF6-BFE9-C6AF332FBC83";
shapes = (
{
closed = 1;
nodes = (
(245,470,l),
(275,770,l),
(65,770,l),
(95,470,l)
);
},
{
closed = 1;
nodes = (
(495,470,l),
(525,770,l),
(315,770,l),
(345,470,l)
);
}
);
width = 590;
},
{
layerId = "A825F678-EB93-40C4-A48C-B705E79FBCA5";
shapes = (
{
closed = 1;
nodes = (
(208,470,l),
(228,770,l),
(75,770,l),
(94,470,l)
);
},
{
closed = 1;
nodes = (
(432,470,l),
(452,770,l),
(299,770,l),
(318,470,l)
);
}
);
width = 527;
},
{
layerId = "0F4B55C1-D1AF-4339-8523-EC07133CB1AA";
shapes = (
{
closed = 1;
nodes = (
(166,470,l),
(175,770,l),
(85,770,l),
(94,470,l)
);
},
{
closed = 1;
nodes = (
(367,470,l),
(376,770,l),
(286,770,l),
(295,470,l)
);
}
);
width = 461;
},
{
layerId = "2AC8629E-CA28-4614-8069-B83962E1F0CC";
shapes = (
{
closed = 1;
nodes = (
(115,470,l),
(115,770,l),
(95,770,l),
(95,470,l)
);
},
{
closed = 1;
nodes = (
(295,470,l),
(295,770,l),
(275,770,l),
(275,470,l)
);
}
);
width = 390;
}
);
leftKerningGroup = quote;
rightKerningGroup = quote;
unicode = 34;
}
{
color = 10;
glyphname = numbersign;
leftMetricsKey = "=H*.5";
rightMetricsKey = "=|";
layers = (
{
layerId = "F2505AC5-901F-4BF6-BFE9-C6AF332FBC83";
shapes = (
{
closed = 1;
nodes = (
(252,0,l),
(279,155,l),
(339,155,l),
(312,0,l),
(492,0,l),
(519,155,l),
(612,155,l),
(612,305,l),
(546,305,l),
(571,445,l),
(665,445,l),
(665,595,l),
(597,595,l),
(621,730,l),
(441,730,l),
(417,595,l),
(357,595,l),
(381,730,l),
(201,730,l),
(177,595,l),
(85,595,l),
(85,445,l),
(151,445,l),
(126,305,l),
(32,305,l),
(32,155,l),
(99,155,l),
(72,0,l)
);
},
{
closed = 1;
nodes = (
(324,489,l),
(286,455,l),
(436,455,l),
(414,489,l),
(373,261,l),
(411,295,l),
(261,295,l),
(283,261,l)
);
}
);
width = 697;
},
{
layerId = "A825F678-EB93-40C4-A48C-B705E79FBCA5";
shapes = (
{
closed = 1;
nodes = (
(221,0,l),
(251,172,l),
(358,172,l),
(327,0,l),
(455,0,l),
(484,172,l),
(591,172,l),
(591,285,l),
(505,285,l),
(537,465,l),
(644,465,l),
(644,578,l),
(557,578,l),
(584,730,l),
(456,730,l),
(430,578,l),
(324,578,l),
(350,730,l),
(223,730,l),
(196,578,l),
(90,578,l),
(90,465,l),
(176,465,l),
(145,285,l),
(37,285,l),
(37,172,l),
(124,172,l),
(94,0,l)
);
},
{
closed = 1;
nodes = (
(305,502,l),
(270,468,l),
(445,468,l),
(421,502,l),
(376,248,l),
(412,282,l),
(237,282,l),
(260,248,l)
);
}
);
width = 681;
},
{
layerId = "0F4B55C1-D1AF-4339-8523-EC07133CB1AA";
shapes = (
{
closed = 1;
nodes = (
(190,0,l),
(223,192,l),
(376,192,l),
(342,0,l),
(417,0,l),
(450,192,l),
(569,192,l),
(569,262,l),
(463,262,l),
(503,488,l),
(622,488,l),
(622,558,l),
(516,558,l),
(546,730,l),
(471,730,l),
(441,558,l),
(289,558,l),
(319,730,l),
(245,730,l),
(215,558,l),
(95,558,l),
(95,488,l),
(202,488,l),
(162,262,l),
(42,262,l),
(42,192,l),
(150,192,l),
(116,0,l)
);
},
{
closed = 1;
nodes = (
(281,515,l),
(253,488,l),
(453,488,l),
(433,515,l),
(384,235,l),
(412,262,l),
(212,262,l),
(232,235,l)
);
}
);
width = 664;
},
{
layerId = "2AC8629E-CA28-4614-8069-B83962E1F0CC";
shapes = (
{
closed = 1;
nodes = (
(158,0,l),
(196,215,l),
(395,215,l),
(357,0,l),
(378,0,l),
(416,215,l),
(547,215,l),
(547,235,l),
(420,235,l),
(469,515,l),
(600,515,l),
(600,535,l),
(473,535,l),
(507,730,l),
(486,730,l),
(452,535,l),
(253,535,l),
(287,730,l),
(266,730,l),
(232,535,l),
(100,535,l),
(100,515,l),
(228,515,l),
(179,235,l),
(47,235,l),
(47,215,l),
(175,215,l),
(137,0,l)
);
},
{
closed = 1;
nodes = (
(251,528,l),
(236,515,l),
(461,515,l),
(450,528,l),
(397,222,l),
(412,235,l),
(187,235,l),
(198,222,l)
);
}
);
width = 647;
}
);
leftKerningGroup = numbersign;
rightKerningGroup = numbersign;
unicode = 35;
}
{
color = 10;
glyphname = dollar;
leftMetricsKey = S;
rightMetricsKey = S;
layers = (
{
layerId = "0CD2A298-0B3B-42D7-87F7-B0E98CD9EA55";
name = "Medium.Medium [499]";
shapes = (
{
closed = 1;
nodes = (
(481,-10,o),
(583,66,o),
(583,198,cs),
(583,305,o),
(514,369,o),
(328,433,cs),
(214,469,o),
(172,502,o),
(172,553,cs),
(172,611,o),
(224,640,o),
(328,640,cs),
(406,640,o),
(469,624,o),
(545,587,c),
(570,685,l),
(502,721,o),
(416,740,o),
(323,740,cs),
(151,740,o),
(56,674,o),
(56,553,cs),
(56,448,o),
(126,384,o),
(307,324,cs),
(429,286,o),
(473,253,o),
(473,195,cs),
(473,128,o),
(414,90,o),
(308,90,cs),
(226,90,o),
(143,115,o),
(77,160,c),
(52,62,l),
(119,15,o),
(209,-10,o),
(308,-10,cs)
);
},
{
closed = 1;
nodes = (
(324,-105,l),
(324,45,l),
(229,45,l),
(229,-105,l)
);
},
{
closed = 1;
nodes = (
(324,45,l),
(324,375,l),
(229,375,l),
(229,45,l)
);
},
{
closed = 1;
nodes = (
(418,375,l),
(418,685,l),
(323,685,l),
(323,375,l)
);
},
{
closed = 1;
nodes = (
(418,685,l),
(418,835,l),
(323,835,l),
(323,685,l)
);
}
);
width = 635;
},
{
layerId = "3875624E-0391-48D5-BC15-0C1652F2B0B4";
associatedMasterId = "F2505AC5-901F-4BF6-BFE9-C6AF332FBC83";
name = "Black [499]";
shapes = (
{
closed = 1;
nodes = (
(512,-10,o),
(624,76,o),
(624,215,cs),
(624,325,o),
(553,388,o),
(349,458,c),
(268,480,o),
(239,497,o),
(239,525,cs),
(239,558,o),
(278,575,o),
(354,575,cs),
(423,575,o),
(478,561,o),
(554,525,c),
(594,690,l),
(531,721,o),
(436,740,o),
(344,740,cs),
(146,740,o),
(39,664,o),
(39,525,cs),
(39,408,o),
(114,341,o),
(319,275,c),
(399,254,o),
(424,239,o),
(424,210,cs),
(424,174,o),
(390,155,o),
(329,155,cs),
(257,155,o),
(165,184,o),
(96,229,c),
(56,64,l),
(118,18,o),
(221,-10,o),
(329,-10,cs)
);
},
{
closed = 1;
nodes = (
(331,-105,l),
(331,65,l),
(181,65,l),
(181,-105,l)
);
},
{
closed = 1;
nodes = (
(316,65,l),
(316,365,l),
(196,365,l),
(196,65,l)
);
},
{
closed = 1;
nodes = (
(476,365,l),
(476,665,l),
(346,665,l),
(346,365,l)
);
},
{
closed = 1;
nodes = (
(481,665,l),
(481,835,l),
(331,835,l),
(331,665,l)
);
}
);
width = 663;
},
{
layerId = "F2505AC5-901F-4BF6-BFE9-C6AF332FBC83";
shapes = (
{
closed = 1;
nodes = (
(512,-10,o),
(624,76,o),
(624,215,cs),
(624,325,o),
(553,388,o),
(349,458,c),
(268,480,o),
(239,497,o),
(239,525,cs),
(239,558,o),
(278,575,o),
(354,575,cs),
(423,575,o),
(478,561,o),
(554,525,c),
(594,690,l),
(531,721,o),
(436,740,o),
(344,740,cs),
(146,740,o),
(39,664,o),
(39,525,cs),
(39,408,o),
(114,341,o),
(319,275,c),
(399,254,o),
(424,239,o),
(424,210,cs),
(424,174,o),
(390,155,o),
(329,155,cs),
(257,155,o),
(165,184,o),
(96,229,c),
(56,64,l),
(118,18,o),
(221,-10,o),
(329,-10,cs)
);
},
{
closed = 1;
nodes = (
(407,-105,l),
(407,65,l),
(257,65,l),
(257,-105,l)
);
},
{
closed = 1;
nodes = (
(407,65,l),
(407,365,l),
(257,365,l),
(257,65,l)
);
},
{
closed = 1;
nodes = (
(407,365,l),
(407,665,l),
(257,665,l),
(257,365,l)
);
},
{
closed = 1;
nodes = (
(407,665,l),
(407,835,l),
(257,835,l),
(257,665,l)
);
}
);
width = 663;
},
{
layerId = "A825F678-EB93-40C4-A48C-B705E79FBCA5";
shapes = (
{
closed = 1;
nodes = (
(493,-10,o),
(599,69,o),
(599,204,cs),
(599,312,o),
(529,375,o),
(337,441,c),
(234,473,o),
(196,500,o),
(196,544,cs),
(196,593,o),
(244,618,o),
(339,618,cs),
(414,618,o),
(474,604,o),
(550,566,c),
(580,687,l),
(514,721,o),
(425,740,o),
(332,740,cs),
(151,740,o),
(52,671,o),
(52,544,cs),
(52,435,o),
(124,370,o),
(313,308,c),
(421,275,o),
(459,248,o),
(459,200,cs),
(459,143,o),
(408,112,o),
(317,112,cs),
(238,112,o),
(152,138,o),
(85,183,c),
(55,63,l),
(121,16,o),
(215,-10,o),
(317,-10,cs)
);
},
{
closed = 1;
nodes = (
(385,-105,l),
(385,52,l),
(272,52,l),
(272,-105,l)
);
},
{
closed = 1;
nodes = (
(385,52,l),
(385,372,l),
(272,372,l),
(272,52,l)
);
},
{
closed = 1;
nodes = (
(385,372,l),
(385,678,l),
(272,678,l),
(272,372,l)
);
},
{
closed = 1;
nodes = (
(385,678,l),
(385,835,l),
(272,835,l),
(272,678,l)
);
}
);
width = 651;
},
{
layerId = "0F4B55C1-D1AF-4339-8523-EC07133CB1AA";
shapes = (
{
closed = 1;
nodes = (
(475,-10,o),
(573,64,o),
(573,192,cs),
(573,298,o),
(506,359,o),
(324,422,c),
(196,464,o),
(149,502,o),
(149,562,cs),
(149,631,o),
(208,667,o),
(323,667,cs),
(402,667,o),
(468,650,o),
(540,612,c),
(560,683,l),
(492,721,o),
(410,740,o),
(319,740,cs),
(156,740,o),
(65,677,o),
(65,562,cs),
(65,462,o),
(132,402,o),
(308,343,c),
(445,299,o),
(493,260,o),
(493,190,cs),
(493,109,o),
(427,63,o),
(309,63,cs),
(226,63,o),
(143,88,o),
(79,132,c),
(59,61,l),
(125,15,o),
(213,-10,o),
(309,-10,cs)
);
},
{
closed = 1;
nodes = (
(360,-105,l),
(360,30,l),
(290,30,l),
(290,-105,l)
);
},
{
closed = 1;
nodes = (
(360,30,l),
(360,378,l),
(290,378,l),
(290,30,l)
);
},
{
closed = 1;
nodes = (
(360,378,l),
(360,700,l),
(290,700,l),
(290,378,l)
);
},
{
closed = 1;
nodes = (
(360,700,l),
(360,835,l),
(290,835,l),
(290,700,l)
);
}
);
width = 632;
},
{
layerId = "6E7FC2EB-33E4-48CF-87A0-59DD832CF718";
associatedMasterId = "2AC8629E-CA28-4614-8069-B83962E1F0CC";
name = "Thin [499]";
shapes = (
{
closed = 1;
nodes = (
(458,-10,o),
(547,60,o),
(547,180,cs),
(547,283,o),
(485,338,o),
(310,399,cs),
(154,453,o),
(98,501,o),
(98,580,cs),
(98,670,o),
(172,720,o),
(307,720,cs),
(389,720,o),
(461,701,o),
(526,663,c),
(536,680,l),
(468,720,o),
(392,740,o),
(307,740,cs),
(161,740,o),
(78,682,o),
(78,580,cs),
(78,491,o),
(140,437,o),
(304,381,cs),
(471,324,o),
(527,273,o),
(527,180,cs),
(527,72,o),
(448,10,o),
(307,10,cs),
(221,10,o),
(139,34,o),
(79,76,c),
(67,60,l),
(131,15,o),
(217,-10,o),
(307,-10,cs)
);
},
{
closed = 1;
nodes = (
(333,-105,l),
(333,0,l),
(313,0,l),
(313,-105,l)
);
},
{
closed = 1;
nodes = (
(333,0,l),
(333,385,l),
(313,385,l),
(313,0,l)
);
},
{
closed = 1;
nodes = (
(333,385,l),
(333,730,l),
(313,730,l),
(313,385,l)
);
},
{
closed = 1;
nodes = (
(333,730,l),
(333,835,l),
(313,835,l),
(313,730,l)
);
}
);
width = 614;
},
{
layerId = "2AC8629E-CA28-4614-8069-B83962E1F0CC";
shapes = (
{
closed = 1;
nodes = (
(457,-10,o),
(546,60,o),
(546,180,cs),
(546,283,o),
(484,338,o),
(309,399,cs),
(153,453,o),
(97,501,o),
(97,580,cs),
(97,670,o),
(171,720,o),
(306,720,cs),
(388,720,o),
(460,701,o),
(525,663,c),
(535,680,l),
(467,720,o),
(391,740,o),
(306,740,cs),
(160,740,o),
(77,682,o),
(77,580,cs),
(77,491,o),
(139,437,o),
(303,381,cs),
(470,324,o),
(526,273,o),
(526,180,cs),
(526,72,o),
(447,10,o),
(306,10,cs),
(220,10,o),
(138,34,o),
(78,76,c),
(66,60,l),
(130,15,o),
(216,-10,o),
(306,-10,cs)
);
},
{
closed = 1;
nodes = (
(332,-105,l),
(332,0,l),
(312,0,l),
(312,-105,l)
);
},
{
closed = 1;
nodes = (
(332,0,l),
(332,385,l),
(312,385,l),
(312,0,l)
);
},
{
closed = 1;
nodes = (
(332,385,l),
(332,730,l),
(312,730,l),
(312,385,l)
);
},
{
closed = 1;
nodes = (
(332,730,l),
(332,835,l),
(312,835,l),
(312,730,l)
);
}
);
width = 612;
}
);
leftKerningGroup = S;
rightKerningGroup = S;
unicode = 36;
}
{
color = 10;
glyphname = percent;
leftMetricsKey = "=H*.5";
rightMetricsKey = "=|";
layers = (
{
layerId = "F2505AC5-901F-4BF6-BFE9-C6AF332FBC83";
shapes = (
{
closed = 1;
nodes = (
(397,0,l),
(757,730,l),
(577,730,l),
(217,0,l)
);
},
{
alignment = -1;
pos = (12,0);
ref = zero.superior;
},
{
alignment = -1;
pos = (562,-292);
ref = zero.superior;
}
);
width = 974;
},
{
layerId = "A825F678-EB93-40C4-A48C-B705E79FBCA5";
shapes = (
{
closed = 1;
nodes = (
(341,0,l),
(721,730,l),
(587,730,l),
(207,0,l)
);
},
{
closed = 1;
nodes = (
(324,286,o),
(377,358,o),
(377,511,cs),
(377,664,o),
(324,736,o),
(207,736,cs),
(91,736,o),
(37,664,o),
(37,511,cs),
(37,358,o),
(91,286,o),
(207,286,cs)
);
},
{
closed = 1;
nodes = (
(169,387,o),
(152,421,o),
(152,511,cs),
(152,601,o),
(169,635,o),
(207,635,cs),
(246,635,o),
(262,601,o),
(262,511,cs),
(262,421,o),
(246,387,o),
(207,387,cs)
);
},
{
closed = 1;
nodes = (
(835,-6,o),
(888,66,o),
(888,219,cs),
(888,372,o),
(835,444,o),
(718,444,cs),
(602,444,o),
(548,372,o),
(548,219,cs),
(548,66,o),
(602,-6,o),
(718,-6,cs)
);
},
{
closed = 1;
nodes = (
(680,95,o),
(663,129,o),
(663,219,cs),
(663,309,o),
(680,343,o),
(718,343,cs),
(757,343,o),
(773,309,o),
(773,219,cs),
(773,129,o),
(757,95,o),
(718,95,cs)
);
}
);
width = 925;
},
{
layerId = "0F4B55C1-D1AF-4339-8523-EC07133CB1AA";
shapes = (
{
closed = 1;
nodes = (
(277,0,l),
(678,730,l),
(596,730,l),
(196,0,l)
);
},
{
closed = 1;
nodes = (
(309,286,o),
(362,361,o),
(362,511,cs),
(362,661,o),
(309,736,o),
(202,736,cs),
(94,736,o),
(42,661,o),
(42,511,cs),
(42,361,o),
(94,286,o),
(202,286,cs)
);
},
{
closed = 1;
nodes = (
(144,353,o),
(116,401,o),
(116,511,cs),
(116,621,o),
(144,669,o),
(202,669,cs),
(260,669,o),
(288,621,o),
(288,511,cs),
(288,401,o),
(260,353,o),
(202,353,cs)
);
},
{
closed = 1;
nodes = (
(777,-6,o),
(830,69,o),
(830,219,cs),
(830,369,o),
(777,444,o),
(670,444,cs),
(562,444,o),
(510,369,o),
(510,219,cs),
(510,69,o),
(562,-6,o),
(670,-6,cs)
);
},
{
closed = 1;
nodes = (
(612,61,o),
(584,109,o),
(584,219,cs),
(584,329,o),
(612,377,o),
(670,377,cs),
(728,377,o),
(756,329,o),
(756,219,cs),
(756,109,o),
(728,61,o),
(670,61,cs)
);
}
);
width = 872;
},
{
layerId = "2AC8629E-CA28-4614-8069-B83962E1F0CC";
shapes = (
{
closed = 1;
nodes = (
(208,0,l),
(629,730,l),
(606,730,l),
(185,0,l)
);
},
{
alignment = -1;
pos = (17,0);
ref = zero.superior;
},
{
alignment = -1;
pos = (437,-292);
ref = zero.superior;
}
);
width = 814;
}
);
leftKerningGroup = percent;
rightKerningGroup = percent;
unicode = 37;
}
{
color = 0;
glyphname = ampersand;
leftMetricsKey = "=H*.5";
rightMetricsKey = "=|*.05";
layers = (
{
layerId = "F2505AC5-901F-4BF6-BFE9-C6AF332FBC83";
shapes = (
{
closed = 1;
nodes = (
(742,67,l),
(383,390,ls),
(288,476,o),
(257,514,o),
(257,550,cs),
(257,584,o),
(285,605,o),
(332,605,cs),
(378,605,o),
(402,586,o),
(402,550,cs),
(402,510,o),
(372,483,o),
(257,420,cs),
(87,327,o),
(32,268,o),
(32,180,cs),
(32,63,o),
(141,-10,o),
(317,-10,cs),
(429,-10,o),
(528,21,o),
(687,105,c),
(687,380,l),
(517,380,l),
(517,227,l),
(453,169,o),
(389,140,o),
(327,140,cs),
(269,140,o),
(237,160,o),
(237,195,cs),
(237,232,o),
(274,267,o),
(357,310,cs),
(528,400,o),
(592,467,o),
(592,555,cs),
(592,668,o),
(489,740,o),
(327,740,cs),
(162,740,o),
(67,672,o),
(67,555,cs),
(67,490,o),
(96,443,o),
(183,365,cs),
(627,-31,l)
);
}
);
width = 743;
},
{
layerId = "A825F678-EB93-40C4-A48C-B705E79FBCA5";
shapes = (
{
closed = 1;
nodes = (
(714,50,l),
(344,409,ls),
(257,493,o),
(224,532,o),
(224,573,cs),
(224,615,o),
(258,640,o),
(319,640,cs),
(379,640,o),
(411,617,o),
(411,573,cs),
(411,527,o),
(374,492,o),
(252,419,cs),
(89,323,o),
(37,265,o),
(37,177,cs),
(37,62,o),
(138,-10,o),
(300,-10,cs),
(414,-10,o),
(511,27,o),
(638,112,c),
(639,397,l),
(516,397,l),
(515,193,l),
(454,132,o),
(383,100,o),
(307,100,cs),
(228,100,o),
(180,133,o),
(180,187,cs),
(180,235,o),
(217,273,o),
(322,334,cs),
(484,428,o),
(544,492,o),
(544,577,cs),
(544,678,o),
(456,740,o),
(316,740,cs),
(173,740,o),
(90,680,o),
(90,577,cs),
(90,515,o),
(117,466,o),
(198,388,cs),
(628,-22,l)
);
}
);
width = 715;
},
{
layerId = "0F4B55C1-D1AF-4339-8523-EC07133CB1AA";
shapes = (
{
closed = 1;
nodes = (
(682,31,l),
(301,428,ls),
(222,510,o),
(190,551,o),
(190,597,cs),
(190,649,o),
(232,679,o),
(305,679,cs),
(379,679,o),
(419,650,o),
(419,597,cs),
(419,542,o),
(377,498,o),
(246,415,cs),
(91,317,o),
(42,260,o),
(42,173,cs),
(42,60,o),
(134,-10,o),
(284,-10,cs),
(398,-10,o),
(495,33,o),
(590,120,c),
(591,413,l),
(517,413,l),
(516,162,l),
(456,93,o),
(378,57,o),
(287,57,cs),
(185,57,o),
(124,103,o),
(124,179,cs),
(124,239,o),
(162,283,o),
(287,361,cs),
(440,457,o),
(496,519,o),
(496,599,cs),
(496,688,o),
(423,740,o),
(304,740,cs),
(183,740,o),
(114,688,o),
(114,599,cs),
(114,541,o),
(140,490,o),
(217,410,cs),
(629,-13,l)
);
}
);
width = 684;
},
{
layerId = "2AC8629E-CA28-4614-8069-B83962E1F0CC";
shapes = (
{
closed = 1;
nodes = (
(647,10,l),
(254,447,ls),
(183,525,o),
(157,572,o),
(157,620,cs),
(157,684,o),
(205,720,o),
(292,720,cs),
(380,720,o),
(427,685,o),
(427,620,cs),
(427,555,o),
(380,501,o),
(241,408,cs),
(93,310,o),
(47,253,o),
(47,170,cs),
(47,59,o),
(131,-10,o),
(267,-10,cs),
(382,-10,o),
(478,38,o),
(541,127,c),
(542,430,l),
(522,430,l),
(521,133,l),
(461,53,o),
(373,10,o),
(267,10,cs),
(142,10,o),
(67,71,o),
(67,170,cs),
(67,245,o),
(109,297,o),
(252,392,cs),
(396,488,o),
(447,547,o),
(447,620,cs),
(447,697,o),
(390,740,o),
(292,740,cs),
(194,740,o),
(137,696,o),
(137,620,cs),
(137,566,o),
(165,515,o),
(239,433,cs),
(632,-3,l)
);
}
);
width = 649;
}
);
leftKerningGroup = ampersand;
rightKerningGroup = ampersand;
unicode = 38;
}
{
color = 10;
glyphname = quotesingle;
leftMetricsKey = H;
rightMetricsKey = "=|";
layers = (
{
layerId = "F2505AC5-901F-4BF6-BFE9-C6AF332FBC83";
shapes = (
{
closed = 1;
nodes = (
(245,470,l),
(275,770,l),
(65,770,l),
(95,470,l)
);
}
);
width = 340;
},
{
layerId = "A825F678-EB93-40C4-A48C-B705E79FBCA5";
shapes = (
{
closed = 1;
nodes = (
(212,470,l),
(232,770,l),
(75,770,l),
(95,470,l)
);
}
);
width = 307;
},
{
layerId = "0F4B55C1-D1AF-4339-8523-EC07133CB1AA";
shapes = (
{
closed = 1;
nodes = (
(168,470,l),
(178,770,l),
(85,770,l),
(95,470,l)
);
}
);
width = 263;
},
{
layerId = "2AC8629E-CA28-4614-8069-B83962E1F0CC";
shapes = (
{
closed = 1;
nodes = (
(115,470,l),
(115,770,l),
(95,770,l),
(95,470,l)
);
}
);
width = 210;
}
);
leftKerningGroup = quote;
rightKerningGroup = quote;
unicode = 39;
}
{
color = 10;
glyphname = parenleft;
leftMetricsKey = "=bar*.9";
rightMetricsKey = "=|*.7";
layers = (
{
layerId = "F2505AC5-901F-4BF6-BFE9-C6AF332FBC83";
leftMetricsKey = "=bar*.7";
rightMetricsKey = "=|*.5";
shapes = (
{
closed = 1;
nodes = (
(388,-110,l),
(294,22,o),
(250,162,o),
(250,330,cs),
(250,498,o),
(294,638,o),
(388,770,c),
(224,770,l),
(127,659,o),
(70,497,o),
(70,330,cs),
(70,163,o),
(127,1,o),
(224,-110,c)
);
}
);
width = 423;
},
{
layerId = "A825F678-EB93-40C4-A48C-B705E79FBCA5";
shapes = (
{
closed = 1;
nodes = (
(362,-110,l),
(268,22,o),
(224,162,o),
(224,330,cs),
(224,498,o),
(268,638,o),
(362,770,c),
(236,770,l),
(141,652,o),
(89,496,o),
(89,330,cs),
(89,164,o),
(141,8,o),
(236,-110,c)
);
}
);
width = 424;
},
{
layerId = "0F4B55C1-D1AF-4339-8523-EC07133CB1AA";
shapes = (
{
closed = 1;
nodes = (
(320,-110,l),
(226,22,o),
(182,162,o),
(182,330,cs),
(182,498,o),
(226,638,o),
(320,770,c),
(241,770,l),
(148,645,o),
(100,496,o),
(100,330,cs),
(100,165,o),
(148,15,o),
(241,-110,c)
);
}
);
width = 390;
},
{
layerId = "2AC8629E-CA28-4614-8069-B83962E1F0CC";
shapes = (
{
closed = 1;
nodes = (
(270,-110,l),
(176,22,o),
(132,162,o),
(132,330,cs),
(132,498,o),
(176,638,o),
(270,770,c),
(246,770,l),
(155,638,o),
(112,496,o),
(112,330,cs),
(112,164,o),
(155,22,o),
(246,-110,c)
);
}
);
width = 349;
}
);
leftKerningGroup = parenout;
rightKerningGroup = parenin;
unicode = 40;
}
{
color = 10;
glyphname = parenright;
leftMetricsKey = "|parenleft";
rightMetricsKey = "|parenleft";
layers = (
{
layerId = "F2505AC5-901F-4BF6-BFE9-C6AF332FBC83";
shapes = (
{
closed = 1;
nodes = (
(199,-110,l),
(296,1,o),
(353,163,o),
(353,330,cs),
(353,497,o),
(296,659,o),
(199,770,c),
(35,770,l),
(129,638,o),
(173,498,o),
(173,330,cs),
(173,162,o),
(129,22,o),
(35,-110,c)
);
}
);
width = 423;
},
{
layerId = "A825F678-EB93-40C4-A48C-B705E79FBCA5";
shapes = (
{
closed = 1;
nodes = (
(188,-110,l),
(283,8,o),
(335,164,o),
(335,330,cs),
(335,496,o),
(283,652,o),
(188,770,c),
(62,770,l),
(156,638,o),
(200,498,o),
(200,330,cs),
(200,162,o),
(156,22,o),
(62,-110,c)
);
}
);
width = 424;
},
{
layerId = "0F4B55C1-D1AF-4339-8523-EC07133CB1AA";
shapes = (
{
closed = 1;
nodes = (
(149,-110,l),
(242,15,o),
(290,165,o),
(290,330,cs),
(290,496,o),
(242,645,o),
(149,770,c),
(70,770,l),
(164,638,o),
(208,498,o),
(208,330,cs),
(208,162,o),
(164,22,o),
(70,-110,c)
);
}
);
width = 390;
},
{
layerId = "2AC8629E-CA28-4614-8069-B83962E1F0CC";
shapes = (
{
closed = 1;
nodes = (
(103,-110,l),
(194,22,o),
(237,164,o),
(237,330,cs),
(237,496,o),
(194,638,o),
(103,770,c),
(79,770,l),
(173,638,o),
(217,498,o),
(217,330,cs),
(217,162,o),
(173,22,o),
(79,-110,c)
);
}
);
width = 349;
}
);
leftKerningGroup = parenin;
rightKerningGroup = parenout;
unicode = 41;
}
{
color = 10;
glyphname = asterisk;
leftMetricsKey = "=H*.4";
rightMetricsKey = "=|";
layers = (
{
layerId = "F2505AC5-901F-4BF6-BFE9-C6AF332FBC83";
shapes = (
{
closed = 1;
nodes = (
(268,410,l),
(342,300,l),
(464,388,l),
(382,493,l),
(510,529,l),
(463,673,l),
(339,627,l),
(343,760,l),
(193,760,l),
(197,627,l),
(73,673,l),
(26,529,l),
(154,493,l),
(72,388,l),
(194,300,l)
);
}
);
width = 536;
},
{
layerId = "A825F678-EB93-40C4-A48C-B705E79FBCA5";
shapes = (
{
closed = 1;
nodes = (
(262,443,l),
(349,317,l),
(441,383,l),
(348,506,l),
(495,549,l),
(460,657,l),
(316,607,l),
(318,759,l),
(206,759,l),
(209,607,l),
(64,657,l),
(30,549,l),
(176,506,l),
(83,383,l),
(175,317,l)
);
}
);
width = 525;
},
{
layerId = "0F4B55C1-D1AF-4339-8523-EC07133CB1AA";
shapes = (
{
closed = 1;
nodes = (
(253,481,l),
(354,339,l),
(410,379,l),
(306,520,l),
(473,571,l),
(451,637,l),
(286,583,l),
(288,756,l),
(219,756,l),
(220,583,l),
(55,637,l),
(34,571,l),
(200,520,l),
(96,379,l),
(153,339,l)
);
}
);
width = 507;
},
{
layerId = "2AC8629E-CA28-4614-8069-B83962E1F0CC";
shapes = (
{
closed = 1;
nodes = (
(241,523,l),
(356,364,l),
(373,376,l),
(257,535,l),
(444,595,l),
(438,614,l),
(251,554,l),
(251,750,l),
(231,750,l),
(231,554,l),
(44,614,l),
(38,595,l),
(225,535,l),
(109,376,l),
(126,364,l)
);
}
);
width = 482;
}
);
leftKerningGroup = asterisk;
rightKerningGroup = asterisk;
unicode = 42;
}
{
color = 10;
glyphname = plus;
leftMetricsKey = "=H*.6";
rightMetricsKey = "=|";
layers = (
{
layerId = "F2505AC5-901F-4BF6-BFE9-C6AF332FBC83";
leftMetricsKey = "=H*.8";
shapes = (
{
closed = 1;
nodes = (
(427,0,l),
(427,205,l),
(632,205,l),
(632,375,l),
(427,375,l),
(427,580,l),
(257,580,l),
(257,375,l),
(52,375,l),
(52,205,l),
(257,205,l),
(257,0,l)
);
}
);
width = 684;
},
{
layerId = "A825F678-EB93-40C4-A48C-B705E79FBCA5";
shapes = (
{
closed = 1;
nodes = (
(396,0,l),
(396,228,l),
(625,228,l),
(625,352,l),
(396,352,l),
(396,580,l),
(273,580,l),
(273,352,l),
(45,352,l),
(45,228,l),
(273,228,l),
(273,0,l)
);
}
);
width = 670;
},
{
layerId = "0F4B55C1-D1AF-4339-8523-EC07133CB1AA";
shapes = (
{
closed = 1;
nodes = (
(378,0,l),
(378,253,l),
(631,253,l),
(631,327,l),
(378,327,l),
(378,580,l),
(305,580,l),
(305,327,l),
(51,327,l),
(51,253,l),
(305,253,l),
(305,0,l)
);
}
);
width = 682;
},
{
layerId = "2AC8629E-CA28-4614-8069-B83962E1F0CC";
shapes = (
{
closed = 1;
nodes = (
(357,0,l),
(357,280,l),
(637,280,l),
(637,300,l),
(357,300,l),
(357,580,l),
(337,580,l),
(337,300,l),
(57,300,l),
(57,280,l),
(337,280,l),
(337,0,l)
);
}
);
width = 694;
}
);
leftKerningGroup = "-";
rightKerningGroup = "-";
unicode = 43;
}
{
color = 10;
glyphname = comma;
layers = (
{
layerId = "F2505AC5-901F-4BF6-BFE9-C6AF332FBC83";
shapes = (
{
closed = 1;
nodes = (
(172,-170,l),
(292,200,l),
(82,200,l),
(22,-170,l)
);
}
);
width = 315;
},
{
layerId = "A825F678-EB93-40C4-A48C-B705E79FBCA5";
shapes = (
{
closed = 1;
nodes = (
(155,-170,l),
(261,153,l),
(105,153,l),
(38,-170,l)
);
}
);
width = 315;
},
{
layerId = "0F4B55C1-D1AF-4339-8523-EC07133CB1AA";
shapes = (
{
closed = 1;
nodes = (
(127,-170,l),
(230,130,l),
(136,130,l),
(53,-170,l)
);
}
);
width = 315;
},
{
layerId = "2AC8629E-CA28-4614-8069-B83962E1F0CC";
shapes = (
{
closed = 1;
nodes = (
(88,-170,l),
(197,130,l),
(175,130,l),
(66,-170,l)
);
}
);
width = 315;
}
);
leftKerningGroup = .;
rightKerningGroup = .;
unicode = 44;
}
{
color = 10;
glyphname = slash;
leftMetricsKey = A;
rightMetricsKey = "=|";
layers = (
{
layerId = "F2505AC5-901F-4BF6-BFE9-C6AF332FBC83";
shapes = (
{
closed = 1;
nodes = (
(186,-40,l),
(545,770,l),
(365,770,l),
(6,-40,l)
);
}
);
width = 551;
},
{
layerId = "A825F678-EB93-40C4-A48C-B705E79FBCA5";
shapes = (
{
closed = 1;
nodes = (
(149,-40,l),
(505,770,l),
(371,770,l),
(15,-40,l)
);
}
);
width = 520;
},
{
layerId = "0F4B55C1-D1AF-4339-8523-EC07133CB1AA";
shapes = (
{
closed = 1;
nodes = (
(99,-40,l),
(452,770,l),
(371,770,l),
(17,-40,l)
);
}
);
width = 469;
},
{
layerId = "2AC8629E-CA28-4614-8069-B83962E1F0CC";
shapes = (
{
closed = 1;
nodes = (
(41,-40,l),
(392,770,l),
(370,770,l),
(19,-40,l)
);
}
);
width = 411;
}
);
leftKerningGroup = A;
rightKerningGroup = V;
unicode = 47;
}
{
color = 10;
glyphname = colon;
layers = (
{
layerId = "F2505AC5-901F-4BF6-BFE9-C6AF332FBC83";
shapes = (
{
closed = 1;
nodes = (
(257,320,l),
(257,520,l),
(57,520,l),
(57,320,l)
);
},
{
closed = 1;
nodes = (
(257,0,l),
(257,200,l),
(57,200,l),
(57,0,l)
);
}
);
width = 315;
},
{
layerId = "A825F678-EB93-40C4-A48C-B705E79FBCA5";
shapes = (
{
closed = 1;
nodes = (
(234,367,l),
(234,520,l),
(80,520,l),
(80,367,l)
);
},
{
closed = 1;
nodes = (
(234,0,l),
(234,153,l),
(80,153,l),
(80,0,l)
);
}
);
width = 315;
},
{
layerId = "0F4B55C1-D1AF-4339-8523-EC07133CB1AA";
shapes = (
{
closed = 1;
nodes = (
(210,413,l),
(210,520,l),
(104,520,l),
(104,413,l)
);
},
{
closed = 1;
nodes = (
(210,0,l),
(210,107,l),
(104,107,l),
(104,0,l)
);
}
);
width = 315;
},
{
layerId = "2AC8629E-CA28-4614-8069-B83962E1F0CC";
shapes = (
{
closed = 1;
nodes = (
(187,460,l),
(187,520,l),
(127,520,l),
(127,460,l)
);
},
{
closed = 1;
nodes = (
(187,0,l),
(187,60,l),
(127,60,l),
(127,0,l)
);
}
);
width = 315;
}
);
leftKerningGroup = n;
rightKerningGroup = u;
unicode = 58;
}
{
color = 10;
glyphname = semicolon;
layers = (
{
layerId = "F2505AC5-901F-4BF6-BFE9-C6AF332FBC83";
shapes = (
{
closed = 1;
nodes = (
(262,320,l),
(262,520,l),
(62,520,l),
(62,320,l)
);
},
{
closed = 1;
nodes = (
(152,-170,l),
(272,200,l),
(62,200,l),
(2,-170,l)
);
}
);
width = 315;
},
{
layerId = "A825F678-EB93-40C4-A48C-B705E79FBCA5";
shapes = (
{
closed = 1;
nodes = (
(241,367,l),
(241,520,l),
(88,520,l),
(88,367,l)
);
},
{
closed = 1;
nodes = (
(132,-170,l),
(249,153,l),
(92,153,l),
(15,-170,l)
);
}
);
width = 315;
},
{
layerId = "0F4B55C1-D1AF-4339-8523-EC07133CB1AA";
shapes = (
{
closed = 1;
nodes = (
(219,413,l),
(219,520,l),
(112,520,l),
(112,413,l)
);
},
{
closed = 1;
nodes = (
(106,-170,l),
(219,130,l),
(125,130,l),
(32,-170,l)
);
}
);
width = 315;
},
{
layerId = "2AC8629E-CA28-4614-8069-B83962E1F0CC";
shapes = (
{
closed = 1;
nodes = (
(194,460,l),
(194,520,l),
(134,520,l),
(134,460,l)
);
},
{
closed = 1;
nodes = (
(73,-170,l),
(182,130,l),
(160,130,l),
(51,-170,l)
);
}
);
width = 315;
}
);
leftKerningGroup = n;
rightKerningGroup = u;
unicode = 59;
}
{
color = 10;
glyphname = less;
rightMetricsKey = H;
layers = (
{
layerId = "F2505AC5-901F-4BF6-BFE9-C6AF332FBC83";
shapes = (
{
closed = 1;
nodes = (
(632,170,l),
(203,289,l),
(203,291,l),
(632,410,l),
(632,590,l),
(52,400,l),
(52,180,l),
(632,-10,l)
);
}
);
width = 697;
},
{
layerId = "A825F678-EB93-40C4-A48C-B705E79FBCA5";
shapes = (
{
closed = 1;
nodes = (
(635,136,l),
(161,289,l),
(161,291,l),
(635,444,l),
(635,577,l),
(55,368,l),
(55,212,l),
(635,3,l)
);
}
);
width = 710;
},
{
layerId = "0F4B55C1-D1AF-4339-8523-EC07133CB1AA";
shapes = (
{
closed = 1;
nodes = (
(636,97,l),
(120,289,l),
(120,291,l),
(636,483,l),
(636,564,l),
(56,336,l),
(56,244,l),
(636,16,l)
);
}
);
width = 721;
},
{
layerId = "2AC8629E-CA28-4614-8069-B83962E1F0CC";
shapes = (
{
closed = 1;
nodes = (
(637,52,l),
(79,289,l),
(79,291,l),
(637,528,l),
(637,550,l),
(57,303,l),
(57,277,l),
(637,30,l)
);
}
);
width = 732;
}
);
leftKerningGroup = "-";
rightKerningGroup = z;
unicode = 60;
}
{
color = 10;
glyphname = equal;
leftMetricsKey = I;
rightMetricsKey = "=|";
layers = (
{
layerId = "F2505AC5-901F-4BF6-BFE9-C6AF332FBC83";
shapes = (
{
closed = 1;
nodes = (
(651,335,l),
(651,500,l),
(71,500,l),
(71,335,l)
);
},
{
closed = 1;
nodes = (
(651,80,l),
(651,245,l),
(71,245,l),
(71,80,l)
);
}
);
width = 722;
},
{
layerId = "A825F678-EB93-40C4-A48C-B705E79FBCA5";
shapes = (
{
closed = 1;
nodes = (
(662,350,l),
(662,470,l),
(82,470,l),
(82,350,l)
);
},
{
closed = 1;
nodes = (
(662,110,l),
(662,230,l),
(82,230,l),
(82,110,l)
);
}
);
width = 744;
},
{
layerId = "0F4B55C1-D1AF-4339-8523-EC07133CB1AA";
shapes = (
{
closed = 1;
nodes = (
(673,369,l),
(673,440,l),
(93,440,l),
(93,369,l)
);
},
{
closed = 1;
nodes = (
(673,140,l),
(673,211,l),
(93,211,l),
(93,140,l)
);
}
);
width = 766;
},
{
layerId = "2AC8629E-CA28-4614-8069-B83962E1F0CC";
shapes = (
{
closed = 1;
nodes = (
(684,390,l),
(684,410,l),
(104,410,l),
(104,390,l)
);
},
{
closed = 1;
nodes = (
(684,170,l),
(684,190,l),
(104,190,l),
(104,170,l)
);
}
);
width = 788;
}
);
leftKerningGroup = equal;
rightKerningGroup = equal;
unicode = 61;
}
{
color = 10;
glyphname = greater;
leftMetricsKey = "|less";
rightMetricsKey = "|less";
layers = (
{
layerId = "F2505AC5-901F-4BF6-BFE9-C6AF332FBC83";
shapes = (
{
closed = 1;
nodes = (
(65,-10,l),
(645,180,l),
(645,400,l),
(65,590,l),
(65,410,l),
(494,291,l),
(494,289,l),
(65,170,l)
);
}
);
width = 697;
},
{
layerId = "A825F678-EB93-40C4-A48C-B705E79FBCA5";
shapes = (
{
closed = 1;
nodes = (
(75,3,l),
(655,212,l),
(655,368,l),
(75,577,l),
(75,444,l),
(549,291,l),
(549,289,l),
(75,136,l)
);
}
);
width = 710;
},
{
layerId = "0F4B55C1-D1AF-4339-8523-EC07133CB1AA";
shapes = (
{
closed = 1;
nodes = (
(85,16,l),
(665,244,l),
(665,336,l),
(85,564,l),
(85,483,l),
(601,291,l),
(601,289,l),
(85,97,l)
);
}
);
width = 721;
},
{
layerId = "2AC8629E-CA28-4614-8069-B83962E1F0CC";
shapes = (
{
closed = 1;
nodes = (
(95,30,l),
(675,277,l),
(675,303,l),
(95,550,l),
(95,528,l),
(653,291,l),
(653,289,l),
(95,52,l)
);
}
);
width = 732;
}
);
leftKerningGroup = z;
rightKerningGroup = "-";
unicode = 62;
}
{
color = 10;
glyphname = question;
leftMetricsKey = "=T*1.2";
rightMetricsKey = "=P*1.2";
layers = (
{
layerId = "F2505AC5-901F-4BF6-BFE9-C6AF332FBC83";
rightMetricsKey = "=P*1";
shapes = (
{
closed = 1;
nodes = (
(361,240,l),
(366,279,o),
(402,325,o),
(458,365,cs),
(547,429,o),
(581,483,o),
(581,560,cs),
(581,680,o),
(491,740,o),
(311,740,cs),
(217,740,o),
(114,725,o),
(31,700,c),
(66,535,l),
(146,560,o),
(223,575,o),
(281,575,cs),
(347,575,o),
(371,563,o),
(371,530,cs),
(371,505,o),
(358,490,o),
(298,446,cs),
(202,373,o),
(161,311,o),
(161,240,c)
);
},
{
closed = 1;
nodes = (
(361,0,l),
(361,170,l),
(161,170,l),
(161,0,l)
);
}
);
width = 607;
},
{
layerId = "A825F678-EB93-40C4-A48C-B705E79FBCA5";
shapes = (
{
closed = 1;
nodes = (
(309,223,l),
(312,279,o),
(347,326,o),
(421,377,cs),
(513,441,o),
(549,495,o),
(549,570,cs),
(549,684,o),
(463,740,o),
(289,740,cs),
(199,740,o),
(105,726,o),
(27,701,c),
(55,581,l),
(132,606,o),
(200,618,o),
(269,618,cs),
(362,618,o),
(402,598,o),
(402,550,cs),
(402,514,o),
(379,485,o),
(311,437,cs),
(209,364,o),
(169,304,o),
(169,223,c)
);
},
{
closed = 1;
nodes = (
(316,0,l),
(316,143,l),
(162,143,l),
(162,0,l)
);
}
);
width = 576;
},
{
layerId = "0F4B55C1-D1AF-4339-8523-EC07133CB1AA";
shapes = (
{
closed = 1;
nodes = (
(263,207,l),
(265,279,o),
(298,327,o),
(390,389,cs),
(486,453,o),
(523,507,o),
(523,580,cs),
(523,688,o),
(441,740,o),
(273,740,cs),
(189,740,o),
(103,727,o),
(30,703,c),
(48,631,l),
(122,655,o),
(189,667,o),
(263,667,cs),
(385,667,o),
(440,636,o),
(440,570,cs),
(440,521,o),
(409,481,o),
(330,427,cs),
(221,353,o),
(183,296,o),
(183,207,c)
);
},
{
closed = 1;
nodes = (
(277,0,l),
(277,107,l),
(170,107,l),
(170,0,l)
);
}
);
width = 553;
},
{
layerId = "2AC8629E-CA28-4614-8069-B83962E1F0CC";
shapes = (
{
closed = 1;
nodes = (
(217,190,l),
(217,280,o),
(249,328,o),
(359,401,cs),
(458,465,o),
(497,518,o),
(497,590,cs),
(497,691,o),
(418,740,o),
(257,740,cs),
(179,740,o),
(103,728,o),
(34,704,c),
(40,686,l),
(108,708,o),
(182,720,o),
(257,720,cs),
(408,720,o),
(477,678,o),
(477,590,cs),
(477,526,o),
(442,479,o),
(348,417,cs),
(233,342,o),
(197,287,o),
(197,190,c)
);
},
{
closed = 1;
nodes = (
(237,0,l),
(237,60,l),
(177,60,l),
(177,0,l)
);
}
);
width = 531;
}
);
leftKerningGroup = question;
rightKerningGroup = question;
unicode = 63;
}
{
color = 10;
glyphname = at;
leftMetricsKey = O;
rightMetricsKey = O;
layers = (
{
layerId = "F2505AC5-901F-4BF6-BFE9-C6AF332FBC83";
shapes = (
{
closed = 1;
nodes = (
(514,-115,o),
(599,-85,o),
(664,-34,c),
(598,46,l),
(551,7,o),
(489,-15,o),
(417,-15,cs),
(255,-15,o),
(142,98,o),
(142,260,cs),
(142,422,o),
(255,535,o),
(417,535,cs),
(579,535,o),
(692,422,o),
(692,260,cs),
(692,217,o),
(683,175,o),
(668,142,c),
(723,167,l),
(616,167,l),
(616,453,l),
(476,453,l),
(474,401,l),
(472,401,l),
(440,441,o),
(405,460,o),
(359,460,cs),
(271,460,o),
(207,388,o),
(207,260,cs),
(207,131,o),
(273,60,o),
(359,60,cs),
(404,60,o),
(441,80,o),
(472,119,c),
(474,119,l),
(476,67,l),
(752,67,l),
(785,122,o),
(802,188,o),
(802,260,cs),
(802,477,o),
(640,635,o),
(417,635,cs),
(194,635,o),
(32,477,o),
(32,260,cs),
(32,43,o),
(194,-115,o),
(417,-115,cs)
);
},
{
closed = 1;
nodes = (
(376,176,o),
(353,205,o),
(353,260,cs),
(353,315,o),
(376,344,o),
(412,344,cs),
(447,344,o),
(470,317,o),
(470,264,cs),
(470,256,ls),
(470,203,o),
(447,176,o),
(412,176,cs)
);
}
);
width = 834;
},
{
layerId = "A825F678-EB93-40C4-A48C-B705E79FBCA5";
shapes = (
{
closed = 1;
nodes = (
(511,-114,o),
(593,-85,o),
(657,-35,c),
(602,34,l),
(553,-5,o),
(490,-27,o),
(418,-27,cs),
(248,-27,o),
(131,91,o),
(131,260,cs),
(131,429,o),
(248,547,o),
(418,547,cs),
(587,547,o),
(704,429,o),
(704,260,cs),
(704,210,o),
(692,163,o),
(673,126,c),
(729,151,l),
(605,151,l),
(605,456,l),
(489,456,l),
(488,398,l),
(486,398,l),
(455,442,o),
(416,463,o),
(367,463,cs),
(276,463,o),
(212,389,o),
(212,260,cs),
(212,130,o),
(277,57,o),
(367,57,cs),
(417,57,o),
(456,79,o),
(486,122,c),
(488,122,l),
(489,64,l),
(746,64,l),
(780,120,o),
(797,187,o),
(797,260,cs),
(797,478,o),
(639,634,o),
(418,634,cs),
(197,634,o),
(37,477,o),
(37,260,cs),
(37,44,o),
(197,-114,o),
(418,-114,cs)
);
},
{
closed = 1;
nodes = (
(362,152,o),
(332,190,o),
(332,260,cs),
(332,330,o),
(362,368,o),
(409,368,cs),
(456,368,o),
(485,330,o),
(485,267,cs),
(485,253,ls),
(485,190,o),
(456,152,o),
(409,152,cs)
);
}
);
width = 834;
},
{
layerId = "0F4B55C1-D1AF-4339-8523-EC07133CB1AA";
shapes = (
{
closed = 1;
nodes = (
(505,-111,o),
(584,-85,o),
(646,-38,c),
(608,10,l),
(556,-29,o),
(491,-50,o),
(418,-50,cs),
(235,-50,o),
(107,78,o),
(107,260,cs),
(107,442,o),
(235,570,o),
(418,570,cs),
(601,570,o),
(727,444,o),
(727,260,cs),
(727,198,o),
(711,141,o),
(682,96,c),
(730,119,l),
(592,119,l),
(592,461,l),
(516,461,l),
(515,404,l),
(513,404,l),
(485,446,o),
(436,470,o),
(382,470,cs),
(284,470,o),
(220,392,o),
(220,260,cs),
(220,127,o),
(285,50,o),
(382,50,cs),
(437,50,o),
(485,75,o),
(513,117,c),
(515,117,l),
(516,59,l),
(737,59,l),
(774,116,o),
(792,184,o),
(792,260,cs),
(792,478,o),
(638,631,o),
(418,631,cs),
(198,631,o),
(42,477,o),
(42,260,cs),
(42,44,o),
(198,-111,o),
(418,-111,cs)
);
},
{
closed = 1;
nodes = (
(340,113,o),
(299,167,o),
(299,260,cs),
(299,352,o),
(340,407,o),
(406,407,cs),
(471,407,o),
(513,354,o),
(513,272,cs),
(513,248,ls),
(513,166,o),
(471,113,o),
(406,113,cs)
);
}
);
width = 834;
},
{
layerId = "AEE2284A-A56F-4448-96E7-8687C65E5DBB";
partSelection = {
Wt = 2;
};
associatedMasterId = "2AC8629E-CA28-4614-8069-B83962E1F0CC";
shapes = (
{
closed = 1;
nodes = (
(501,-108,o),
(577,-84,o),
(638,-41,c),
(613,-9,l),
(559,-47,o),
(492,-68,o),
(417,-68,c),
(224,-68,o),
(89,67,o),
(89,260,c),
(89,453,o),
(224,588,o),
(417,588,c),
(612,588,o),
(745,455,o),
(745,260,c),
(745,188,o),
(725,124,o),
(690,73,c),
(728,94,l),
(583,94,l),
(583,466,l),
(536,466,l),
(535,411,l),
(533,411,l),
(508,449,o),
(451,475,o),
(393,475,c),
(291,475,o),
(226,394,o),
(226,260,cs),
(226,124,o),
(291,45,o),
(393,45,c),
(451,45,o),
(508,71,o),
(533,110,c),
(535,110,l),
(536,54,l),
(731,54,l),
(769,112,o),
(789,181,o),
(789,260,c),
(789,479,o),
(638,628,o),
(417,628,c),
(199,628,o),
(45,476,o),
(45,260,c),
(45,44,o),
(199,-108,o),
(417,-108,c)
);
},
{
closed = 1;
nodes = (
(324,86,o),
(275,151,o),
(275,260,cs),
(275,368,o),
(325,434,o),
(405,434,c),
(483,434,o),
(534,372,o),
(534,276,c),
(534,244,l),
(534,148,o),
(483,86,o),
(405,86,c)
);
}
);
width = 834;
},
{
layerId = "2AC8629E-CA28-4614-8069-B83962E1F0CC";
shapes = (
{
closed = 1;
nodes = (
(491,-105,o),
(564,-84,o),
(624,-43,c),
(613,-27,l),
(556,-65,o),
(488,-85,o),
(412,-85,c),
(209,-85,o),
(67,57,o),
(67,260,c),
(67,463,o),
(209,605,o),
(412,605,c),
(618,605,o),
(757,466,o),
(757,260,c),
(757,179,o),
(734,107,o),
(693,51,c),
(721,70,l),
(570,70,l),
(570,470,l),
(550,470,l),
(550,387,l),
(548,387,l),
(522,447,o),
(472,480,o),
(399,480,c),
(293,480,o),
(227,396,o),
(227,260,cs),
(227,122,o),
(291,40,o),
(399,40,c),
(472,40,o),
(522,73,o),
(548,133,c),
(550,133,l),
(550,50,l),
(718,50,l),
(756,108,o),
(777,179,o),
(777,260,c),
(777,479,o),
(631,625,o),
(412,625,c),
(197,625,o),
(47,475,o),
(47,260,c),
(47,45,o),
(197,-105,o),
(412,-105,c)
);
},
{
closed = 1;
nodes = (
(304,60,o),
(247,135,o),
(247,260,cs),
(247,383,o),
(305,460,o),
(399,460,c),
(495,460,o),
(550,394,o),
(550,280,c),
(550,240,l),
(550,126,o),
(495,60,o),
(399,60,c)
);
}
);
width = 824;
}
);
partsSettings = (
{
bottomValue = 0;
name = Wt;
topValue = 1000;
}
);
leftKerningGroup = o;
rightKerningGroup = o;
unicode = 64;
}
{
color = 10;
glyphname = A;
leftMetricsKey = "=H*.2";
rightMetricsKey = "=|";
layers = (
{
anchors = (
{
name = bottom;
position = "{366, 0}";
},
{
name = ogonek;
position = "{726, 0}";
},
{
name = top;
position = "{366, 730}";
},
{
name = top_ring;
position = "{367, 665}";
}
);
layerId = "F2505AC5-901F-4BF6-BFE9-C6AF332FBC83";
leftMetricsKey = "=H*.1";
shapes = (
{
closed = 1;
nodes = (
(226,0,l),
(365,560,l),
(367,560,l),
(506,0,l),
(726,0,l),
(501,730,l),
(231,730,l),
(6,0,l)
);
},
{
closed = 1;
nodes = (
(561,135,l),
(561,300,l),
(171,300,l),
(171,135,l)
);
}
);
width = 732;
},
{
anchors = (
{
name = bottom;
position = "{362, 0}";
},
{
name = ogonek;
position = "{708, 0}";
},
{
name = top;
position = "{362, 730}";
},
{
name = top_ring;
position = "{363, 682}";
}
);
layerId = "A825F678-EB93-40C4-A48C-B705E79FBCA5";
shapes = (
{
closed = 1;
nodes = (
(169,0,l),
(361,611,l),
(363,611,l),
(555,0,l),
(709,0,l),
(457,730,l),
(268,730,l),
(15,0,l)
);
},
{
closed = 1;
nodes = (
(562,167,l),
(562,289,l),
(162,289,l),
(162,167,l)
);
}
);
width = 724;
},
{
anchors = (
{
name = bottom;
position = "{351, 0}";
},
{
name = ogonek;
position = "{684, 0}";
},
{
name = top;
position = "{351, 730}";
},
{
name = top_ring;
position = "{351, 698}";
}
);
layerId = "0F4B55C1-D1AF-4339-8523-EC07133CB1AA";
shapes = (
{
closed = 1;
nodes = (
(105,0,l),
(350,661,l),
(352,661,l),
(596,0,l),
(684,0,l),
(405,730,l),
(297,730,l),
(17,0,l)
);
},
{
closed = 1;
nodes = (
(556,201,l),
(556,274,l),
(146,274,l),
(146,201,l)
);
}
);
width = 701;
},
{
anchors = (
{
name = bottom;
position = "{339, 0}";
},
{
name = ogonek;
position = "{659, 0}";
},
{
name = top;
position = "{339, 730}";
},
{
name = top_ring;
position = "{339, 715}";
}
);
layerId = "2AC8629E-CA28-4614-8069-B83962E1F0CC";
shapes = (
{
closed = 1;
nodes = (
(41,0,l),
(338,711,l),
(340,711,l),
(637,0,l),
(659,0,l),
(353,730,l),
(325,730,l),
(19,0,l)
);
},
{
closed = 1;
nodes = (
(549,237,l),
(549,257,l),
(129,257,l),
(129,237,l)
);
}
);
width = 678;
}
);
leftKerningGroup = A;
rightKerningGroup = A;
unicode = 65;
}
{
color = 10;
glyphname = B;
leftMetricsKey = H;
rightMetricsKey = "=|*.4";
layers = (
{
layerId = "F2505AC5-901F-4BF6-BFE9-C6AF332FBC83";
rightMetricsKey = "=|*.5";
shapes = (
{
closed = 1;
nodes = (
(345,0,ls),
(553,0,o),
(665,73,o),
(665,210,cs),
(665,310,o),
(606,370,o),
(495,384,c),
(495,386,l),
(589,400,o),
(645,461,o),
(645,550,cs),
(645,668,o),
(538,730,o),
(335,730,cs),
(65,730,l),
(65,0,l)
);
},
{
closed = 1;
nodes = (
(265,575,l),
(345,575,ls),
(418,575,o),
(445,558,o),
(445,512,cs),
(445,466,o),
(419,450,o),
(345,450,cs),
(165,450,l),
(165,300,l),
(345,300,ls),
(425,300,o),
(460,278,o),
(460,228,cs),
(460,178,o),
(424,155,o),
(345,155,cs),
(265,155,l)
);
}
);
width = 697;
},
{
layerId = "A825F678-EB93-40C4-A48C-B705E79FBCA5";
shapes = (
{
closed = 1;
nodes = (
(342,0,ls),
(550,0,o),
(655,69,o),
(655,207,cs),
(655,309,o),
(597,370,o),
(487,386,c),
(487,388,l),
(576,405,o),
(628,464,o),
(628,552,cs),
(628,671,o),
(531,730,o),
(335,730,cs),
(75,730,l),
(75,0,l)
);
},
{
closed = 1;
nodes = (
(215,613,l),
(342,613,ls),
(446,613,o),
(488,588,o),
(488,527,cs),
(488,464,o),
(444,437,o),
(342,437,cs),
(145,437,l),
(145,323,l),
(342,323,ls),
(459,323,o),
(512,291,o),
(512,220,cs),
(512,149,o),
(459,117,o),
(342,117,cs),
(215,117,l)
);
}
);
width = 685;
},
{
layerId = "0F4B55C1-D1AF-4339-8523-EC07133CB1AA";
shapes = (
{
closed = 1;
nodes = (
(338,0,ls),
(545,0,o),
(645,66,o),
(645,203,cs),
(645,308,o),
(587,370,o),
(472,388,c),
(472,390,l),
(562,409,o),
(612,466,o),
(612,554,cs),
(612,672,o),
(521,730,o),
(335,730,cs),
(85,730,l),
(85,0,l)
);
},
{
closed = 1;
nodes = (
(165,658,l),
(338,658,ls),
(473,658,o),
(532,622,o),
(532,541,cs),
(532,459,o),
(471,420,o),
(338,420,cs),
(125,420,l),
(125,350,l),
(338,350,ls),
(493,350,o),
(564,307,o),
(564,211,cs),
(564,115,o),
(494,72,o),
(338,72,cs),
(165,72,l)
);
}
);
width = 679;
},
{
layerId = "2AC8629E-CA28-4614-8069-B83962E1F0CC";
shapes = (
{
closed = 1;
nodes = (
(335,0,ls),
(539,0,o),
(635,63,o),
(635,200,cs),
(635,308,o),
(576,369,o),
(451,390,c),
(451,392,l),
(547,414,o),
(595,467,o),
(595,555,cs),
(595,673,o),
(508,730,o),
(335,730,cs),
(95,730,l),
(95,0,l)
);
},
{
closed = 1;
nodes = (
(115,710,l),
(335,710,ls),
(498,710,o),
(575,660,o),
(575,555,cs),
(575,450,o),
(498,400,o),
(335,400,cs),
(105,400,l),
(105,380,l),
(335,380,ls),
(528,380,o),
(615,324,o),
(615,200,cs),
(615,76,o),
(528,20,o),
(335,20,cs),
(115,20,l)
);
}
);
width = 673;
}
);
leftKerningGroup = H;
rightKerningGroup = B;
unicode = 66;
}
{
color = 10;
glyphname = C;
leftMetricsKey = O;
rightMetricsKey = "=H*.6";
layers = (
{
anchors = (
{
name = bottom;
position = "{398, 0}";
},
{
name = top;
position = "{398, 730}";
}
);
layerId = "F2505AC5-901F-4BF6-BFE9-C6AF332FBC83";
shapes = (
{
closed = 1;
nodes = (
(516,-10,o),
(599,8,o),
(672,46,c),
(629,216,l),
(557,178,o),
(491,160,o),
(431,160,cs),
(309,160,o),
(240,234,o),
(240,365,cs),
(240,496,o),
(309,570,o),
(431,570,cs),
(491,570,o),
(557,552,o),
(629,514,c),
(672,684,l),
(599,722,o),
(516,740,o),
(423,740,cs),
(172,740,o),
(32,606,o),
(32,365,cs),
(32,124,o),
(172,-10,o),
(423,-10,cs)
);
}
);
width = 711;
},
{
anchors = (
{
name = bottom;
position = "{400, 0}";
},
{
name = top;
position = "{400, 730}";
}
);
layerId = "A825F678-EB93-40C4-A48C-B705E79FBCA5";
shapes = (
{
closed = 1;
nodes = (
(511,-10,o),
(592,9,o),
(663,49,c),
(631,171,l),
(560,132,o),
(493,113,o),
(426,113,cs),
(274,113,o),
(182,207,o),
(182,365,cs),
(182,523,o),
(274,617,o),
(426,617,cs),
(494,617,o),
(562,598,o),
(631,559,c),
(663,681,l),
(592,721,o),
(511,740,o),
(420,740,cs),
(179,740,o),
(37,601,o),
(37,365,cs),
(37,129,o),
(179,-10,o),
(420,-10,cs)
);
}
);
width = 708;
},
{
anchors = (
{
name = bottom;
position = "{402, 0}";
},
{
name = top;
position = "{402, 730}";
}
);
layerId = "0F4B55C1-D1AF-4339-8523-EC07133CB1AA";
shapes = (
{
closed = 1;
nodes = (
(506,-10,o),
(586,11,o),
(655,52,c),
(633,123,l),
(565,83,o),
(495,63,o),
(421,63,cs),
(239,63,o),
(124,179,o),
(124,365,cs),
(124,551,o),
(239,667,o),
(421,667,cs),
(496,667,o),
(567,647,o),
(633,607,c),
(655,678,l),
(586,719,o),
(506,740,o),
(418,740,cs),
(186,740,o),
(42,596,o),
(42,365,cs),
(42,134,o),
(186,-10,o),
(418,-10,cs)
);
}
);
width = 706;
},
{
anchors = (
{
name = bottom;
position = "{405, 0}";
},
{
name = top;
position = "{405, 730}";
}
);
layerId = "2AC8629E-CA28-4614-8069-B83962E1F0CC";
shapes = (
{
closed = 1;
nodes = (
(502,-10,o),
(580,12,o),
(647,55,c),
(636,72,l),
(572,31,o),
(498,10,o),
(416,10,cs),
(204,10,o),
(67,150,o),
(67,365,cs),
(67,580,o),
(204,720,o),
(416,720,cs),
(498,720,o),
(572,699,o),
(636,658,c),
(647,675,l),
(580,718,o),
(502,740,o),
(416,740,cs),
(193,740,o),
(47,591,o),
(47,365,cs),
(47,139,o),
(193,-10,o),
(416,-10,cs)
);
}
);
width = 704;
}
);
leftKerningGroup = O;
rightKerningGroup = C;
unicode = 67;
}
{
color = 10;
glyphname = D;
leftMetricsKey = H;
rightMetricsKey = O;
layers = (
{
anchors = (
{
name = bottom;
position = "{359, 0}";
},
{
name = center;
position = "{359, 365}";
},
{
name = top;
position = "{359, 730}";
}
);
layerId = "F2505AC5-901F-4BF6-BFE9-C6AF332FBC83";
shapes = (
{
closed = 1;
nodes = (
(315,0,ls),
(574,0,o),
(685,109,o),
(685,365,cs),
(685,621,o),
(574,730,o),
(315,730,c),
(65,730,l),
(65,0,l)
);
},
{
closed = 1;
nodes = (
(265,570,l),
(328,570,ls),
(446,570,o),
(480,524,o),
(480,365,cs),
(480,206,o),
(446,160,o),
(328,160,cs),
(265,160,l)
);
}
);
width = 717;
},
{
anchors = (
{
name = bottom;
position = "{356, 0}";
},
{
name = center;
position = "{356, 365}";
},
{
name = top;
position = "{356, 730}";
}
);
layerId = "A825F678-EB93-40C4-A48C-B705E79FBCA5";
shapes = (
{
closed = 1;
nodes = (
(298,0,ls),
(556,0,o),
(675,115,o),
(675,365,cs),
(675,615,o),
(556,730,o),
(298,730,cs),
(75,730,l),
(75,0,l)
);
},
{
closed = 1;
nodes = (
(215,610,l),
(307,610,ls),
(468,610,o),
(532,541,o),
(532,365,cs),
(532,189,o),
(468,120,o),
(307,120,cs),
(215,120,l)
);
}
);
width = 712;
},
{
anchors = (
{
name = bottom;
position = "{354, 0}";
},
{
name = center;
position = "{354, 365}";
},
{
name = top;
position = "{354, 730}";
}
);
layerId = "0F4B55C1-D1AF-4339-8523-EC07133CB1AA";
shapes = (
{
closed = 1;
nodes = (
(282,0,ls),
(538,0,o),
(665,121,o),
(665,365,cs),
(665,609,o),
(538,730,o),
(282,730,cs),
(85,730,l),
(85,0,l)
);
},
{
closed = 1;
nodes = (
(165,657,l),
(286,657,ls),
(489,657,o),
(584,564,o),
(584,365,cs),
(584,166,o),
(489,73,o),
(286,73,cs),
(165,73,l)
);
}
);
width = 707;
},
{
anchors = (
{
name = bottom;
position = "{351, 0}";
},
{
name = center;
position = "{351, 365}";
},
{
name = top;
position = "{351, 730}";
}
);
layerId = "2AC8629E-CA28-4614-8069-B83962E1F0CC";
shapes = (
{
closed = 1;
nodes = (
(265,0,ls),
(520,0,o),
(655,126,o),
(655,365,cs),
(655,604,o),
(520,730,o),
(265,730,cs),
(95,730,l),
(95,0,l)
);
},
{
closed = 1;
nodes = (
(115,710,l),
(265,710,ls),
(510,710,o),
(635,592,o),
(635,365,cs),
(635,138,o),
(510,20,o),
(265,20,cs),
(115,20,l)
);
}
);
width = 702;
}
);
leftKerningGroup = H;
rightKerningGroup = O;
unicode = 68;
}
{
color = 10;
glyphname = E;
leftMetricsKey = H;
rightMetricsKey = "=H*.75";
layers = (
{
anchors = (
{
name = bottom;
position = "{335, 0}";
},
{
name = ogonek;
position = "{605, 0}";
},
{
name = top;
position = "{335, 730}";
},
{
name = topleft;
position = "{20, 730}";
}
);
layerId = "F2505AC5-901F-4BF6-BFE9-C6AF332FBC83";
rightMetricsKey = "=H*.85";
shapes = (
{
closed = 1;
nodes = (
(605,0,l),
(605,160,l),
(265,160,l),
(265,298,l),
(585,298,l),
(585,452,l),
(265,452,l),
(265,570,l),
(605,570,l),
(605,730,l),
(65,730,l),
(65,0,l)
);
}
);
width = 660;
},
{
anchors = (
{
name = bottom;
position = "{337, 0}";
},
{
name = ogonek;
position = "{596, 0}";
},
{
name = top;
position = "{337, 730}";
},
{
name = topleft;
position = "{16, 730}";
}
);
layerId = "A825F678-EB93-40C4-A48C-B705E79FBCA5";
shapes = (
{
closed = 1;
nodes = (
(595,0,l),
(595,119,l),
(215,119,l),
(215,322,l),
(575,322,l),
(575,437,l),
(215,437,l),
(215,611,l),
(595,611,l),
(595,730,l),
(75,730,l),
(75,0,l)
);
}
);
width = 651;
},
{
anchors = (
{
name = bottom;
position = "{339, 0}";
},
{
name = ogonek;
position = "{586, 0}";
},
{
name = top;
position = "{339, 730}";
},
{
name = topleft;
position = "{10, 730}";
}
);
layerId = "0F4B55C1-D1AF-4339-8523-EC07133CB1AA";
shapes = (
{
closed = 1;
nodes = (
(585,0,l),
(585,72,l),
(165,72,l),
(165,349,l),
(565,349,l),
(565,420,l),
(165,420,l),
(165,658,l),
(585,658,l),
(585,730,l),
(85,730,l),
(85,0,l)
);
}
);
width = 648;
},
{
anchors = (
{
name = bottom;
position = "{341, 0}";
},
{
name = ogonek;
position = "{576, 0}";
},
{
name = top;
position = "{341, 730}";
},
{
name = topleft;
position = "{3, 730}";
}
);
layerId = "2AC8629E-CA28-4614-8069-B83962E1F0CC";
shapes = (
{
closed = 1;
nodes = (
(575,0,l),
(575,20,l),
(115,20,l),
(115,380,l),
(555,380,l),
(555,400,l),
(115,400,l),
(115,710,l),
(575,710,l),
(575,730,l),
(95,730,l),
(95,0,l)
);
}
);
width = 646;
}
);
leftKerningGroup = H;
rightKerningGroup = E;
unicode = 69;
}
{
color = 10;
glyphname = F;
leftMetricsKey = H;
rightMetricsKey = "=H*.55";
layers = (
{
layerId = "F2505AC5-901F-4BF6-BFE9-C6AF332FBC83";
rightMetricsKey = "=H*.75";
shapes = (
{
closed = 1;
nodes = (
(265,0,l),
(265,270,l),
(585,270,l),
(585,430,l),
(265,430,l),
(265,565,l),
(605,565,l),
(605,730,l),
(65,730,l),
(65,0,l)
);
}
);
width = 653;
},
{
layerId = "A825F678-EB93-40C4-A48C-B705E79FBCA5";
shapes = (
{
closed = 1;
nodes = (
(215,0,l),
(215,296,l),
(575,296,l),
(575,415,l),
(215,415,l),
(215,608,l),
(595,608,l),
(595,730,l),
(75,730,l),
(75,0,l)
);
}
);
width = 636;
},
{
layerId = "0F4B55C1-D1AF-4339-8523-EC07133CB1AA";
shapes = (
{
closed = 1;
nodes = (
(165,0,l),
(165,324,l),
(565,324,l),
(565,396,l),
(165,396,l),
(165,657,l),
(585,657,l),
(585,730,l),
(85,730,l),
(85,0,l)
);
}
);
width = 631;
},
{
layerId = "2AC8629E-CA28-4614-8069-B83962E1F0CC";
shapes = (
{
closed = 1;
nodes = (
(115,0,l),
(115,355,l),
(555,355,l),
(555,375,l),
(115,375,l),
(115,710,l),
(575,710,l),
(575,730,l),
(95,730,l),
(95,0,l)
);
}
);
width = 627;
}
);
leftKerningGroup = H;
rightKerningGroup = F;
unicode = 70;
}
{
color = 10;
glyphname = G;
leftMetricsKey = O;
rightMetricsKey = "=H*.85";
layers = (
{
anchors = (
{
name = bottom;
position = "{421, 0}";
},
{
name = top;
position = "{421, 730}";
}
);
layerId = "F2505AC5-901F-4BF6-BFE9-C6AF332FBC83";
shapes = (
{
closed = 1;
nodes = (
(568,-10,o),
(675,12,o),
(752,50,c),
(752,452,l),
(362,452,l),
(362,287,l),
(552,287,l),
(552,131,l),
(575,177,l),
(537,161,o),
(504,155,o),
(460,155,cs),
(312,155,o),
(237,225,o),
(237,365,cs),
(237,503,o),
(310,575,o),
(449,575,cs),
(522,575,o),
(603,556,o),
(663,524,c),
(705,684,l),
(638,720,o),
(547,740,o),
(449,740,cs),
(187,740,o),
(32,601,o),
(32,365,cs),
(32,129,o),
(190,-10,o),
(460,-10,cs)
);
}
);
width = 807;
},
{
anchors = (
{
name = bottom;
position = "{421, 0}";
},
{
name = top;
position = "{421, 730}";
}
);
layerId = "A825F678-EB93-40C4-A48C-B705E79FBCA5";
shapes = (
{
closed = 1;
nodes = (
(559,-10,o),
(667,11,o),
(743,48,c),
(743,435,l),
(357,435,l),
(357,317,l),
(603,317,l),
(603,102,l),
(622,144,l),
(574,122,o),
(517,112,o),
(456,112,cs),
(279,112,o),
(180,202,o),
(180,365,cs),
(180,526,o),
(278,618,o),
(448,618,cs),
(527,618,o),
(609,599,o),
(671,566,c),
(702,683,l),
(635,720,o),
(545,740,o),
(448,740,cs),
(192,740,o),
(37,599,o),
(37,365,cs),
(37,130,o),
(193,-10,o),
(456,-10,cs)
);
}
);
width = 806;
},
{
anchors = (
{
name = bottom;
position = "{423, 0}";
},
{
name = top;
position = "{423, 730}";
}
);
layerId = "0F4B55C1-D1AF-4339-8523-EC07133CB1AA";
shapes = (
{
closed = 1;
nodes = (
(552,-10,o),
(660,11,o),
(735,46,c),
(735,417,l),
(352,417,l),
(352,348,l),
(655,348,l),
(655,74,l),
(670,105,l),
(611,79,o),
(530,63,o),
(452,63,cs),
(244,63,o),
(124,174,o),
(124,365,cs),
(124,553,o),
(246,667,o),
(448,667,cs),
(532,667,o),
(616,647,o),
(680,612,c),
(700,681,l),
(633,719,o),
(544,740,o),
(448,740,cs),
(199,740,o),
(42,598,o),
(42,365,cs),
(42,131,o),
(196,-10,o),
(452,-10,cs)
);
}
);
width = 807;
},
{
anchors = (
{
name = bottom;
position = "{425, 0}";
},
{
name = top;
position = "{425, 730}";
}
);
layerId = "2AC8629E-CA28-4614-8069-B83962E1F0CC";
shapes = (
{
closed = 1;
nodes = (
(546,-10,o),
(654,11,o),
(727,44,c),
(727,400,l),
(347,400,l),
(347,380,l),
(707,380,l),
(707,45,l),
(719,62,l),
(648,30,o),
(543,10,o),
(449,10,cs),
(209,10,o),
(67,142,o),
(67,365,cs),
(67,582,o),
(215,720,o),
(449,720,cs),
(538,720,o),
(624,700,o),
(689,663,c),
(699,680,l),
(632,718,o),
(543,740,o),
(449,740,cs),
(210,740,o),
(47,599,o),
(47,365,cs),
(47,131,o),
(198,-10,o),
(449,-10,cs)
);
}
);
width = 807;
}
);
leftKerningGroup = O;
rightKerningGroup = G;
unicode = 71;
}
{
color = 10;
glyphname = H;
rightMetricsKey = "=|";
layers = (
{
anchors = (
{
name = bottom;
position = "{380, 0}";
},
{
name = center;
position = "{380, 365}";
},
{
name = top;
position = "{380, 730}";
},
{
name = topleft;
position = "{20, 730}";
}
);
layerId = "F2505AC5-901F-4BF6-BFE9-C6AF332FBC83";
shapes = (
{
closed = 1;
nodes = (
(695,0,l),
(695,730,l),
(495,730,l),
(495,0,l)
);
},
{
closed = 1;
nodes = (
(265,0,l),
(265,730,l),
(65,730,l),
(65,0,l)
);
},
{
closed = 1;
nodes = (
(595,290,l),
(595,460,l),
(165,460,l),
(165,290,l)
);
}
);
width = 760;
},
{
anchors = (
{
name = bottom;
position = "{377, 0}";
},
{
name = center;
position = "{377, 365}";
},
{
name = top;
position = "{377, 730}";
},
{
name = topleft;
position = "{20, 730}";
}
);
layerId = "A825F678-EB93-40C4-A48C-B705E79FBCA5";
shapes = (
{
closed = 1;
nodes = (
(678,0,l),
(678,730,l),
(538,730,l),
(538,0,l)
);
},
{
closed = 1;
nodes = (
(215,0,l),
(215,730,l),
(75,730,l),
(75,0,l)
);
},
{
closed = 1;
nodes = (
(608,318,l),
(608,441,l),
(145,441,l),
(145,318,l)
);
}
);
width = 753;
},
{
anchors = (
{
name = bottom;
position = "{373, 0}";
},
{
name = center;
position = "{373, 365}";
},
{
name = top;
position = "{373, 730}";
},
{
name = topleft;
position = "{20, 730}";
}
);
layerId = "0F4B55C1-D1AF-4339-8523-EC07133CB1AA";
shapes = (
{
closed = 1;
nodes = (
(662,0,l),
(662,730,l),
(582,730,l),
(582,0,l)
);
},
{
closed = 1;
nodes = (
(165,0,l),
(165,730,l),
(85,730,l),
(85,0,l)
);
},
{
closed = 1;
nodes = (
(622,348,l),
(622,421,l),
(125,421,l),
(125,348,l)
);
}
);
width = 747;
},
{
anchors = (
{
name = bottom;
position = "{370, 0}";
},
{
name = center;
position = "{370, 365}";
},
{
name = top;
position = "{370, 730}";
},
{
name = topleft;
position = "{20, 730}";
}
);
layerId = "2AC8629E-CA28-4614-8069-B83962E1F0CC";
shapes = (
{
closed = 1;
nodes = (
(645,0,l),
(645,730,l),
(625,730,l),
(625,0,l)
);
},
{
closed = 1;
nodes = (
(115,0,l),
(115,730,l),
(95,730,l),
(95,0,l)
);
},
{
closed = 1;
nodes = (
(635,380,l),
(635,400,l),
(105,400,l),
(105,380,l)
);
}
);
width = 740;
}
);
leftKerningGroup = H;
rightKerningGroup = H;
unicode = 72;
}
{
color = 10;
glyphname = I;
leftMetricsKey = "=H*1.1";
rightMetricsKey = "=|";
layers = (
{
anchors = (
{
name = bottom;
position = "{176, 0}";
},
{
name = ogonek;
position = "{281, 0}";
},
{
name = top;
position = "{176, 730}";
},
{
name = topleft;
position = "{19, 730}";
}
);
layerId = "F2505AC5-901F-4BF6-BFE9-C6AF332FBC83";
shapes = (
{
closed = 1;
nodes = (
(281,0,l),
(281,730,l),
(71,730,l),
(71,0,l)
);
}
);
width = 352;
},
{
anchors = (
{
name = bottom;
position = "{155, 0}";
},
{
name = ogonek;
position = "{228, 0}";
},
{
name = top;
position = "{155, 730}";
},
{
name = topleft;
position = "{20, 730}";
}
);
layerId = "A825F678-EB93-40C4-A48C-B705E79FBCA5";
shapes = (
{
closed = 1;
nodes = (
(228,0,l),
(228,730,l),
(82,730,l),
(82,0,l)
);
}
);
width = 310;
},
{
anchors = (
{
name = bottom;
position = "{134, 0}";
},
{
name = ogonek;
position = "{175, 0}";
},
{
name = top;
position = "{134, 730}";
},
{
name = topleft;
position = "{19, 730}";
}
);
layerId = "0F4B55C1-D1AF-4339-8523-EC07133CB1AA";
shapes = (
{
closed = 1;
nodes = (
(175,0,l),
(175,730,l),
(93,730,l),
(93,0,l)
);
}
);
width = 268;
},
{
anchors = (
{
name = bottom;
position = "{114, 0}";
},
{
name = ogonek;
position = "{124, 0}";
},
{
name = top;
position = "{114, 730}";
},
{
name = topleft;
position = "{19, 730}";
}
);
layerId = "2AC8629E-CA28-4614-8069-B83962E1F0CC";
shapes = (
{
closed = 1;
nodes = (
(124,0,l),
(124,730,l),
(104,730,l),
(104,0,l)
);
}
);
width = 228;
}
);
leftKerningGroup = I;
rightKerningGroup = I;
unicode = 73;
}
{
color = 10;
glyphname = J;
leftMetricsKey = "=H*.15";
rightMetricsKey = U;
layers = (
{
anchors = (
{
name = bottom;
position = "{294, 0}";
},
{
name = top;
position = "{294, 730}";
}
);
layerId = "F2505AC5-901F-4BF6-BFE9-C6AF332FBC83";
leftMetricsKey = "=H*.05";
shapes = (
{
closed = 1;
nodes = (
(451,-10,o),
(543,78,o),
(543,280,cs),
(543,730,l),
(338,730,l),
(338,280,ls),
(338,203,o),
(301,165,o),
(227,165,cs),
(184,165,o),
(111,178,o),
(33,199,c),
(3,29,l),
(75,4,o),
(158,-10,o),
(240,-10,cs)
);
}
);
width = 601;
},
{
anchors = (
{
name = bottom;
position = "{300, 0}";
},
{
name = top;
position = "{300, 730}";
}
);
layerId = "A825F678-EB93-40C4-A48C-B705E79FBCA5";
shapes = (
{
closed = 1;
nodes = (
(446,-10,o),
(538,81,o),
(538,280,cs),
(538,730,l),
(394,730,l),
(394,280,ls),
(394,169,o),
(343,115,o),
(238,115,cs),
(181,115,o),
(107,131,o),
(35,160,c),
(11,36,l),
(81,6,o),
(163,-10,o),
(246,-10,cs)
);
}
);
width = 605;
},
{
anchors = (
{
name = bottom;
position = "{299, 0}";
},
{
name = top;
position = "{299, 730}";
}
);
layerId = "0F4B55C1-D1AF-4339-8523-EC07133CB1AA";
shapes = (
{
closed = 1;
nodes = (
(435,-10,o),
(525,84,o),
(525,280,cs),
(525,730,l),
(443,730,l),
(443,280,ls),
(443,133,o),
(378,63,o),
(241,63,cs),
(171,63,o),
(95,82,o),
(29,116,c),
(12,43,l),
(77,9,o),
(160,-10,o),
(245,-10,cs)
);
}
);
width = 601;
},
{
anchors = (
{
name = bottom;
position = "{300, 0}";
},
{
name = top;
position = "{300, 730}";
}
);
layerId = "2AC8629E-CA28-4614-8069-B83962E1F0CC";
shapes = (
{
closed = 1;
nodes = (
(426,-10,o),
(514,85,o),
(514,280,cs),
(514,730,l),
(494,730,l),
(494,280,ls),
(494,96,o),
(415,10,o),
(246,10,cs),
(162,10,o),
(82,31,o),
(25,67,c),
(14,50,l),
(74,12,o),
(159,-10,o),
(246,-10,cs)
);
}
);
width = 599;
}
);
leftKerningGroup = J;
rightKerningGroup = U;
unicode = 74;
}
{
color = 10;
glyphname = K;
leftMetricsKey = H;
rightMetricsKey = "=H*.3";
layers = (
{
anchors = (
{
name = bottom;
position = "{355, 0}";
},
{
name = top;
position = "{355, 730}";
}
);
layerId = "F2505AC5-901F-4BF6-BFE9-C6AF332FBC83";
rightMetricsKey = "=H*.2";
shapes = (
{
closed = 1;
nodes = (
(265,0,l),
(265,335,l),
(267,335,l),
(495,0,l),
(725,0,l),
(470,375,l),
(715,730,l),
(485,730,l),
(267,415,l),
(265,415,l),
(265,730,l),
(65,730,l),
(65,0,l)
);
}
);
width = 738;
},
{
anchors = (
{
name = bottom;
position = "{340, 0}";
},
{
name = top;
position = "{340, 730}";
}
);
layerId = "A825F678-EB93-40C4-A48C-B705E79FBCA5";
shapes = (
{
closed = 1;
nodes = (
(215,0,l),
(215,346,l),
(217,346,l),
(525,0,l),
(695,0,l),
(357,380,l),
(685,730,l),
(515,730,l),
(217,414,l),
(215,414,l),
(215,730,l),
(75,730,l),
(75,0,l)
);
}
);
width = 717;
},
{
anchors = (
{
name = bottom;
position = "{325, 0}";
},
{
name = top;
position = "{325, 730}";
}
);
layerId = "0F4B55C1-D1AF-4339-8523-EC07133CB1AA";
shapes = (
{
closed = 1;
nodes = (
(165,0,l),
(165,359,l),
(167,359,l),
(561,0,l),
(665,0,l),
(244,385,l),
(655,730,l),
(550,730,l),
(167,410,l),
(165,410,l),
(165,730,l),
(85,730,l),
(85,0,l)
);
}
);
width = 690;
},
{
anchors = (
{
name = bottom;
position = "{310, 0}";
},
{
name = top;
position = "{310, 730}";
}
);
layerId = "2AC8629E-CA28-4614-8069-B83962E1F0CC";
shapes = (
{
closed = 1;
nodes = (
(115,0,l),
(115,376,l),
(117,376,l),
(603,0,l),
(635,0,l),
(131,390,l),
(625,730,l),
(591,730,l),
(117,404,l),
(115,404,l),
(115,730,l),
(95,730,l),
(95,0,l)
);
}
);
width = 663;
}
);
leftKerningGroup = H;
rightKerningGroup = K;
unicode = 75;
}
{
color = 10;
glyphname = L;
leftMetricsKey = H;
rightMetricsKey = "=H*.5";
layers = (
{
anchors = (
{
name = bottom;
position = "{316, 0}";
},
{
name = center;
position = "{316, 375}";
},
{
name = pdcenter;
position = "{605, 375}";
},
{
name = top;
position = "{316, 730}";
},
{
name = topright;
position = "{611, 730}";
}
);
layerId = "F2505AC5-901F-4BF6-BFE9-C6AF332FBC83";
rightMetricsKey = "=H*.4";
shapes = (
{
closed = 1;
nodes = (
(605,0,l),
(605,170,l),
(270,170,l),
(270,730,l),
(65,730,l),
(65,0,l)
);
}
);
width = 631;
},
{
anchors = (
{
name = bottom;
position = "{314, 0}";
},
{
name = center;
position = "{314, 375}";
},
{
name = pdcenter;
position = "{595, 375}";
},
{
name = top;
position = "{314, 730}";
},
{
name = topright;
position = "{608, 730}";
}
);
layerId = "A825F678-EB93-40C4-A48C-B705E79FBCA5";
shapes = (
{
closed = 1;
nodes = (
(595,0,l),
(595,123,l),
(219,123,l),
(219,730,l),
(75,730,l),
(75,0,l)
);
}
);
width = 632;
},
{
anchors = (
{
name = bottom;
position = "{313, 0}";
},
{
name = center;
position = "{313, 375}";
},
{
name = pdcenter;
position = "{578, 375}";
},
{
name = top;
position = "{313, 730}";
},
{
name = topright;
position = "{598, 730}";
}
);
layerId = "0F4B55C1-D1AF-4339-8523-EC07133CB1AA";
shapes = (
{
closed = 1;
nodes = (
(585,0,l),
(585,73,l),
(167,73,l),
(167,730,l),
(85,730,l),
(85,0,l)
);
}
);
width = 627;
},
{
anchors = (
{
name = bottom;
position = "{312, 0}";
},
{
name = center;
position = "{312, 375}";
},
{
name = pdcenter;
position = "{555, 375}";
},
{
name = top;
position = "{312, 730}";
},
{
name = topright;
position = "{583, 730}";
}
);
layerId = "2AC8629E-CA28-4614-8069-B83962E1F0CC";
shapes = (
{
closed = 1;
nodes = (
(575,0,l),
(575,20,l),
(115,20,l),
(115,730,l),
(95,730,l),
(95,0,l)
);
}
);
width = 622;
}
);
leftKerningGroup = H;
rightKerningGroup = L;
unicode = 76;
}
{
glyphname = M;
leftMetricsKey = "=A*4.2";
rightMetricsKey = "=|";
layers = (
{
layerId = "F2505AC5-901F-4BF6-BFE9-C6AF332FBC83";
shapes = (
{
closed = 1;
nodes = (
(227,0,l),
(256,460,l),
(258,460,l),
(347,80,l),
(547,80,l),
(636,460,l),
(638,460,l),
(667,0,l),
(867,0,l),
(779,730,l),
(539,730,l),
(448,280,l),
(446,280,l),
(355,730,l),
(115,730,l),
(27,0,l)
);
}
);
width = 894;
},
{
layerId = "A825F678-EB93-40C4-A48C-B705E79FBCA5";
shapes = (
{
closed = 1;
nodes = (
(208,0,l),
(254,524,l),
(256,524,l),
(393,80,l),
(541,80,l),
(678,524,l),
(680,524,l),
(726,0,l),
(871,0,l),
(782,730,l),
(607,730,l),
(468,242,l),
(466,242,l),
(327,730,l),
(152,730,l),
(63,0,l)
);
}
);
width = 934;
},
{
layerId = "0F4B55C1-D1AF-4339-8523-EC07133CB1AA";
shapes = (
{
closed = 1;
nodes = (
(154,0,l),
(221,607,l),
(222,607,l),
(413,80,l),
(502,80,l),
(692,607,l),
(694,607,l),
(761,0,l),
(845,0,l),
(754,730,l),
(651,730,l),
(458,181,l),
(456,181,l),
(264,730,l),
(161,730,l),
(71,0,l)
);
}
);
width = 916;
},
{
layerId = "2AC8629E-CA28-4614-8069-B83962E1F0CC";
leftMetricsKey = "=A*3.0";
shapes = (
{
closed = 1;
nodes = (
(78,0,l),
(166,704,l),
(167,704,l),
(411,80,l),
(443,80,l),
(687,704,l),
(688,704,l),
(776,0,l),
(797,0,l),
(705,730,l),
(675,730,l),
(428,97,l),
(426,97,l),
(179,730,l),
(149,730,l),
(57,0,l)
);
}
);
width = 854;
}
);
leftKerningGroup = H;
rightKerningGroup = H;
unicode = 77;
}
{
color = 10;
glyphname = N;
leftMetricsKey = H;
rightMetricsKey = "=|";
layers = (
{
anchors = (
{
name = bottom;
position = "{375, 0}";
},
{
name = top;
position = "{375, 730}";
}
);
layerId = "F2505AC5-901F-4BF6-BFE9-C6AF332FBC83";
shapes = (
{
closed = 1;
nodes = (
(265,0,l),
(265,390,l),
(267,390,l),
(485,0,l),
(685,0,l),
(685,730,l),
(485,730,l),
(485,340,l),
(483,340,l),
(265,730,l),
(65,730,l),
(65,0,l)
);
}
);
width = 750;
},
{
anchors = (
{
name = bottom;
position = "{372, 0}";
},
{
name = top;
position = "{372, 730}";
}
);
layerId = "A825F678-EB93-40C4-A48C-B705E79FBCA5";
shapes = (
{
closed = 1;
nodes = (
(215,0,l),
(215,497,l),
(217,497,l),
(522,0,l),
(668,0,l),
(668,730,l),
(528,730,l),
(528,233,l),
(526,233,l),
(222,730,l),
(75,730,l),
(75,0,l)
);
}
);
width = 743;
},
{
anchors = (
{
name = bottom;
position = "{368, 0}";
},
{
name = top;
position = "{368, 730}";
}
);
layerId = "0F4B55C1-D1AF-4339-8523-EC07133CB1AA";
shapes = (
{
closed = 1;
nodes = (
(165,0,l),
(165,603,l),
(167,603,l),
(561,0,l),
(652,0,l),
(652,730,l),
(572,730,l),
(572,127,l),
(570,127,l),
(175,730,l),
(85,730,l),
(85,0,l)
);
}
);
width = 737;
},
{
anchors = (
{
name = bottom;
position = "{365, 0}";
},
{
name = top;
position = "{365, 730}";
}
);
layerId = "2AC8629E-CA28-4614-8069-B83962E1F0CC";
shapes = (
{
closed = 1;
nodes = (
(115,0,l),
(115,709,l),
(117,709,l),
(604,0,l),
(635,0,l),
(635,730,l),
(615,730,l),
(615,21,l),
(613,21,l),
(126,730,l),
(95,730,l),
(95,0,l)
);
}
);
width = 730;
}
);
leftKerningGroup = H;
rightKerningGroup = H;
unicode = 78;
}
{
color = 10;
glyphname = O;
leftMetricsKey = "=H*.5";
rightMetricsKey = "=|";
layers = (
{
anchors = (
{
name = bottom;
position = "{412, 0}";
},
{
name = center;
position = "{412, 365}";
},
{
name = ogonek;
position = "{495, 0}";
},
{
name = top;
position = "{412, 730}";
},
{
name = topleft;
position = "{25, 730}";
},
{
name = topright;
position = "{609, 690}";
}
);
layerId = "F2505AC5-901F-4BF6-BFE9-C6AF332FBC83";
shapes = (
{
closed = 1;
nodes = (
(651,-10,o),
(792,129,o),
(792,365,cs),
(792,601,o),
(651,740,o),
(412,740,cs),
(173,740,o),
(32,601,o),
(32,365,cs),
(32,129,o),
(173,-10,o),
(412,-10,cs)
);
},
{
closed = 1;
nodes = (
(296,160,o),
(237,229,o),
(237,365,cs),
(237,501,o),
(296,570,o),
(412,570,cs),
(528,570,o),
(587,501,o),
(587,365,cs),
(587,229,o),
(528,160,o),
(412,160,cs)
);
}
);
width = 824;
},
{
anchors = (
{
name = bottom;
position = "{413, 0}";
},
{
name = center;
position = "{413, 365}";
},
{
name = ogonek;
position = "{485, 0}";
},
{
name = top;
position = "{413, 730}";
},
{
name = topleft;
position = "{29, 730}";
},
{
name = topright;
position = "{607, 690}";
}
);
layerId = "A825F678-EB93-40C4-A48C-B705E79FBCA5";
shapes = (
{
closed = 1;
nodes = (
(646,-10,o),
(790,134,o),
(790,365,cs),
(790,596,o),
(646,740,o),
(413,740,cs),
(181,740,o),
(37,596,o),
(37,365,cs),
(37,134,o),
(181,-10,o),
(413,-10,cs)
);
},
{
closed = 1;
nodes = (
(266,113,o),
(180,206,o),
(180,365,cs),
(180,524,o),
(266,617,o),
(413,617,cs),
(560,617,o),
(646,524,o),
(646,365,cs),
(646,206,o),
(560,113,o),
(413,113,cs)
);
}
);
width = 827;
},
{
anchors = (
{
name = bottom;
position = "{414, 0}";
},
{
name = center;
position = "{414, 365}";
},
{
name = ogonek;
position = "{475, 0}";
},
{
name = top;
position = "{414, 730}";
},
{
name = topleft;
position = "{34, 730}";
},
{
name = topright;
position = "{605, 690}";
}
);
layerId = "0F4B55C1-D1AF-4339-8523-EC07133CB1AA";
shapes = (
{
closed = 1;
nodes = (
(641,-10,o),
(788,138,o),
(788,365,cs),
(788,592,o),
(641,740,o),
(415,740,cs),
(189,740,o),
(42,592,o),
(42,365,cs),
(42,138,o),
(189,-10,o),
(415,-10,cs)
);
},
{
closed = 1;
nodes = (
(236,63,o),
(124,181,o),
(124,365,cs),
(124,549,o),
(236,667,o),
(415,667,cs),
(593,667,o),
(706,549,o),
(706,365,cs),
(706,181,o),
(593,63,o),
(415,63,cs)
);
}
);
width = 830;
},
{
anchors = (
{
name = bottom;
position = "{416, 0}";
},
{
name = center;
position = "{416, 365}";
},
{
name = ogonek;
position = "{465, 0}";
},
{
name = top;
position = "{416, 730}";
},
{
name = topleft;
position = "{39, 730}";
},
{
name = topright;
position = "{603, 690}";
}
);
layerId = "2AC8629E-CA28-4614-8069-B83962E1F0CC";
shapes = (
{
closed = 1;
nodes = (
(637,-10,o),
(786,142,o),
(786,365,cs),
(786,588,o),
(637,740,o),
(416,740,cs),
(197,740,o),
(47,588,o),
(47,365,cs),
(47,142,o),
(197,-10,o),
(416,-10,cs)
);
},
{
closed = 1;
nodes = (
(207,10,o),
(67,153,o),
(67,365,cs),
(67,577,o),
(207,720,o),
(417,720,cs),
(626,720,o),
(767,577,o),
(767,365,cs),
(767,153,o),
(626,10,o),
(417,10,cs)
);
}
);
width = 833;
}
);
leftKerningGroup = O;
rightKerningGroup = O;
unicode = 79;
}
{
color = 10;
glyphname = P;
leftMetricsKey = H;
rightMetricsKey = "=H*.3";
layers = (
{
layerId = "F2505AC5-901F-4BF6-BFE9-C6AF332FBC83";
rightMetricsKey = "=H*.4";
shapes = (
{
closed = 1;
nodes = (
(265,0,l),
(265,570,l),
(312,570,ls),
(414,570,o),
(460,537,o),
(460,465,cs),
(460,393,o),
(414,360,o),
(312,360,cs),
(165,360,l),
(165,200,l),
(338,200,ls),
(550,200,o),
(665,293,o),
(665,465,cs),
(665,641,o),
(545,730,o),
(307,730,cs),
(65,730,l),
(65,0,l)
);
}
);
width = 691;
},
{
layerId = "A825F678-EB93-40C4-A48C-B705E79FBCA5";
shapes = (
{
closed = 1;
nodes = (
(215,0,l),
(215,610,l),
(299,610,ls),
(443,610,o),
(505,570,o),
(505,480,cs),
(505,389,o),
(443,349,o),
(299,349,cs),
(145,349,l),
(145,229,l),
(316,229,ls),
(537,229,o),
(648,313,o),
(648,480,cs),
(648,649,o),
(534,730,o),
(296,730,cs),
(75,730,l),
(75,0,l)
);
}
);
width = 670;
},
{
layerId = "0F4B55C1-D1AF-4339-8523-EC07133CB1AA";
shapes = (
{
closed = 1;
nodes = (
(165,0,l),
(165,657,l),
(285,657,ls),
(471,657,o),
(550,608,o),
(550,495,cs),
(550,381,o),
(471,333,o),
(285,333,cs),
(125,333,l),
(125,259,l),
(294,259,ls),
(524,259,o),
(632,334,o),
(632,495,cs),
(632,656,o),
(522,730,o),
(284,730,cs),
(85,730,l),
(85,0,l)
);
}
);
width = 657;
},
{
layerId = "2AC8629E-CA28-4614-8069-B83962E1F0CC";
shapes = (
{
closed = 1;
nodes = (
(115,0,l),
(115,710,l),
(272,710,ls),
(500,710,o),
(595,650,o),
(595,510,cs),
(595,370,o),
(500,310,o),
(272,310,cs),
(105,310,l),
(105,290,l),
(272,290,ls),
(511,290,o),
(615,357,o),
(615,510,cs),
(615,663,o),
(511,730,o),
(272,730,cs),
(95,730,l),
(95,0,l)
);
}
);
width = 643;
}
);
leftKerningGroup = H;
rightKerningGroup = P;
unicode = 80;
}
{
color = 10;
glyphname = Q;
leftMetricsKey = O;
rightMetricsKey = O;
layers = (
{
layerId = "F2505AC5-901F-4BF6-BFE9-C6AF332FBC83";
rightMetricsKey = "=O-12";
shapes = (
{
closed = 1;
nodes = (
(802,-40,l),
(765,8,o),
(722,44,o),
(671,69,c),
(671,71,l),
(750,135,o),
(792,237,o),
(792,365,cs),
(792,601,o),
(651,740,o),
(412,740,cs),
(173,740,o),
(32,601,o),
(32,365,cs),
(32,129,o),
(173,-10,o),
(412,-10,cs),
(523,-10,o),
(574,-41,o),
(642,-150,c)
);
},
{
closed = 1;
nodes = (
(296,160,o),
(237,229,o),
(237,365,cs),
(237,501,o),
(296,570,o),
(412,570,cs),
(528,570,o),
(587,501,o),
(587,365,cs),
(587,229,o),
(528,160,o),
(412,160,cs)
);
}
);
width = 822;
},
{
layerId = "A825F678-EB93-40C4-A48C-B705E79FBCA5";
shapes = (
{
closed = 1;
nodes = (
(795,-61,l),
(754,-13,o),
(700,23,o),
(636,48,c),
(636,50,l),
(736,112,o),
(791,223,o),
(791,365,cs),
(791,596,o),
(646,740,o),
(414,740,cs),
(182,740,o),
(37,596,o),
(37,365,cs),
(37,134,o),
(182,-10,o),
(414,-10,cs),
(534,-10,o),
(620,-50,o),
(684,-139,c)
);
},
{
closed = 1;
nodes = (
(267,113,o),
(181,206,o),
(181,365,cs),
(181,524,o),
(267,617,o),
(414,617,cs),
(561,617,o),
(647,524,o),
(647,365,cs),
(647,206,o),
(561,113,o),
(414,113,cs)
);
}
);
width = 832;
},
{
layerId = "0F4B55C1-D1AF-4339-8523-EC07133CB1AA";
shapes = (
{
closed = 1;
nodes = (
(789,-81,l),
(739,-31,o),
(671,5,o),
(586,25,c),
(586,27,l),
(714,81,o),
(789,204,o),
(789,365,cs),
(789,592,o),
(642,740,o),
(415,740,cs),
(190,740,o),
(42,592,o),
(42,365,cs),
(42,138,o),
(190,-10,o),
(415,-10,cs),
(551,-10,o),
(660,-51,o),
(725,-127,c)
);
},
{
closed = 1;
nodes = (
(237,63,o),
(124,181,o),
(124,365,cs),
(124,549,o),
(237,667,o),
(416,667,cs),
(593,667,o),
(707,549,o),
(707,365,cs),
(707,181,o),
(593,63,o),
(416,63,cs)
);
}
);
width = 831;
},
{
layerId = "2AC8629E-CA28-4614-8069-B83962E1F0CC";
shapes = (
{
closed = 1;
nodes = (
(782,-102,l),
(722,-46,o),
(634,-11,o),
(522,2,c),
(522,4,l),
(683,44,o),
(786,180,o),
(786,365,cs),
(786,588,o),
(637,740,o),
(416,740,cs),
(197,740,o),
(47,588,o),
(47,365,cs),
(47,142,o),
(197,-10,o),
(416,-10,cs),
(574,-10,o),
(693,-46,o),
(766,-116,c)
);
},
{
closed = 1;
nodes = (
(207,10,o),
(67,153,o),
(67,365,cs),
(67,577,o),
(207,720,o),
(417,720,cs),
(626,720,o),
(767,577,o),
(767,365,cs),
(767,153,o),
(626,10,o),
(417,10,cs)
);
}
);
width = 833;
}
);
leftKerningGroup = O;
rightKerningGroup = O;
unicode = 81;
}
{
glyphname = R;
layers = (
{
anchors = (
{
name = b.dotbelowcomb_2;
position = "{330, 0}";
},
{
name = t.uni0302_2;
position = "{330, 730}";
}
);
layerId = "F2505AC5-901F-4BF6-BFE9-C6AF332FBC83";
shapes = (
{
closed = 1;
nodes = (
(256,270,l),
(451,0,l),
(665,0,l),
(459,284,l),
(451,268,l),
(571,296,o),
(635,373,o),
(635,495,cs),
(635,654,o),
(524,730,o),
(295,730,cs),
(65,730,l),
(65,0,l),
(265,0,l),
(265,270,l)
);
},
{
closed = 1;
nodes = (
(265,400,l),
(265,570,l),
(305,570,ls),
(390,570,o),
(430,542,o),
(430,485,cs),
(430,428,o),
(390,400,o),
(305,400,cs)
);
}
);
width = 691;
},
{
anchors = (
{
name = b.dotbelowcomb_2;
position = "{317, 0}";
},
{
name = t.uni0302_2;
position = "{317, 730}";
}
);
layerId = "A825F678-EB93-40C4-A48C-B705E79FBCA5";
shapes = (
{
closed = 1;
nodes = (
(203,300,l),
(464,0,l),
(628,0,l),
(366,300,l),
(356,287,l),
(520,299,o),
(602,373,o),
(602,510,cs),
(602,661,o),
(501,730,o),
(285,730,cs),
(75,730,l),
(75,0,l),
(215,0,l),
(215,300,l)
);
},
{
closed = 1;
nodes = (
(215,399,l),
(215,610,l),
(292,610,ls),
(408,610,o),
(459,577,o),
(459,504,cs),
(459,431,o),
(408,399,o),
(292,399,cs)
);
}
);
width = 658;
},
{
anchors = (
{
name = b.dotbelowcomb_2;
position = "{303, 0}";
},
{
name = t.uni0302_2;
position = "{303, 730}";
}
);
layerId = "0F4B55C1-D1AF-4339-8523-EC07133CB1AA";
shapes = (
{
closed = 1;
nodes = (
(232,318,l),
(496,0,l),
(592,0,l),
(325,321,l),
(336,321,ls),
(468,321,o),
(568,385,o),
(568,525,cs),
(568,702,o),
(422,730,o),
(275,730,cs),
(85,730,l),
(85,0,l),
(165,0,l),
(165,318,l)
);
},
{
closed = 1;
nodes = (
(165,389,l),
(165,657,l),
(278,657,ls),
(376,657,o),
(487,644,o),
(487,522,cs),
(487,400,o),
(375,389,o),
(278,389,cs)
);
}
);
width = 626;
},
{
anchors = (
{
name = b.dotbelowcomb_2;
position = "{290, 0}";
},
{
name = t.uni0302_2;
position = "{290, 730}";
}
);
layerId = "2AC8629E-CA28-4614-8069-B83962E1F0CC";
shapes = (
{
closed = 1;
nodes = (
(206,350,l),
(527,0,l),
(555,0,l),
(234,350,l),
(265,350,ls),
(402,350,o),
(535,375,o),
(535,540,cs),
(535,705,o),
(402,730,o),
(265,730,cs),
(95,730,l),
(95,0,l),
(115,0,l),
(115,350,l)
);
},
{
closed = 1;
nodes = (
(115,370,l),
(115,710,l),
(265,710,ls),
(389,710,o),
(515,692,o),
(515,540,cs),
(515,388,o),
(389,370,o),
(265,370,cs)
);
}
);
width = 593;
}
);
leftKerningGroup = H;
rightKerningGroup = R;
unicode = 82;
}
{
color = 10;
glyphname = S;
leftMetricsKey = "=H*.7";
rightMetricsKey = "=|";
layers = (
{
anchors = (
{
name = bottom;
position = "{336, 0}";
},
{
name = cedi;
position = "{251, 0}";
},
{
name = top;
position = "{336, 730}";
}
);
layerId = "F2505AC5-901F-4BF6-BFE9-C6AF332FBC83";
leftMetricsKey = "=H*.6";
shapes = (
{
closed = 1;
nodes = (
(526,-10,o),
(639,69,o),
(639,210,cs),
(639,320,o),
(571,384,o),
(401,434,cs),
(278,470,o),
(249,488,o),
(249,526,cs),
(249,560,o),
(279,575,o),
(344,575,cs),
(417,575,o),
(500,555,o),
(568,522,c),
(610,692,l),
(541,722,o),
(442,740,o),
(347,740,cs),
(149,740,o),
(39,663,o),
(39,525,cs),
(39,410,o),
(109,342,o),
(273,297,cs),
(402,261,o),
(429,246,o),
(429,210,cs),
(429,175,o),
(396,155,o),
(339,155,cs),
(267,155,o),
(154,186,o),
(87,224,c),
(45,54,l),
(110,14,o),
(213,-10,o),
(326,-10,cs)
);
}
);
width = 678;
},
{
anchors = (
{
name = bottom;
position = "{335, 0}";
},
{
name = cedi;
position = "{259, 0}";
},
{
name = top;
position = "{335, 730}";
}
);
layerId = "A825F678-EB93-40C4-A48C-B705E79FBCA5";
shapes = (
{
closed = 1;
nodes = (
(516,-10,o),
(625,67,o),
(625,201,cs),
(625,311,o),
(556,372,o),
(379,421,cs),
(237,461,o),
(198,487,o),
(198,537,cs),
(198,591,o),
(246,618,o),
(339,618,cs),
(418,618,o),
(503,599,o),
(568,567,c),
(599,691,l),
(535,721,o),
(435,740,o),
(342,740,cs),
(157,740,o),
(52,666,o),
(52,537,cs),
(52,428,o),
(122,364,o),
(292,318,cs),
(438,279,o),
(478,254,o),
(478,202,cs),
(478,144,o),
(427,112,o),
(336,112,cs),
(256,112,o),
(155,138,o),
(87,177,c),
(56,52,l),
(123,13,o),
(223,-10,o),
(327,-10,cs)
);
}
);
width = 677;
},
{
anchors = (
{
name = bottom;
position = "{329, 0}";
},
{
name = cedi;
position = "{262, 0}";
},
{
name = top;
position = "{329, 730}";
}
);
layerId = "0F4B55C1-D1AF-4339-8523-EC07133CB1AA";
shapes = (
{
closed = 1;
nodes = (
(501,-10,o),
(605,65,o),
(605,192,cs),
(605,312,o),
(513,363,o),
(351,406,cs),
(210,444,o),
(142,473,o),
(142,548,cs),
(142,624,o),
(208,667,o),
(329,667,cs),
(412,667,o),
(503,647,o),
(562,617,c),
(583,691,l),
(523,720,o),
(421,740,o),
(331,740,cs),
(159,740,o),
(59,670,o),
(59,549,cs),
(59,435,o),
(149,383,o),
(305,342,cs),
(450,305,o),
(522,275,o),
(522,193,cs),
(522,111,o),
(452,63,o),
(328,63,cs),
(243,63,o),
(149,86,o),
(81,124,c),
(61,50,l),
(131,12,o),
(226,-10,o),
(323,-10,cs)
);
}
);
width = 664;
},
{
anchors = (
{
name = bottom;
position = "{323, 0}";
},
{
name = cedi;
position = "{265, 0}";
},
{
name = top;
position = "{323, 730}";
}
);
background = {
shapes = (
{
closed = 0;
nodes = (
(71,57,l),
(142,20,o),
(232,0,o),
(320,0,cs),
(480,0,o),
(576,68,o),
(576,183,cs),
(576,445,o),
(77,313,o),
(77,561,cs),
(77,667,o),
(168,730,o),
(320,730,cs),
(407,730,o),
(508,709,o),
(562,681,c)
);
}
);
};
layerId = "2AC8629E-CA28-4614-8069-B83962E1F0CC";
shapes = (
{
closed = 1;
nodes = (
(486,-10,o),
(586,62,o),
(586,183,cs),
(586,324,o),
(450,357,o),
(324,388,cs),
(201,419,o),
(87,447,o),
(87,561,cs),
(87,661,o),
(173,720,o),
(320,720,cs),
(404,720,o),
(504,700,o),
(557,672,c),
(567,690,l),
(510,719,o),
(407,740,o),
(320,740,cs),
(162,740,o),
(67,673,o),
(67,561,cs),
(67,431,o),
(196,399,o),
(319,369,cs),
(445,338,o),
(566,308,o),
(566,183,cs),
(566,74,o),
(475,10,o),
(320,10,cs),
(232,10,o),
(144,30,o),
(76,66,c),
(66,48,l),
(138,11,o),
(229,-10,o),
(320,-10,cs)
);
}
);
width = 652;
}
);
leftKerningGroup = S;
rightKerningGroup = S;
unicode = 83;
}
{
color = 10;
glyphname = T;
leftMetricsKey = "=H*.3";
rightMetricsKey = "=|";
layers = (
{
anchors = (
{
name = bottom;
position = "{336, 0}";
},
{
name = cedi;
position = "{233, 0}";
},
{
name = center;
position = "{336, 365}";
},
{
name = top;
position = "{336, 730}";
}
);
layerId = "F2505AC5-901F-4BF6-BFE9-C6AF332FBC83";
leftMetricsKey = "=H*.4";
shapes = (
{
closed = 1;
nodes = (
(439,0,l),
(439,560,l),
(646,560,l),
(646,730,l),
(26,730,l),
(26,560,l),
(233,560,l),
(233,0,l)
);
}
);
width = 672;
},
{
anchors = (
{
name = bottom;
position = "{329, 0}";
},
{
name = cedi;
position = "{257, 0}";
},
{
name = center;
position = "{329, 365}";
},
{
name = top;
position = "{329, 730}";
}
);
layerId = "A825F678-EB93-40C4-A48C-B705E79FBCA5";
shapes = (
{
closed = 1;
nodes = (
(401,0,l),
(401,607,l),
(636,607,l),
(636,730,l),
(22,730,l),
(22,607,l),
(257,607,l),
(257,0,l)
);
}
);
width = 658;
},
{
anchors = (
{
name = bottom;
position = "{328, 0}";
},
{
name = cedi;
position = "{287, 0}";
},
{
name = center;
position = "{328, 365}";
},
{
name = top;
position = "{328, 730}";
}
);
layerId = "0F4B55C1-D1AF-4339-8523-EC07133CB1AA";
shapes = (
{
closed = 1;
nodes = (
(370,0,l),
(370,657,l),
(632,657,l),
(632,730,l),
(25,730,l),
(25,657,l),
(287,657,l),
(287,0,l)
);
}
);
width = 657;
},
{
anchors = (
{
name = bottom;
position = "{328, 0}";
},
{
name = cedi;
position = "{318, 0}";
},
{
name = center;
position = "{328, 365}";
},
{
name = top;
position = "{328, 730}";
}
);
layerId = "2AC8629E-CA28-4614-8069-B83962E1F0CC";
shapes = (
{
closed = 1;
nodes = (
(338,0,l),
(338,710,l),
(628,710,l),
(628,730,l),
(28,730,l),
(28,710,l),
(318,710,l),
(318,0,l)
);
}
);
width = 656;
}
);
leftKerningGroup = T;
rightKerningGroup = T;
unicode = 84;
}
{
color = 10;
glyphname = U;
leftMetricsKey = "=H*.9";
rightMetricsKey = "=|";
layers = (
{
anchors = (
{
name = bottom;
position = "{368, 0}";
},
{
name = ogonek;
position = "{501, 10}";
},
{
name = top;
position = "{368, 730}";
},
{
name = top_ring;
position = "{368, 720}";
},
{
name = topright;
position = "{638, 690}";
}
);
layerId = "F2505AC5-901F-4BF6-BFE9-C6AF332FBC83";
shapes = (
{
closed = 1;
nodes = (
(569,-10,o),
(678,88,o),
(678,270,cs),
(678,730,l),
(478,730,l),
(478,295,ls),
(478,194,o),
(450,160,o),
(368,160,cs),
(286,160,o),
(258,194,o),
(258,295,cs),
(258,730,l),
(58,730,l),
(58,270,ls),
(58,88,o),
(166,-10,o),
(368,-10,cs)
);
}
);
width = 736;
},
{
anchors = (
{
name = bottom;
position = "{363, 0}";
},
{
name = ogonek;
position = "{491, 10}";
},
{
name = top;
position = "{363, 730}";
},
{
name = top_ring;
position = "{363, 713}";
},
{
name = topright;
position = "{630, 690}";
}
);
layerId = "A825F678-EB93-40C4-A48C-B705E79FBCA5";
shapes = (
{
closed = 1;
nodes = (
(557,-10,o),
(660,87,o),
(660,270,cs),
(660,730,l),
(520,730,l),
(520,287,ls),
(520,164,o),
(474,113,o),
(363,113,cs),
(253,113,o),
(207,164,o),
(207,287,cs),
(207,730,l),
(67,730,l),
(67,270,ls),
(67,87,o),
(169,-10,o),
(363,-10,cs)
);
}
);
width = 727;
},
{
anchors = (
{
name = bottom;
position = "{359, 0}";
},
{
name = ogonek;
position = "{479, 10}";
},
{
name = top;
position = "{359, 730}";
},
{
name = top_ring;
position = "{359, 707}";
},
{
name = topright;
position = "{622, 690}";
}
);
layerId = "0F4B55C1-D1AF-4339-8523-EC07133CB1AA";
shapes = (
{
closed = 1;
nodes = (
(545,-10,o),
(642,86,o),
(642,270,cs),
(642,730,l),
(562,730,l),
(562,279,ls),
(562,131,o),
(498,63,o),
(359,63,cs),
(220,63,o),
(156,131,o),
(156,279,cs),
(156,730,l),
(76,730,l),
(76,270,ls),
(76,86,o),
(173,-10,o),
(359,-10,cs)
);
}
);
width = 718;
},
{
anchors = (
{
name = bottom;
position = "{355, 0}";
},
{
name = ogonek;
position = "{464, 10}";
},
{
name = top;
position = "{355, 730}";
},
{
name = top_ring;
position = "{355, 700}";
},
{
name = topright;
position = "{615, 690}";
}
);
layerId = "2AC8629E-CA28-4614-8069-B83962E1F0CC";
shapes = (
{
closed = 1;
nodes = (
(534,-10,o),
(625,85,o),
(625,270,cs),
(625,730,l),
(605,730,l),
(605,270,ls),
(605,96,o),
(522,10,o),
(355,10,cs),
(188,10,o),
(105,96,o),
(105,270,cs),
(105,730,l),
(85,730,l),
(85,270,ls),
(85,85,o),
(176,-10,o),
(355,-10,cs)
);
}
);
width = 710;
}
);
leftKerningGroup = U;
rightKerningGroup = U;
unicode = 85;
}
{
color = 10;
glyphname = V;
leftMetricsKey = A;
rightMetricsKey = "=|";
layers = (
{
layerId = "F2505AC5-901F-4BF6-BFE9-C6AF332FBC83";
shapes = (
{
closed = 1;
nodes = (
(486,0,l),
(706,730,l),
(486,730,l),
(357,200,l),
(355,200,l),
(226,730,l),
(6,730,l),
(226,0,l)
);
}
);
width = 712;
},
{
layerId = "A825F678-EB93-40C4-A48C-B705E79FBCA5";
shapes = (
{
closed = 1;
nodes = (
(446,0,l),
(695,730,l),
(541,730,l),
(356,140,l),
(354,140,l),
(169,730,l),
(15,730,l),
(264,0,l)
);
}
);
width = 710;
},
{
layerId = "0F4B55C1-D1AF-4339-8523-EC07133CB1AA";
shapes = (
{
closed = 1;
nodes = (
(400,0,l),
(677,730,l),
(589,730,l),
(348,79,l),
(346,79,l),
(105,730,l),
(17,730,l),
(294,0,l)
);
}
);
width = 694;
},
{
layerId = "2AC8629E-CA28-4614-8069-B83962E1F0CC";
shapes = (
{
closed = 1;
nodes = (
(354,0,l),
(659,730,l),
(637,730,l),
(340,18,l),
(338,18,l),
(41,730,l),
(19,730,l),
(324,0,l)
);
}
);
width = 678;
}
);
leftKerningGroup = V;
rightKerningGroup = V;
unicode = 86;
}
{
glyphname = W;
layers = (
{
anchors = (
{
name = b.dotbelowcomb_2;
position = "{481, 0}";
},
{
name = t.uni0302_2;
position = "{481, 730}";
}
);
layerId = "F2505AC5-901F-4BF6-BFE9-C6AF332FBC83";
shapes = (
{
closed = 1;
nodes = (
(171,0,l),
(401,0,l),
(475,530,l),
(477,530,l),
(551,0,l),
(781,0,l),
(936,730,l),
(738,730,l),
(664,200,l),
(662,200,l),
(598,730,l),
(358,730,l),
(294,200,l),
(292,200,l),
(218,730,l),
(16,730,l)
);
}
);
width = 962;
},
{
anchors = (
{
name = b.dotbelowcomb_2;
position = "{470, 0}";
},
{
name = t.uni0302_2;
position = "{470, 730}";
}
);
layerId = "A825F678-EB93-40C4-A48C-B705E79FBCA5";
shapes = (
{
closed = 1;
nodes = (
(192,0,l),
(358,0,l),
(469,583,l),
(471,583,l),
(582,0,l),
(748,0,l),
(917,730,l),
(779,730,l),
(668,147,l),
(666,147,l),
(559,730,l),
(385,730,l),
(278,147,l),
(276,147,l),
(165,730,l),
(23,730,l)
);
}
);
width = 941;
},
{
anchors = (
{
name = b.dotbelowcomb_2;
position = "{458, 0}";
},
{
name = t.uni0302_2;
position = "{458, 730}";
}
);
layerId = "0F4B55C1-D1AF-4339-8523-EC07133CB1AA";
shapes = (
{
closed = 1;
nodes = (
(208,0,l),
(308,0,l),
(459,644,l),
(461,644,l),
(611,0,l),
(712,0,l),
(891,730,l),
(812,730,l),
(665,86,l),
(663,86,l),
(513,730,l),
(409,730,l),
(259,86,l),
(257,86,l),
(110,730,l),
(28,730,l)
);
}
);
width = 917;
},
{
anchors = (
{
name = b.dotbelowcomb_2;
position = "{445, 0}";
},
{
name = t.uni0302_2;
position = "{445, 730}";
}
);
layerId = "2AC8629E-CA28-4614-8069-B83962E1F0CC";
shapes = (
{
closed = 1;
nodes = (
(219,0,l),
(251,0,l),
(444,713,l),
(446,713,l),
(639,0,l),
(671,0,l),
(860,730,l),
(839,730,l),
(656,17,l),
(654,17,l),
(461,730,l),
(429,730,l),
(236,17,l),
(234,17,l),
(51,730,l),
(30,730,l)
);
}
);
width = 890;
}
);
leftKerningGroup = W;
rightKerningGroup = W;
unicode = 87;
}
{
color = 10;
glyphname = X;
leftMetricsKey = "=|K*2.2";
rightMetricsKey = "=|";
layers = (
{
layerId = "F2505AC5-901F-4BF6-BFE9-C6AF332FBC83";
shapes = (
{
closed = 1;
nodes = (
(253,0,l),
(357,255,l),
(359,255,l),
(463,0,l),
(688,0,l),
(508,365,l),
(688,730,l),
(463,730,l),
(359,475,l),
(357,475,l),
(253,730,l),
(28,730,l),
(208,365,l),
(28,0,l)
);
}
);
width = 716;
},
{
layerId = "A825F678-EB93-40C4-A48C-B705E79FBCA5";
shapes = (
{
closed = 1;
nodes = (
(207,0,l),
(364,288,l),
(366,288,l),
(524,0,l),
(682,0,l),
(469,366,l),
(680,730,l),
(522,730,l),
(366,446,l),
(364,446,l),
(209,730,l),
(51,730,l),
(261,366,l),
(49,0,l)
);
}
);
width = 731;
},
{
layerId = "0F4B55C1-D1AF-4339-8523-EC07133CB1AA";
shapes = (
{
closed = 1;
nodes = (
(148,0,l),
(358,320,l),
(360,320,l),
(571,0,l),
(663,0,l),
(417,368,l),
(659,730,l),
(567,730,l),
(360,416,l),
(358,416,l),
(152,730,l),
(60,730,l),
(301,368,l),
(56,0,l)
);
}
);
width = 719;
},
{
layerId = "2AC8629E-CA28-4614-8069-B83962E1F0CC";
shapes = (
{
closed = 1;
nodes = (
(87,0,l),
(351,351,l),
(353,351,l),
(617,0,l),
(642,0,l),
(364,369,l),
(636,730,l),
(611,730,l),
(353,387,l),
(351,387,l),
(93,730,l),
(68,730,l),
(340,369,l),
(62,0,l)
);
}
);
width = 704;
}
);
leftKerningGroup = X;
rightKerningGroup = X;
unicode = 88;
}
{
color = 10;
glyphname = Y;
leftMetricsKey = "=V*.6";
rightMetricsKey = "=|";
layers = (
{
anchors = (
{
name = bottom;
position = "{353, 0}";
},
{
name = top;
position = "{353, 730}";
},
{
name = topleft;
position = "{19, 730}";
}
);
layerId = "F2505AC5-901F-4BF6-BFE9-C6AF332FBC83";
shapes = (
{
closed = 1;
nodes = (
(458,0,l),
(458,250,l),
(703,730,l),
(483,730,l),
(354,420,l),
(352,420,l),
(223,730,l),
(3,730,l),
(248,250,l),
(248,0,l)
);
}
);
width = 706;
},
{
anchors = (
{
name = bottom;
position = "{349, 0}";
},
{
name = top;
position = "{349, 730}";
},
{
name = topleft;
position = "{29, 730}";
}
);
layerId = "A825F678-EB93-40C4-A48C-B705E79FBCA5";
shapes = (
{
closed = 1;
nodes = (
(422,0,l),
(422,266,l),
(689,730,l),
(532,730,l),
(350,389,l),
(348,389,l),
(166,730,l),
(9,730,l),
(276,266,l),
(276,0,l)
);
}
);
width = 698;
},
{
anchors = (
{
name = bottom;
position = "{340, 0}";
},
{
name = top;
position = "{340, 730}";
},
{
name = topleft;
position = "{34, 730}";
}
);
layerId = "0F4B55C1-D1AF-4339-8523-EC07133CB1AA";
shapes = (
{
closed = 1;
nodes = (
(382,0,l),
(382,282,l),
(670,730,l),
(578,730,l),
(341,355,l),
(339,355,l),
(103,730,l),
(10,730,l),
(299,282,l),
(299,0,l)
);
}
);
width = 680;
},
{
anchors = (
{
name = bottom;
position = "{331, 0}";
},
{
name = top;
position = "{331, 730}";
},
{
name = topleft;
position = "{39, 730}";
}
);
layerId = "2AC8629E-CA28-4614-8069-B83962E1F0CC";
shapes = (
{
closed = 1;
nodes = (
(341,0,l),
(341,297,l),
(651,730,l),
(626,730,l),
(332,318,l),
(330,318,l),
(36,730,l),
(11,730,l),
(321,297,l),
(321,0,l)
);
}
);
width = 662;
}
);
leftKerningGroup = Y;
rightKerningGroup = Y;
unicode = 89;
}
{
color = 10;
glyphname = Z;
leftMetricsKey = "=H*.8";
rightMetricsKey = "=|";
layers = (
{
anchors = (
{
name = bottom;
position = "{322, 0}";
},
{
name = center;
position = "{322, 365}";
},
{
name = top;
position = "{322, 730}";
}
);
layerId = "F2505AC5-901F-4BF6-BFE9-C6AF332FBC83";
shapes = (
{
closed = 1;
nodes = (
(592,0,l),
(592,165,l),
(287,165,l),
(287,167,l),
(592,565,l),
(592,730,l),
(52,730,l),
(52,565,l),
(357,565,l),
(357,563,l),
(52,165,l),
(52,0,l)
);
}
);
width = 644;
},
{
anchors = (
{
name = bottom;
position = "{323, 0}";
},
{
name = center;
position = "{323, 365}";
},
{
name = top;
position = "{323, 730}";
}
);
layerId = "A825F678-EB93-40C4-A48C-B705E79FBCA5";
shapes = (
{
closed = 1;
nodes = (
(586,0,l),
(586,122,l),
(228,122,l),
(228,124,l),
(586,608,l),
(586,730,l),
(60,730,l),
(60,608,l),
(418,608,l),
(418,606,l),
(60,122,l),
(60,0,l)
);
}
);
width = 646;
},
{
anchors = (
{
name = bottom;
position = "{325, 0}";
},
{
name = center;
position = "{325, 365}";
},
{
name = top;
position = "{325, 730}";
}
);
layerId = "0F4B55C1-D1AF-4339-8523-EC07133CB1AA";
shapes = (
{
closed = 1;
nodes = (
(581,0,l),
(581,73,l),
(166,73,l),
(166,75,l),
(581,657,l),
(581,730,l),
(68,730,l),
(68,657,l),
(483,657,l),
(483,655,l),
(68,73,l),
(68,0,l)
);
}
);
width = 649;
},
{
anchors = (
{
name = bottom;
position = "{326, 0}";
},
{
name = center;
position = "{326, 365}";
},
{
name = top;
position = "{326, 730}";
}
);
layerId = "2AC8629E-CA28-4614-8069-B83962E1F0CC";
shapes = (
{
closed = 1;
nodes = (
(576,0,l),
(576,20,l),
(101,20,l),
(101,22,l),
(576,710,l),
(576,730,l),
(76,730,l),
(76,710,l),
(551,710,l),
(551,708,l),
(76,20,l),
(76,0,l)
);
}
);
width = 652;
}
);
leftKerningGroup = Z;
rightKerningGroup = Z;
unicode = 90;
}
{
color = 10;
glyphname = bracketleft;
leftMetricsKey = bar;
rightMetricsKey = "=|*.5";
layers = (
{
layerId = "F2505AC5-901F-4BF6-BFE9-C6AF332FBC83";
shapes = (
{
closed = 1;
nodes = (
(460,-110,l),
(460,20,l),
(270,20,l),
(270,640,l),
(460,640,l),
(460,770,l),
(100,770,l),
(100,-110,l)
);
}
);
width = 510;
},
{
layerId = "A825F678-EB93-40C4-A48C-B705E79FBCA5";
shapes = (
{
closed = 1;
nodes = (
(416,-110,l),
(416,-3,l),
(226,-3,l),
(226,663,l),
(416,663,l),
(416,770,l),
(99,770,l),
(99,-110,l)
);
}
);
width = 465;
},
{
layerId = "0F4B55C1-D1AF-4339-8523-EC07133CB1AA";
shapes = (
{
closed = 1;
nodes = (
(385,-110,l),
(385,-40,l),
(189,-40,l),
(189,700,l),
(385,700,l),
(385,770,l),
(112,770,l),
(112,-110,l)
);
}
);
width = 441;
},
{
layerId = "2AC8629E-CA28-4614-8069-B83962E1F0CC";
shapes = (
{
closed = 1;
nodes = (
(355,-110,l),
(355,-90,l),
(145,-90,l),
(145,750,l),
(355,750,l),
(355,770,l),
(125,770,l),
(125,-110,l)
);
}
);
width = 417;
}
);
leftKerningGroup = I;
rightKerningGroup = bracketin;
unicode = 91;
}
{
color = 10;
glyphname = bracketright;
leftMetricsKey = "|bracketleft";
rightMetricsKey = "|bracketleft";
layers = (
{
layerId = "F2505AC5-901F-4BF6-BFE9-C6AF332FBC83";
shapes = (
{
closed = 1;
nodes = (
(410,-110,l),
(410,770,l),
(50,770,l),
(50,640,l),
(240,640,l),
(240,20,l),
(50,20,l),
(50,-110,l)
);
}
);
width = 510;
},
{
layerId = "A825F678-EB93-40C4-A48C-B705E79FBCA5";
shapes = (
{
closed = 1;
nodes = (
(366,-110,l),
(366,770,l),
(49,770,l),
(49,663,l),
(239,663,l),
(239,-3,l),
(49,-3,l),
(49,-110,l)
);
}
);
width = 465;
},
{
layerId = "0F4B55C1-D1AF-4339-8523-EC07133CB1AA";
shapes = (
{
closed = 1;
nodes = (
(329,-110,l),
(329,770,l),
(56,770,l),
(56,700,l),
(252,700,l),
(252,-40,l),
(56,-40,l),
(56,-110,l)
);
}
);
width = 441;
},
{
layerId = "2AC8629E-CA28-4614-8069-B83962E1F0CC";
shapes = (
{
closed = 1;
nodes = (
(292,-110,l),
(292,770,l),
(62,770,l),
(62,750,l),
(272,750,l),
(272,-90,l),
(62,-90,l),
(62,-110,l)
);
}
);
width = 417;
}
);
leftKerningGroup = bracketin;
rightKerningGroup = I;
unicode = 93;
}
{
color = 10;
glyphname = asciicircum;
leftMetricsKey = A;
rightMetricsKey = "=|";
layers = (
{
layerId = "F2505AC5-901F-4BF6-BFE9-C6AF332FBC83";
shapes = (
{
closed = 1;
nodes = (
(226,280,l),
(345,590,l),
(347,590,l),
(466,280,l),
(686,280,l),
(476,730,l),
(216,730,l),
(6,280,l)
);
}
);
width = 692;
},
{
layerId = "A825F678-EB93-40C4-A48C-B705E79FBCA5";
shapes = (
{
closed = 1;
nodes = (
(170,280,l),
(327,632,l),
(329,632,l),
(488,280,l),
(642,280,l),
(420,730,l),
(237,730,l),
(15,280,l)
);
}
);
width = 657;
},
{
layerId = "0F4B55C1-D1AF-4339-8523-EC07133CB1AA";
shapes = (
{
closed = 1;
nodes = (
(106,280,l),
(303,674,l),
(305,674,l),
(502,280,l),
(591,280,l),
(358,730,l),
(251,730,l),
(17,280,l)
);
}
);
width = 608;
},
{
layerId = "2AC8629E-CA28-4614-8069-B83962E1F0CC";
shapes = (
{
closed = 1;
nodes = (
(42,280,l),
(278,716,l),
(280,716,l),
(516,280,l),
(539,280,l),
(294,730,l),
(264,730,l),
(19,280,l)
);
}
);
width = 558;
}
);
leftKerningGroup = asciicircum;
rightKerningGroup = asciicircum;
unicode = 94;
}
{
glyphname = a;
layers = (
{
anchors = (
{
name = t.uni0302_2;
position = "{305, 590}";
},
{
name = b.uni0316_2;
position = "{305, 0}";
}
);
layerId = "F2505AC5-901F-4BF6-BFE9-C6AF332FBC83";
shapes = (
{
closed = 1;
nodes = (
(38,265,o),
(139,340,o),
(323,340,cs),
(353,340,l),
(353,385,o),
(338,400,o),
(293,400,cs),
(223,400,o),
(155,385,o),
(88,355,c),
(63,485,l),
(136,515,o),
(216,530,o),
(303,530,c),
(458,532,o),
(543,484,o),
(543,320,cs),
(543,140,ls),
(543,92,o),
(548,45,o),
(558,0,c),
(378,0,l),
(374,23,o),
(371,46,o),
(368,70,c),
(366,70,l),
(330,22,o),
(268,-10,o),
(208,-10,cs),
(105,-10,o),
(38,50,o),
(38,150,c)
);
},
{
closed = 1;
nodes = (
(208,140,o),
(225,125,o),
(258,125,cs),
(315,125,o),
(353,159,o),
(353,215,cs),
(353,230,l),
(323,230,ls),
(247,230,o),
(208,206,o),
(208,170,cs)
);
}
);
width = 611;
},
{
anchors = (
{
name = t.uni0302_2;
position = "{293, 590}";
},
{
name = b.uni0316_2;
position = "{293, 0}";
}
);
layerId = "A825F678-EB93-40C4-A48C-B705E79FBCA5";
shapes = (
{
closed = 1;
nodes = (
(43,262,o),
(145,336,o),
(330,336,cs),
(370,336,l),
(371,403,o),
(348,428,o),
(282,428,cs),
(215,428,o),
(151,413,o),
(89,383,c),
(69,484,l),
(135,515,o),
(208,530,o),
(288,530,c),
(439,531,o),
(513,480,o),
(513,327,cs),
(513,140,ls),
(513,93,o),
(518,46,o),
(528,0,c),
(392,0,l),
(387,25,o),
(384,52,o),
(382,79,c),
(380,79,l),
(344,24,o),
(278,-10,o),
(208,-10,cs),
(108,-10,o),
(43,49,o),
(43,146,cs)
);
},
{
closed = 1;
nodes = (
(174,118,o),
(200,94,o),
(245,94,c),
(317,95,o),
(370,145,o),
(370,217,cs),
(370,248,l),
(330,248,ls),
(229,248,o),
(174,213,o),
(174,160,cs)
);
}
);
width = 586;
},
{
anchors = (
{
name = t.uni0302_2;
position = "{276, 590}";
},
{
name = b.uni0316_2;
position = "{276, 0}";
}
);
layerId = "0F4B55C1-D1AF-4339-8523-EC07133CB1AA";
shapes = (
{
closed = 1;
nodes = (
(49,257,o),
(153,331,o),
(340,331,cs),
(392,331,l),
(394,426,o),
(362,466,o),
(267,466,cs),
(203,466,o),
(145,451,o),
(90,420,c),
(75,483,l),
(133,514,o),
(197,530,o),
(267,530,c),
(413,530,o),
(473,475,o),
(473,336,cs),
(473,140,ls),
(473,93,o),
(478,46,o),
(488,0,c),
(411,0,l),
(404,29,o),
(401,59,o),
(400,91,c),
(398,91,l),
(362,28,o),
(292,-10,o),
(208,-10,cs),
(112,-10,o),
(49,48,o),
(49,141,cs)
);
},
{
closed = 1;
nodes = (
(127,86,o),
(166,52,o),
(227,52,c),
(320,54,o),
(392,124,o),
(392,218,cs),
(392,271,l),
(340,271,ls),
(204,271,o),
(127,222,o),
(127,145,cs)
);
}
);
width = 552;
},
{
anchors = (
{
name = b.uni0316_2;
position = "{263, 0}";
},
{
name = t.uni0302_2;
position = "{263, 590}";
}
);
layerId = "2AC8629E-CA28-4614-8069-B83962E1F0CC";
shapes = (
{
closed = 1;
nodes = (
(56,257,o),
(166,325,o),
(361,325,cs),
(421,325,l),
(423,449,o),
(391,510,o),
(261,510,cs),
(198,510,o),
(140,494,o),
(86,463,c),
(76,480,l),
(133,513,o),
(195,530,o),
(261,530,cs),
(405,530,o),
(441,466,o),
(441,330,cs),
(441,140,ls),
(441,93,o),
(446,47,o),
(456,0,c),
(436,0,l),
(427,41,o),
(423,80,o),
(422,115,c),
(420,115,l),
(385,38,o),
(313,-10,o),
(221,-10,c),
(121,-10,o),
(56,49,o),
(56,140,c)
);
},
{
closed = 1;
nodes = (
(76,60,o),
(132,10,o),
(221,10,c),
(338,12,o),
(421,92,o),
(421,210,cs),
(421,305,l),
(361,305,ls),
(180,305,o),
(76,245,o),
(76,140,cs)
);
}
);
width = 527;
}
);
leftKerningGroup = a;
rightKerningGroup = h;
unicode = 97;
}
{
color = 11;
glyphname = b;
leftMetricsKey = h;
rightMetricsKey = o;
layers = (
{
layerId = "F2505AC5-901F-4BF6-BFE9-C6AF332FBC83";
shapes = (
{
closed = 1;
nodes = (
(543,-10,o),
(618,87,o),
(618,260,cs),
(618,433,o),
(543,530,o),
(409,530,cs),
(345,530,o),
(300,508,o),
(256,460,c),
(254,460,l),
(254,730,l),
(58,730,l),
(58,0,l),
(244,0,l),
(246,60,l),
(248,60,l),
(297,12,o),
(345,-10,o),
(409,-10,cs)
);
},
{
closed = 1;
nodes = (
(280,140,o),
(254,177,o),
(254,240,cs),
(254,280,ls),
(254,343,o),
(280,380,o),
(338,380,cs),
(398,380,o),
(426,341,o),
(426,260,cs),
(426,179,o),
(398,140,o),
(338,140,cs)
);
}
);
width = 647;
},
{
layerId = "A825F678-EB93-40C4-A48C-B705E79FBCA5";
shapes = (
{
closed = 1;
nodes = (
(507,-10,o),
(585,88,o),
(585,260,cs),
(585,432,o),
(507,530,o),
(369,530,cs),
(298,530,o),
(248,505,o),
(207,455,c),
(205,455,l),
(205,730,l),
(67,730,l),
(67,0,l),
(198,0,l),
(199,65,l),
(201,65,l),
(247,15,o),
(299,-10,o),
(369,-10,cs)
);
},
{
closed = 1;
nodes = (
(249,100,o),
(205,156,o),
(205,240,cs),
(205,280,ls),
(205,364,o),
(249,420,o),
(327,420,cs),
(407,420,o),
(450,364,o),
(450,260,cs),
(450,156,o),
(407,100,o),
(327,100,cs)
);
}
);
width = 618;
},
{
layerId = "0F4B55C1-D1AF-4339-8523-EC07133CB1AA";
shapes = (
{
closed = 1;
nodes = (
(474,-10,o),
(553,88,o),
(553,260,cs),
(553,432,o),
(474,530,o),
(335,530,cs),
(256,530,o),
(195,499,o),
(157,441,c),
(155,441,l),
(155,730,l),
(76,730,l),
(76,0,l),
(152,0,l),
(152,79,l),
(154,79,l),
(195,21,o),
(256,-10,o),
(335,-10,cs)
);
},
{
closed = 1;
nodes = (
(217,57,o),
(155,131,o),
(155,239,cs),
(155,281,ls),
(155,389,o),
(217,463,o),
(317,463,cs),
(416,463,o),
(474,389,o),
(474,260,cs),
(474,131,o),
(416,57,o),
(317,57,cs)
);
}
);
width = 591;
},
{
layerId = "AEE2284A-A56F-4448-96E7-8687C65E5DBB";
partSelection = {
Wt = 2;
};
associatedMasterId = "2AC8629E-CA28-4614-8069-B83962E1F0CC";
shapes = (
{
closed = 1;
nodes = (
(458,-10,o),
(536,88,o),
(536,260,cs),
(536,432,o),
(458,530,o),
(320,530,cs),
(237,530,o),
(168,494,o),
(132,430,c),
(130,430,l),
(130,730,l),
(81,730,l),
(81,0,l),
(128,0,l),
(128,90,l),
(130,90,l),
(168,26,o),
(236,-10,o),
(320,-10,cs)
);
},
{
closed = 1;
nodes = (
(200,33,o),
(130,115,o),
(130,237,cs),
(130,283,ls),
(130,405,o),
(200,487,o),
(311,487,cs),
(422,487,o),
(487,404,o),
(487,260,cs),
(487,116,o),
(422,33,o),
(311,33,cs)
);
}
);
width = 577;
},
{
layerId = "2AC8629E-CA28-4614-8069-B83962E1F0CC";
shapes = (
{
closed = 1;
nodes = (
(440,-10,o),
(519,91,o),
(519,260,cs),
(519,429,o),
(440,530,o),
(305,530,cs),
(212,530,o),
(141,481,o),
(107,400,c),
(105,400,l),
(105,730,l),
(85,730,l),
(85,0,l),
(105,0,l),
(105,120,l),
(107,120,l),
(141,39,o),
(212,-10,o),
(305,-10,cs)
);
},
{
closed = 1;
nodes = (
(183,10,o),
(105,100,o),
(105,235,cs),
(105,285,ls),
(105,420,o),
(183,510,o),
(305,510,cs),
(428,510,o),
(499,419,o),
(499,260,cs),
(499,101,o),
(428,10,o),
(305,10,cs)
);
}
);
width = 561;
}
);
partsSettings = (
{
bottomValue = 0;
name = Wt;
topValue = 1000;
}
);
leftKerningGroup = b;
rightKerningGroup = o;
unicode = 98;
}
{
color = 11;
glyphname = c;
leftMetricsKey = o;
rightMetricsKey = h;
layers = (
{
anchors = (
{
name = bottom;
position = "{279, 0}";
},
{
name = bottom_cd;
position = "{289, 0}";
},
{
name = top;
position = "{279, 520}";
}
);
layerId = "2C65B105-00E6-4D30-980D-9F5D6A5D1D7E";
name = "Medium.Dec 5 20, 13:20";
shapes = (
{
closed = 1;
nodes = (
(371,-10,o),
(418,2,o),
(466,27,c),
(446,117,l),
(400,91,o),
(362,80,o),
(318,80,cs),
(210,80,o),
(146,147,o),
(146,260,cs),
(146,373,o),
(210,440,o),
(318,440,cs),
(362,440,o),
(400,429,o),
(446,403,c),
(466,493,l),
(418,518,o),
(371,530,o),
(311,530,cs),
(138,530,o),
(36,430,o),
(36,260,cs),
(36,90,o),
(138,-10,o),
(311,-10,cs)
);
}
);
width = 524;
},
{
anchors = (
{
name = bottom;
position = "{294, 0}";
},
{
name = bottom_cd;
position = "{309, 0}";
},
{
name = top;
position = "{294, 520}";
}
);
layerId = "799228CC-3784-4D47-A8F2-AB0D0A059C85";
associatedMasterId = "F2505AC5-901F-4BF6-BFE9-C6AF332FBC83";
name = "Dec 5 20, 13:18";
shapes = (
{
closed = 1;
nodes = (
(397,-10,o),
(450,2,o),
(504,30,c),
(474,170,l),
(429,144,o),
(386,130,o),
(344,130,cs),
(269,130,o),
(229,175,o),
(229,260,cs),
(229,345,o),
(269,390,o),
(344,390,cs),
(386,390,o),
(429,376,o),
(474,350,c),
(504,490,l),
(450,518,o),
(397,530,o),
(329,530,cs),
(137,530,o),
(29,433,o),
(29,260,cs),
(29,87,o),
(137,-10,o),
(329,-10,cs)
);
}
);
width = 551;
},
{
anchors = (
{
name = bottom;
position = "{299, 0}";
},
{
name = bottom_cd;
position = "{314, 0}";
},
{
name = top;
position = "{299, 520}";
}
);
layerId = "F2505AC5-901F-4BF6-BFE9-C6AF332FBC83";
shapes = (
{
closed = 1;
nodes = (
(400,-10,o),
(458,3,o),
(514,30,c),
(484,170,l),
(436,144,o),
(387,130,o),
(344,130,cs),
(268,130,o),
(229,174,o),
(229,260,cs),
(229,346,o),
(268,390,o),
(344,390,cs),
(387,390,o),
(436,376,o),
(484,350,c),
(514,490,l),
(458,517,o),
(400,530,o),
(329,530,cs),
(135,530,o),
(29,434,o),
(29,260,cs),
(29,86,o),
(135,-10,o),
(329,-10,cs)
);
}
);
width = 560;
},
{
anchors = (
{
name = bottom;
position = "{290, 0}";
},
{
name = bottom_cd;
position = "{302, 0}";
},
{
name = top;
position = "{290, 520}";
}
);
layerId = "A825F678-EB93-40C4-A48C-B705E79FBCA5";
shapes = (
{
closed = 1;
nodes = (
(385,-10,o),
(439,2,o),
(492,28,c),
(470,134,l),
(422,109,o),
(376,97,o),
(330,97,cs),
(230,97,o),
(173,156,o),
(173,260,cs),
(173,365,o),
(230,423,o),
(330,423,cs),
(376,423,o),
(422,411,o),
(470,386,c),
(492,492,l),
(439,518,o),
(385,530,o),
(320,530,cs),
(137,530,o),
(33,431,o),
(33,260,cs),
(33,89,o),
(137,-10,o),
(320,-10,cs)
);
}
);
width = 546;
},
{
anchors = (
{
name = bottom;
position = "{283, 0}";
},
{
name = bottom_cd;
position = "{291, 0}";
},
{
name = top;
position = "{283, 520}";
}
);
layerId = "0F4B55C1-D1AF-4339-8523-EC07133CB1AA";
shapes = (
{
closed = 1;
nodes = (
(372,-10,o),
(422,2,o),
(473,26,c),
(457,92,l),
(410,67,o),
(367,57,o),
(319,57,cs),
(193,57,o),
(118,133,o),
(118,260,cs),
(118,388,o),
(193,463,o),
(319,463,cs),
(367,463,o),
(410,453,o),
(457,428,c),
(473,494,l),
(422,518,o),
(372,530,o),
(313,530,cs),
(141,530,o),
(38,429,o),
(38,260,cs),
(38,91,o),
(141,-10,o),
(313,-10,cs)
);
}
);
width = 534;
},
{
anchors = (
{
name = bottom;
position = "{274, 0}";
},
{
name = bottom_cd;
position = "{279, 0}";
},
{
name = top;
position = "{274, 520}";
}
);
layerId = "C86DD6B4-7065-4266-813B-07046C5AA675";
associatedMasterId = "2AC8629E-CA28-4614-8069-B83962E1F0CC";
name = "Dec 5 20, 13:17";
shapes = (
{
closed = 1;
nodes = (
(357,-10,o),
(413,0,o),
(447,15,c),
(439,33,l),
(407,19,o),
(354,10,o),
(304,10,cs),
(151,10,o),
(67,97,o),
(67,260,cs),
(67,423,o),
(151,510,o),
(304,510,cs),
(354,510,o),
(407,501,o),
(439,487,c),
(447,505,l),
(413,520,o),
(357,530,o),
(304,530,cs),
(139,530,o),
(47,433,o),
(47,260,cs),
(47,87,o),
(139,-10,o),
(304,-10,cs)
);
}
);
width = 520;
},
{
anchors = (
{
name = bottom;
position = "{264, 0}";
},
{
name = bottom_cd;
position = "{269, 0}";
},
{
name = top;
position = "{264, 520}";
}
);
layerId = "CC44F795-920E-4E20-806D-D4C2AC59E5C8";
associatedMasterId = "2AC8629E-CA28-4614-8069-B83962E1F0CC";
name = "Dec 5 20, 13:08";
shapes = (
{
closed = 1;
nodes = (
(342,-10,o),
(386,1,o),
(432,25,c),
(423,43,l),
(379,20,o),
(339,10,o),
(292,10,cs),
(149,10,o),
(62,105,o),
(62,260,cs),
(62,415,o),
(149,510,o),
(292,510,cs),
(339,510,o),
(379,500,o),
(423,477,c),
(432,495,l),
(386,519,o),
(342,530,o),
(292,530,cs),
(138,530,o),
(42,426,o),
(42,260,cs),
(42,94,o),
(138,-10,o),
(292,-10,cs)
);
}
);
width = 500;
},
{
anchors = (
{
name = bottom;
position = "{274, 0}";
},
{
name = bottom_cd;
position = "{279, 0}";
},
{
name = top;
position = "{274, 520}";
}
);
layerId = "2AC8629E-CA28-4614-8069-B83962E1F0CC";
shapes = (
{
closed = 1;
nodes = (
(358,-10,o),
(404,1,o),
(452,25,c),
(443,43,l),
(398,20,o),
(355,10,o),
(305,10,cs),
(154,10,o),
(62,105,o),
(62,260,cs),
(62,415,o),
(154,510,o),
(305,510,cs),
(355,510,o),
(398,500,o),
(443,477,c),
(452,495,l),
(404,519,o),
(358,530,o),
(305,530,cs),
(143,530,o),
(42,426,o),
(42,260,cs),
(42,94,o),
(143,-10,o),
(305,-10,cs)
);
}
);
width = 520;
}
);
leftKerningGroup = o;
rightKerningGroup = c;
unicode = 99;
}
{
color = 11;
glyphname = d;
layers = (
{
layerId = "F2505AC5-901F-4BF6-BFE9-C6AF332FBC83";
shapes = (
{
closed = 1;
nodes = (
(302,-10,o),
(350,12,o),
(399,60,c),
(401,60,l),
(403,0,l),
(589,0,l),
(589,730,l),
(393,730,l),
(393,460,l),
(391,460,l),
(347,508,o),
(302,530,o),
(238,530,cs),
(104,530,o),
(29,433,o),
(29,260,cs),
(29,87,o),
(104,-10,o),
(238,-10,cs)
);
},
{
closed = 1;
nodes = (
(249,140,o),
(221,179,o),
(221,260,cs),
(221,341,o),
(249,380,o),
(309,380,cs),
(367,380,o),
(393,343,o),
(393,280,cs),
(393,240,ls),
(393,177,o),
(367,140,o),
(309,140,cs)
);
}
);
width = 647;
},
{
layerId = "A825F678-EB93-40C4-A48C-B705E79FBCA5";
shapes = (
{
closed = 1;
nodes = (
(320,-10,o),
(372,15,o),
(418,65,c),
(420,65,l),
(421,0,l),
(552,0,l),
(552,730,l),
(414,730,l),
(414,455,l),
(412,455,l),
(371,505,o),
(321,530,o),
(250,530,cs),
(112,530,o),
(34,432,o),
(34,260,cs),
(34,88,o),
(112,-10,o),
(250,-10,cs)
);
},
{
closed = 1;
nodes = (
(212,100,o),
(169,156,o),
(169,260,cs),
(169,364,o),
(212,420,o),
(292,420,cs),
(370,420,o),
(414,364,o),
(414,280,cs),
(414,240,ls),
(414,156,o),
(370,100,o),
(292,100,cs)
);
}
);
width = 619;
},
{
layerId = "0F4B55C1-D1AF-4339-8523-EC07133CB1AA";
shapes = (
{
closed = 1;
nodes = (
(335,-10,o),
(396,21,o),
(437,79,c),
(439,79,l),
(439,0,l),
(515,0,l),
(515,730,l),
(436,730,l),
(436,441,l),
(434,441,l),
(396,499,o),
(335,530,o),
(256,530,cs),
(117,530,o),
(38,432,o),
(38,260,cs),
(38,88,o),
(117,-10,o),
(256,-10,cs)
);
},
{
closed = 1;
nodes = (
(175,57,o),
(117,131,o),
(117,260,cs),
(117,389,o),
(175,463,o),
(274,463,cs),
(374,463,o),
(436,389,o),
(436,281,cs),
(436,239,ls),
(436,131,o),
(374,57,o),
(274,57,cs)
);
}
);
width = 591;
},
{
layerId = "AEE2284A-A56F-4448-96E7-8687C65E5DBB";
partSelection = {
Wt = 2;
};
associatedMasterId = "2AC8629E-CA28-4614-8069-B83962E1F0CC";
shapes = (
{
alignment = -1;
pos = (577,0);
ref = b;
scale = (-1,1);
}
);
width = 577;
},
{
layerId = "2AC8629E-CA28-4614-8069-B83962E1F0CC";
shapes = (
{
closed = 1;
nodes = (
(351,-10,o),
(422,39,o),
(456,120,c),
(458,120,l),
(458,0,l),
(478,0,l),
(478,730,l),
(458,730,l),
(458,400,l),
(456,400,l),
(422,481,o),
(351,530,o),
(258,530,cs),
(123,530,o),
(44,429,o),
(44,260,cs),
(44,91,o),
(123,-10,o),
(258,-10,cs)
);
},
{
closed = 1;
nodes = (
(135,10,o),
(64,101,o),
(64,260,cs),
(64,419,o),
(135,510,o),
(258,510,cs),
(380,510,o),
(458,420,o),
(458,285,cs),
(458,235,ls),
(458,100,o),
(380,10,o),
(258,10,cs)
);
}
);
width = 563;
}
);
partsSettings = (
{
bottomValue = 0;
name = Wt;
topValue = 1000;
}
);
leftKerningGroup = o;
rightKerningGroup = d;
unicode = 100;
}
{
color = 11;
glyphname = e;
leftMetricsKey = o;
rightMetricsKey = "=o*.95";
layers = (
{
anchors = (
{
name = bottom;
position = "{299, 0}";
},
{
name = ogonek;
position = "{529, 18}";
},
{
name = top;
position = "{299, 520}";
}
);
layerId = "F2505AC5-901F-4BF6-BFE9-C6AF332FBC83";
shapes = (
{
closed = 1;
nodes = (
(408,-10,o),
(482,1,o),
(529,18,c),
(509,158,l),
(462,142,o),
(388,130,o),
(331,130,cs),
(253,130,o),
(221,156,o),
(221,220,cs),
(221,280,ls),
(221,367,o),
(245,405,o),
(299,405,cs),
(353,405,o),
(377,367,o),
(377,280,c),
(400,315,l),
(139,315,l),
(139,200,l),
(555,200,l),
(557,211,o),
(559,246,o),
(559,270,cs),
(559,434,o),
(463,530,o),
(299,530,cs),
(131,530,o),
(29,428,o),
(29,260,cs),
(29,86,o),
(139,-10,o),
(339,-10,cs)
);
}
);
width = 586;
},
{
anchors = (
{
name = bottom;
position = "{286, 0}";
},
{
name = ogonek;
position = "{506, 22}";
},
{
name = top;
position = "{286, 520}";
}
);
layerId = "A825F678-EB93-40C4-A48C-B705E79FBCA5";
shapes = (
{
closed = 1;
nodes = (
(387,-10,o),
(458,2,o),
(506,22,c),
(489,128,l),
(442,109,o),
(373,97,o),
(316,97,cs),
(215,97,o),
(167,141,o),
(167,233,cs),
(167,273,ls),
(167,378,o),
(208,430,o),
(287,430,cs),
(366,430,o),
(405,379,o),
(405,273,c),
(423,305,l),
(109,305,l),
(109,210,l),
(530,210,l),
(531,219,o),
(533,247,o),
(533,267,cs),
(533,434,o),
(443,530,o),
(287,530,cs),
(129,530,o),
(33,429,o),
(33,260,cs),
(33,87,o),
(135,-10,o),
(321,-10,cs)
);
}
);
width = 565;
},
{
anchors = (
{
name = bottom;
position = "{275, 0}";
},
{
name = ogonek;
position = "{485, 26}";
},
{
name = top;
position = "{275, 520}";
}
);
layerId = "0F4B55C1-D1AF-4339-8523-EC07133CB1AA";
shapes = (
{
closed = 1;
nodes = (
(368,-10,o),
(435,3,o),
(485,26,c),
(472,91,l),
(425,70,o),
(360,57,o),
(303,57,cs),
(180,57,o),
(116,122,o),
(116,247,cs),
(116,267,ls),
(116,395,o),
(174,465,o),
(280,465,cs),
(382,465,o),
(434,399,o),
(434,269,c),
(448,293,l),
(82,293,l),
(82,229,l),
(507,229,l),
(508,236,o),
(508,253,o),
(508,266,cs),
(508,435,o),
(426,530,o),
(280,530,cs),
(129,530,o),
(38,429,o),
(38,260,cs),
(38,87,o),
(134,-10,o),
(306,-10,cs)
);
}
);
width = 544;
},
{
anchors = (
{
name = bottom;
position = "{263, 0}";
},
{
name = ogonek;
position = "{462, 30}";
},
{
name = top;
position = "{263, 520}";
}
);
layerId = "2AC8629E-CA28-4614-8069-B83962E1F0CC";
shapes = (
{
closed = 1;
nodes = (
(348,-10,o),
(411,4,o),
(462,30,c),
(453,48,l),
(406,24,o),
(346,10,o),
(288,10,cs),
(142,10,o),
(62,97,o),
(62,260,c),
(62,260,l),
(62,419,o),
(139,510,o),
(272,510,cs),
(396,510,o),
(462,427,o),
(462,268,c),
(472,278,l),
(52,278,l),
(52,258,l),
(482,258,l),
(482,263,o),
(482,263,o),
(482,268,cs),
(482,437,o),
(408,530,o),
(272,530,cs),
(127,530,o),
(42,429,o),
(42,260,cs),
(42,87,o),
(130,-10,o),
(288,-10,cs)
);
}
);
width = 522;
}
);
leftKerningGroup = o;
rightKerningGroup = o;
unicode = 101;
}
{
color = 11;
glyphname = f;
leftMetricsKey = "=h*.3";
rightMetricsKey = "=d*.3";
layers = (
{
layerId = "F2505AC5-901F-4BF6-BFE9-C6AF332FBC83";
shapes = (
{
closed = 1;
nodes = (
(335,0,l),
(335,380,l),
(480,380,l),
(480,520,l),
(335,520,l),
(335,550,l),
(335,605,o),
(347,620,o),
(390,620,c),
(412,620,o),
(438,616,o),
(465,610,c),
(485,755,l),
(439,765,o),
(391,770,o),
(355,770,c),
(213,770,o),
(137,693,o),
(137,550,c),
(137,520,l),
(17,520,l),
(17,380,l),
(137,380,l),
(137,0,l)
);
}
);
width = 502;
},
{
layerId = "A825F678-EB93-40C4-A48C-B705E79FBCA5";
shapes = (
{
closed = 1;
nodes = (
(297,0,l),
(297,413,l),
(461,413,l),
(461,520,l),
(297,520,l),
(297,573,ls),
(297,636,o),
(317,658,o),
(375,658,cs),
(399,658,o),
(423,654,o),
(450,647,c),
(466,755,l),
(425,766,o),
(385,770,o),
(352,770,cs),
(224,770,o),
(158,703,o),
(158,573,cs),
(158,520,l),
(20,520,l),
(20,413,l),
(158,413,l),
(158,0,l)
);
}
);
width = 486;
},
{
layerId = "0F4B55C1-D1AF-4339-8523-EC07133CB1AA";
shapes = (
{
closed = 1;
nodes = (
(258,0,l),
(258,453,l),
(442,453,l),
(442,520,l),
(258,520,l),
(258,597,ls),
(258,672,o),
(286,701,o),
(358,701,cs),
(385,701,o),
(406,697,o),
(433,689,c),
(445,755,l),
(410,766,o),
(378,770,o),
(347,770,cs),
(234,770,o),
(178,713,o),
(178,597,cs),
(178,520,l),
(22,520,l),
(22,453,l),
(178,453,l),
(178,0,l)
);
}
);
width = 467;
},
{
layerId = "2AC8629E-CA28-4614-8069-B83962E1F0CC";
shapes = (
{
closed = 1;
nodes = (
(219,0,l),
(219,500,l),
(423,500,l),
(423,520,l),
(219,520,l),
(219,620,ls),
(219,711,o),
(256,750,o),
(343,750,cs),
(370,750,o),
(391,746,o),
(418,736,c),
(425,755,l),
(395,766,o),
(371,770,o),
(343,770,cs),
(245,770,o),
(199,722,o),
(199,620,cs),
(199,520,l),
(25,520,l),
(25,500,l),
(199,500,l),
(199,0,l)
);
}
);
width = 450;
}
);
leftKerningGroup = f;
rightKerningGroup = f;
unicode = 102;
}
{
glyphname = g;
layers = (
{
layerId = "F2505AC5-901F-4BF6-BFE9-C6AF332FBC83";
shapes = (
{
closed = 1;
nodes = (
(224,-29,o),
(213,-51,o),
(213,-75,cs),
(213,-108,o),
(238,-125,o),
(288,-125,cs),
(365,-125,o),
(403,-102,o),
(403,-55,cs),
(403,-25,o),
(363,-10,o),
(283,-10,cs),
(266,-10,o),
(254,-10,o),
(246,-9,c)
);
},
{
closed = 1;
nodes = (
(86,51,o),
(73,73,o),
(73,100,cs),
(73,127,o),
(87,159,o),
(115,196,c),
(74,229,o),
(53,276,o),
(53,335,cs),
(53,452,o),
(130,530,o),
(247,530,cs),
(308,530,o),
(366,503,o),
(399,460,c),
(401,460,l),
(403,520,l),
(573,520,l),
(573,330,ls),
(573,199,o),
(494,140,o),
(313,140,cs),
(290,140,o),
(267,142,o),
(242,145,c),
(236,137,o),
(233,130,o),
(233,125,cs),
(233,105,o),
(260,95,o),
(313,95,cs),
(513,95,o),
(593,50,o),
(593,-35,cs),
(593,-158,o),
(485,-230,o),
(278,-230,cs),
(118,-230,o),
(33,-174,o),
(33,-90,cs),
(33,-46,o),
(62,0,o),
(113,32,c)
);
},
{
closed = 1;
nodes = (
(238,262,o),
(261,230,o),
(307,230,cs),
(346,230,o),
(373,264,o),
(373,325,cs),
(373,385,o),
(345,420,o),
(308,420,cs),
(265,420,o),
(238,388,o),
(238,325,cs)
);
}
);
width = 631;
},
{
layerId = "A825F678-EB93-40C4-A48C-B705E79FBCA5";
shapes = (
{
closed = 1;
nodes = (
(197,-10,o),
(175,-44,o),
(175,-76,cs),
(175,-118,o),
(215,-144,o),
(285,-144,cs),
(379,-144,o),
(429,-114,o),
(429,-57,cs),
(429,-15,o),
(387,9,o),
(288,9,cs),
(264,9,o),
(245,10,o),
(230,12,c)
);
},
{
closed = 1;
nodes = (
(95,63,o),
(80,87,o),
(80,115,cs),
(80,141,o),
(94,171,o),
(121,204,c),
(80,236,o),
(60,282,o),
(60,339,c),
(61,454,o),
(140,530,o),
(254,530,cs),
(321,530,o),
(379,505,o),
(415,461,c),
(417,461,l),
(418,520,l),
(548,520,l),
(548,336,ls),
(548,212,o),
(470,151,o),
(304,151,cs),
(272,151,o),
(244,155,o),
(217,162,c),
(208,151,o),
(203,141,o),
(203,133,cs),
(203,99,o),
(265,94,o),
(310,94,cs),
(497,94,o),
(574,48,o),
(574,-42,cs),
(574,-160,o),
(471,-230,o),
(277,-230,cs),
(124,-230,o),
(38,-173,o),
(38,-88,cs),
(38,-39,o),
(71,13,o),
(124,45,c)
);
},
{
closed = 1;
nodes = (
(201,263,o),
(237,225,o),
(300,225,cs),
(358,225,o),
(396,265,o),
(396,332,cs),
(396,401,o),
(356,442,o),
(298,442,cs),
(240,442,o),
(201,401,o),
(201,332,cs)
);
}
);
width = 617;
},
{
layerId = "0F4B55C1-D1AF-4339-8523-EC07133CB1AA";
shapes = (
{
closed = 1;
nodes = (
(159,16,o),
(124,-33,o),
(124,-77,cs),
(124,-132,o),
(183,-170,o),
(280,-170,cs),
(398,-170,o),
(464,-129,o),
(464,-60,cs),
(464,-1,o),
(419,34,o),
(294,34,cs),
(261,34,o),
(232,36,o),
(208,40,c)
);
},
{
closed = 1;
nodes = (
(107,79,o),
(90,104,o),
(90,135,cs),
(90,160,o),
(103,187,o),
(128,215,c),
(89,246,o),
(70,289,o),
(70,344,c),
(72,457,o),
(153,530,o),
(263,530,cs),
(337,530,o),
(396,507,o),
(437,461,c),
(439,461,l),
(439,520,l),
(515,520,l),
(515,342,ls),
(515,229,o),
(438,165,o),
(292,165,cs),
(249,165,o),
(212,171,o),
(183,184,c),
(169,169,o),
(163,156,o),
(163,144,cs),
(163,90,o),
(270,92,o),
(305,92,cs),
(475,92,o),
(548,44,o),
(548,-51,cs),
(548,-164,o),
(453,-230,o),
(276,-230,cs),
(131,-230,o),
(44,-171,o),
(44,-83,cs),
(44,-28,o),
(83,30,o),
(139,62,c)
);
},
{
closed = 1;
nodes = (
(152,264,o),
(204,218,o),
(290,218,cs),
(374,218,o),
(428,266,o),
(428,342,cs),
(428,422,o),
(370,471,o),
(285,471,cs),
(206,471,o),
(152,418,o),
(152,342,cs)
);
}
);
width = 597;
},
{
layerId = "2AC8629E-CA28-4614-8069-B83962E1F0CC";
shapes = (
{
closed = 1;
nodes = (
(126,51,o),
(71,-14,o),
(71,-80,cs),
(71,-159,o),
(151,-210,o),
(276,-210,cs),
(415,-210,o),
(501,-154,o),
(501,-65,cs),
(501,47,o),
(397,60,o),
(306,60,cs),
(257,60,o),
(217,63,o),
(188,70,c)
);
},
{
closed = 1;
nodes = (
(120,94,o),
(101,119,o),
(101,155,cs),
(101,180,o),
(112,204,o),
(135,225,c),
(99,255,o),
(81,297,o),
(81,350,cs),
(81,461,o),
(163,530,o),
(271,530,cs),
(362,530,o),
(425,498,o),
(459,434,c),
(461,434,l),
(461,520,l),
(481,520,l),
(481,350,ls),
(481,245,o),
(404,180,o),
(281,180,cs),
(230,180,o),
(187,191,o),
(152,213,c),
(131,196,o),
(121,176,o),
(121,155,cs),
(121,77,o),
(256,80,o),
(306,80,cs),
(453,80,o),
(521,34,o),
(521,-65,cs),
(521,-195,o),
(381,-230,o),
(276,-230,cs),
(182,-230,o),
(51,-197,o),
(51,-80,c),
(53,-13,o),
(100,49,o),
(158,79,c)
);
},
{
closed = 1;
nodes = (
(101,255,o),
(168,200,o),
(281,200,cs),
(392,200,o),
(461,257,o),
(461,350,cs),
(461,461,o),
(371,510,o),
(271,510,c),
(175,512,o),
(101,448,o),
(101,350,c)
);
}
);
width = 577;
}
);
leftKerningGroup = o;
rightKerningGroup = g;
unicode = 103;
}
{
color = 11;
glyphname = h;
leftMetricsKey = "=H*.9";
rightMetricsKey = "=|*.8";
layers = (
{
anchors = (
{
name = bottom;
position = "{309, 0}";
},
{
name = center;
position = "{309, 430}";
},
{
name = top;
position = "{309, 730}";
}
);
layerId = "F2505AC5-901F-4BF6-BFE9-C6AF332FBC83";
shapes = (
{
closed = 1;
nodes = (
(254,0,l),
(254,300,ls),
(254,341,o),
(286,370,o),
(328,370,cs),
(367,370,o),
(382,345,o),
(382,280,cs),
(382,0,l),
(578,0,l),
(578,320,ls),
(578,467,o),
(527,530,o),
(408,530,cs),
(344,530,o),
(301,510,o),
(256,460,c),
(254,460,l),
(254,730,l),
(58,730,l),
(58,0,l)
);
}
);
width = 624;
},
{
anchors = (
{
name = bottom;
position = "{296, 0}";
},
{
name = center;
position = "{296, 430}";
},
{
name = top;
position = "{296, 730}";
}
);
layerId = "A825F678-EB93-40C4-A48C-B705E79FBCA5";
shapes = (
{
closed = 1;
nodes = (
(205,0,l),
(205,277,ls),
(205,350,o),
(266,417,o),
(334,417,cs),
(386,417,o),
(410,378,o),
(410,293,cs),
(410,0,l),
(547,0,l),
(547,320,ls),
(547,465,o),
(496,530,o),
(381,530,cs),
(308,530,o),
(249,503,o),
(207,449,c),
(205,449,l),
(205,730,l),
(67,730,l),
(67,0,l)
);
}
);
width = 601;
},
{
anchors = (
{
name = bottom;
position = "{284, 0}";
},
{
name = center;
position = "{284, 430}";
},
{
name = top;
position = "{284, 730}";
}
);
layerId = "0F4B55C1-D1AF-4339-8523-EC07133CB1AA";
shapes = (
{
closed = 1;
nodes = (
(155,0,l),
(155,273,ls),
(155,374,o),
(238,463,o),
(331,463,cs),
(402,463,o),
(437,412,o),
(437,306,cs),
(437,0,l),
(517,0,l),
(517,320,ls),
(517,461,o),
(462,530,o),
(351,530,cs),
(271,530,o),
(197,493,o),
(157,433,c),
(156,433,l),
(155,730,l),
(76,730,l),
(76,0,l)
);
}
);
width = 578;
},
{
anchors = (
{
name = bottom;
position = "{277, 0}";
},
{
name = center;
position = "{277, 430}";
},
{
name = top;
position = "{277, 730}";
}
);
layerId = "AEE2284A-A56F-4448-96E7-8687C65E5DBB";
partSelection = {
Wt = 2;
};
associatedMasterId = "2AC8629E-CA28-4614-8069-B83962E1F0CC";
shapes = (
{
closed = 1;
nodes = (
(130,0,l),
(130,282,ls),
(130,393,o),
(219,487,o),
(325,487,cs),
(409,487,o),
(451,429,o),
(451,313,cs),
(451,0,l),
(501,0,l),
(501,320,ls),
(501,458,o),
(444,530,o),
(335,530,cs),
(251,530,o),
(170,487,o),
(132,421,c),
(131,421,l),
(130,730,l),
(81,730,l),
(81,0,l)
);
}
);
width = 566;
},
{
anchors = (
{
name = bottom;
position = "{270, 0}";
},
{
name = center;
position = "{270, 430}";
},
{
name = top;
position = "{270, 730}";
}
);
layerId = "2AC8629E-CA28-4614-8069-B83962E1F0CC";
shapes = (
{
closed = 1;
nodes = (
(105,0,l),
(105,290,ls),
(105,412,o),
(201,510,o),
(319,510,cs),
(415,510,o),
(465,445,o),
(465,320,cs),
(465,0,l),
(485,0,l),
(485,320,ls),
(485,455,o),
(427,530,o),
(319,530,cs),
(225,530,o),
(144,472,o),
(107,388,c),
(105,388,l),
(105,730,l),
(85,730,l),
(85,0,l)
);
}
);
width = 553;
}
);
partsSettings = (
{
bottomValue = 0;
name = Wt;
topValue = 1000;
}
);
leftKerningGroup = b;
rightKerningGroup = h;
unicode = 104;
}
{
color = 11;
glyphname = i;
leftMetricsKey = l;
rightMetricsKey = "=|";
layers = (
{
layerId = "F2505AC5-901F-4BF6-BFE9-C6AF332FBC83";
shapes = (
{
closed = 1;
nodes = (
(258,570,l),
(258,730,l),
(58,730,l),
(58,570,l)
);
},
{
closed = 1;
nodes = (
(258,0,l),
(258,500,l),
(58,500,l),
(58,0,l)
);
}
);
width = 316;
},
{
layerId = "A825F678-EB93-40C4-A48C-B705E79FBCA5";
shapes = (
{
closed = 1;
nodes = (
(207,603,l),
(207,730,l),
(67,730,l),
(67,603,l)
);
},
{
closed = 1;
nodes = (
(207,0,l),
(207,513,l),
(67,513,l),
(67,0,l)
);
}
);
width = 274;
},
{
layerId = "0F4B55C1-D1AF-4339-8523-EC07133CB1AA";
shapes = (
{
closed = 1;
nodes = (
(170,637,l),
(170,730,l),
(76,730,l),
(76,637,l)
);
},
{
closed = 1;
nodes = (
(163,0,l),
(163,520,l),
(83,520,l),
(83,0,l)
);
}
);
width = 246;
},
{
layerId = "2AC8629E-CA28-4614-8069-B83962E1F0CC";
shapes = (
{
closed = 1;
nodes = (
(145,670,l),
(145,730,l),
(85,730,l),
(85,670,l)
);
},
{
closed = 1;
nodes = (
(125,0,l),
(125,520,l),
(105,520,l),
(105,0,l)
);
}
);
width = 230;
}
);
leftKerningGroup = l;
rightKerningGroup = l;
unicode = 105;
}
{
color = 11;
glyphname = j;
leftMetricsKey = "=l-200";
rightMetricsKey = l;
layers = (
{
layerId = "F2505AC5-901F-4BF6-BFE9-C6AF332FBC83";
leftMetricsKey = "=l-140";
shapes = (
{
closed = 1;
nodes = (
(288,570,l),
(288,730,l),
(88,730,l),
(88,570,l)
);
},
{
closed = 1;
nodes = (
(-72,-220,l),
(205,-220,o),
(288,-158,o),
(288,50,cs),
(288,500,l),
(88,500,l),
(88,50,ls),
(88,-63,o),
(71,-75,o),
(-82,-75,c)
);
}
);
width = 305;
},
{
layerId = "A825F678-EB93-40C4-A48C-B705E79FBCA5";
shapes = (
{
closed = 1;
nodes = (
(199,603,l),
(199,730,l),
(59,730,l),
(59,603,l)
);
},
{
closed = 1;
nodes = (
(-126,-220,l),
(126,-220,o),
(199,-163,o),
(199,37,cs),
(199,513,l),
(59,513,l),
(59,37,ls),
(59,-92,o),
(33,-112,o),
(-133,-112,c)
);
}
);
width = 219;
},
{
layerId = "0F4B55C1-D1AF-4339-8523-EC07133CB1AA";
shapes = (
{
closed = 1;
nodes = (
(177,637,l),
(177,730,l),
(83,730,l),
(83,637,l)
);
},
{
closed = 1;
nodes = (
(-120,-220,l),
(107,-220,o),
(170,-167,o),
(170,23,cs),
(170,520,l),
(90,520,l),
(90,23,ls),
(90,-124,o),
(55,-153,o),
(-124,-153,c)
);
}
);
width = 199;
},
{
layerId = "2AC8629E-CA28-4614-8069-B83962E1F0CC";
shapes = (
{
closed = 1;
nodes = (
(160,670,l),
(160,730,l),
(100,730,l),
(100,670,l)
);
},
{
closed = 1;
nodes = (
(-115,-220,l),
(86,-220,o),
(140,-172,o),
(140,10,cs),
(140,520,l),
(120,520,l),
(120,10,ls),
(120,-160,o),
(76,-200,o),
(-115,-200,c)
);
}
);
width = 185;
}
);
leftKerningGroup = l;
rightKerningGroup = g;
unicode = 106;
}
{
color = 11;
glyphname = k;
leftMetricsKey = h;
rightMetricsKey = "=d*.4";
layers = (
{
anchors = (
{
name = bottom;
position = "{299, 0}";
},
{
name = top;
position = "{299, 730}";
}
);
layerId = "F2505AC5-901F-4BF6-BFE9-C6AF332FBC83";
rightMetricsKey = "=d*.2";
shapes = (
{
closed = 1;
nodes = (
(254,0,l),
(254,215,l),
(256,215,l),
(393,0,l),
(618,0,l),
(418,270,l),
(613,520,l),
(388,520,l),
(256,325,l),
(254,325,l),
(254,730,l),
(58,730,l),
(58,0,l)
);
}
);
width = 629;
},
{
anchors = (
{
name = bottom;
position = "{278, 0}";
},
{
name = top;
position = "{278, 730}";
}
);
layerId = "A825F678-EB93-40C4-A48C-B705E79FBCA5";
shapes = (
{
closed = 1;
nodes = (
(205,0,l),
(205,228,l),
(207,228,l),
(413,0,l),
(581,0,l),
(323,270,l),
(572,520,l),
(404,520,l),
(207,312,l),
(205,312,l),
(205,730,l),
(67,730,l),
(67,0,l)
);
}
);
width = 607;
},
{
anchors = (
{
name = bottom;
position = "{256, 0}";
},
{
name = top;
position = "{256, 730}";
}
);
layerId = "0F4B55C1-D1AF-4339-8523-EC07133CB1AA";
shapes = (
{
closed = 1;
nodes = (
(156,0,l),
(156,244,l),
(158,244,l),
(438,0,l),
(542,0,l),
(227,270,l),
(529,520,l),
(425,520,l),
(158,297,l),
(156,297,l),
(156,730,l),
(76,730,l),
(76,0,l)
);
}
);
width = 572;
},
{
anchors = (
{
name = bottom;
position = "{235, 0}";
},
{
name = top;
position = "{235, 730}";
}
);
layerId = "2AC8629E-CA28-4614-8069-B83962E1F0CC";
shapes = (
{
closed = 1;
nodes = (
(107,0,l),
(107,262,l),
(109,262,l),
(471,0,l),
(505,0,l),
(132,270,l),
(488,520,l),
(454,520,l),
(109,278,l),
(107,278,l),
(107,730,l),
(85,730,l),
(85,0,l)
);
}
);
width = 539;
}
);
leftKerningGroup = b;
rightKerningGroup = x;
unicode = 107;
}
{
color = 11;
glyphname = l;
leftMetricsKey = b;
rightMetricsKey = "=d*.3";
layers = (
{
layerId = "F2505AC5-901F-4BF6-BFE9-C6AF332FBC83";
shapes = (
{
closed = 1;
nodes = (
(256,730,l),
(256,220,ls),
(256,170,o),
(272,150,o),
(311,150,cs),
(350,150,l),
(350,10,l),
(323,-4,o),
(297,-10,o),
(276,-10,cs),
(134,-10,o),
(58,77,o),
(58,220,cs),
(58,730,l)
);
}
);
width = 367;
},
{
layerId = "A825F678-EB93-40C4-A48C-B705E79FBCA5";
shapes = (
{
closed = 1;
nodes = (
(205,730,l),
(205,192,ls),
(205,129,o),
(225,107,o),
(283,107,cs),
(321,107,l),
(321,6,l),
(299,-3,o),
(278,-6,o),
(260,-6,cs),
(133,-6,o),
(67,67,o),
(67,197,cs),
(67,730,l)
);
}
);
width = 341;
},
{
layerId = "0F4B55C1-D1AF-4339-8523-EC07133CB1AA";
shapes = (
{
closed = 1;
nodes = (
(156,730,l),
(156,163,ls),
(156,88,o),
(184,59,o),
(256,59,cs),
(285,59,l),
(285,4,l),
(271,-2,o),
(258,-4,o),
(245,-4,cs),
(132,-4,o),
(76,57,o),
(76,173,cs),
(76,730,l)
);
}
);
width = 307;
},
{
layerId = "2AC8629E-CA28-4614-8069-B83962E1F0CC";
shapes = (
{
closed = 1;
nodes = (
(105,730,l),
(105,150,ls),
(105,59,o),
(142,20,o),
(229,20,cs),
(262,20,l),
(262,2,l),
(251,-1,o),
(240,-3,o),
(229,-3,cs),
(131,-3,o),
(85,48,o),
(85,150,cs),
(85,730,l)
);
}
);
width = 287;
}
);
leftKerningGroup = l;
rightKerningGroup = l;
unicode = 108;
}
{
color = 11;
glyphname = m;
leftMetricsKey = n;
rightMetricsKey = n;
layers = (
{
layerId = "F2505AC5-901F-4BF6-BFE9-C6AF332FBC83";
shapes = (
{
closed = 1;
nodes = (
(250,0,l),
(250,300,ls),
(250,341,o),
(273,370,o),
(306,370,cs),
(334,370,o),
(346,349,o),
(346,300,cs),
(346,0,l),
(538,0,l),
(538,300,ls),
(538,341,o),
(561,370,o),
(594,370,cs),
(622,370,o),
(634,349,o),
(634,300,cs),
(634,0,l),
(826,0,l),
(826,350,ls),
(826,476,o),
(781,530,o),
(675,530,cs),
(609,530,o),
(562,509,o),
(516,460,c),
(514,460,l),
(491,507,o),
(450,530,o),
(387,530,cs),
(327,530,o),
(285,509,o),
(244,460,c),
(242,460,l),
(240,520,l),
(58,520,l),
(58,0,l)
);
}
);
width = 872;
},
{
layerId = "A825F678-EB93-40C4-A48C-B705E79FBCA5";
shapes = (
{
closed = 1;
nodes = (
(202,0,l),
(202,263,ls),
(202,355,o),
(240,417,o),
(295,417,cs),
(340,417,o),
(366,377,o),
(366,307,cs),
(366,0,l),
(501,0,l),
(501,273,ls),
(501,361,o),
(537,417,o),
(594,417,cs),
(639,417,o),
(665,382,o),
(665,320,cs),
(665,0,l),
(799,0,l),
(799,353,ls),
(799,473,o),
(751,530,o),
(648,530,cs),
(579,530,o),
(527,505,o),
(485,453,c),
(483,453,l),
(458,504,o),
(413,530,o),
(349,530,cs),
(286,530,o),
(238,505,o),
(199,453,c),
(197,453,l),
(195,520,l),
(67,520,l),
(67,0,l)
);
}
);
width = 853;
},
{
layerId = "0F4B55C1-D1AF-4339-8523-EC07133CB1AA";
shapes = (
{
closed = 1;
nodes = (
(154,0,l),
(154,251,ls),
(154,377,o),
(207,463,o),
(285,463,cs),
(347,463,o),
(386,407,o),
(386,313,cs),
(386,0,l),
(464,0,l),
(464,275,ls),
(464,388,o),
(516,463,o),
(594,463,cs),
(656,463,o),
(695,415,o),
(695,340,cs),
(695,0,l),
(773,0,l),
(773,356,ls),
(773,470,o),
(721,530,o),
(621,530,cs),
(549,530,o),
(489,499,o),
(452,443,c),
(450,443,l),
(426,500,o),
(378,530,o),
(311,530,cs),
(244,530,o),
(191,500,o),
(154,443,c),
(152,443,l),
(151,520,l),
(76,520,l),
(76,0,l)
);
}
);
width = 834;
},
{
layerId = "AEE2284A-A56F-4448-96E7-8687C65E5DBB";
partSelection = {
Wt = 2;
};
associatedMasterId = "2AC8629E-CA28-4614-8069-B83962E1F0CC";
shapes = (
{
closed = 1;
nodes = (
(130,0,l),
(130,257,ls),
(130,392,o),
(191,487,o),
(279,487,cs),
(352,487,o),
(396,423,o),
(396,317,cs),
(396,0,l),
(445,0,l),
(445,292,ls),
(445,406,o),
(507,487,o),
(594,487,cs),
(665,487,o),
(711,433,o),
(711,350,cs),
(711,0,l),
(760,0,l),
(760,358,ls),
(760,468,o),
(705,530,o),
(607,530,cs),
(533,530,o),
(469,495,o),
(435,435,c),
(433,435,l),
(409,497,o),
(361,530,o),
(292,530,cs),
(222,530,o),
(167,497,o),
(131,435,c),
(129,435,l),
(128,520,l),
(81,520,l),
(81,0,l)
);
}
);
width = 825;
},
{
layerId = "2AC8629E-CA28-4614-8069-B83962E1F0CC";
shapes = (
{
closed = 1;
nodes = (
(105,0,l),
(105,263,ls),
(105,408,o),
(173,510,o),
(272,510,cs),
(358,510,o),
(405,432,o),
(405,320,cs),
(405,0,l),
(425,0,l),
(425,308,ls),
(425,417,o),
(493,510,o),
(592,510,cs),
(673,510,o),
(725,451,o),
(725,360,cs),
(725,0,l),
(745,0,l),
(745,360,ls),
(745,463,o),
(684,530,o),
(592,530,cs),
(515,530,o),
(453,482,o),
(419,396,c),
(417,396,l),
(395,483,o),
(345,530,o),
(272,530,cs),
(199,530,o),
(142,484,o),
(107,396,c),
(105,396,l),
(105,520,l),
(85,520,l),
(85,0,l)
);
}
);
width = 813;
}
);
partsSettings = (
{
bottomValue = 0;
name = Wt;
topValue = 1000;
}
);
leftKerningGroup = n;
rightKerningGroup = h;
unicode = 109;
}
{
color = 11;
glyphname = n;
leftMetricsKey = h;
rightMetricsKey = h;
layers = (
{
anchors = (
{
name = bottom;
position = "{320, 0}";
},
{
name = top;
position = "{320, 520}";
}
);
layerId = "F2505AC5-901F-4BF6-BFE9-C6AF332FBC83";
shapes = (
{
closed = 1;
nodes = (
(254,0,l),
(254,300,ls),
(254,341,o),
(287,370,o),
(333,370,cs),
(375,370,o),
(392,345,o),
(392,280,cs),
(392,0,l),
(588,0,l),
(588,320,ls),
(588,469,o),
(539,530,o),
(418,530,cs),
(348,530,o),
(297,509,o),
(248,460,c),
(246,460,l),
(244,520,l),
(58,520,l),
(58,0,l)
);
}
);
width = 634;
},
{
anchors = (
{
name = bottom;
position = "{309, 0}";
},
{
name = top;
position = "{309, 520}";
}
);
layerId = "A825F678-EB93-40C4-A48C-B705E79FBCA5";
shapes = (
{
closed = 1;
nodes = (
(205,0,l),
(205,277,ls),
(205,351,o),
(268,417,o),
(339,417,cs),
(394,417,o),
(420,378,o),
(420,293,cs),
(420,0,l),
(557,0,l),
(557,320,ls),
(557,464,o),
(504,530,o),
(387,530,cs),
(311,530,o),
(246,502,o),
(201,449,c),
(199,449,l),
(198,520,l),
(67,520,l),
(67,0,l)
);
}
);
width = 611;
},
{
anchors = (
{
name = bottom;
position = "{298, 0}";
},
{
name = top;
position = "{298, 520}";
}
);
layerId = "0F4B55C1-D1AF-4339-8523-EC07133CB1AA";
shapes = (
{
closed = 1;
nodes = (
(155,0,l),
(155,273,ls),
(155,375,o),
(240,463,o),
(338,463,cs),
(411,463,o),
(447,412,o),
(447,306,cs),
(447,0,l),
(527,0,l),
(527,320,ls),
(527,462,o),
(472,530,o),
(358,530,cs),
(274,530,o),
(196,493,o),
(154,433,c),
(152,433,l),
(152,520,l),
(76,520,l),
(76,0,l)
);
}
);
width = 588;
},
{
anchors = (
{
name = bottom;
position = "{292, 0}";
},
{
name = top;
position = "{292, 520}";
}
);
layerId = "AEE2284A-A56F-4448-96E7-8687C65E5DBB";
partSelection = {
Wt = 2;
};
associatedMasterId = "2AC8629E-CA28-4614-8069-B83962E1F0CC";
shapes = (
{
closed = 1;
nodes = (
(130,0,l),
(130,282,ls),
(130,394,o),
(222,487,o),
(333,487,cs),
(419,487,o),
(461,430,o),
(461,313,cs),
(461,0,l),
(511,0,l),
(511,320,ls),
(511,461,o),
(456,530,o),
(343,530,cs),
(254,530,o),
(170,487,o),
(130,421,c),
(128,421,l),
(128,520,l),
(81,520,l),
(81,0,l)
);
}
);
width = 576;
},
{
anchors = (
{
name = bottom;
position = "{286, 0}";
},
{
name = top;
position = "{286, 520}";
}
);
layerId = "2AC8629E-CA28-4614-8069-B83962E1F0CC";
shapes = (
{
closed = 1;
nodes = (
(105,0,l),
(105,290,ls),
(105,412,o),
(205,510,o),
(329,510,cs),
(427,510,o),
(475,448,o),
(475,320,cs),
(475,0,l),
(495,0,l),
(495,320,ls),
(495,458,o),
(438,530,o),
(329,530,cs),
(233,530,o),
(146,475,o),
(107,388,c),
(105,388,l),
(105,520,l),
(85,520,l),
(85,0,l)
);
}
);
width = 563;
}
);
partsSettings = (
{
bottomValue = 0;
name = Wt;
topValue = 1000;
}
);
leftKerningGroup = n;
rightKerningGroup = h;
unicode = 110;
}
{
color = 11;
glyphname = o;
leftMetricsKey = "=h*.5";
rightMetricsKey = "=|";
layers = (
{
anchors = (
{
name = bottom;
position = "{304, 0}";
},
{
name = center;
position = "{304, 260}";
},
{
name = ogonek;
position = "{429, 10}";
},
{
name = top;
position = "{304, 520}";
},
{
name = topright;
position = "{480, 484}";
}
);
layerId = "F2505AC5-901F-4BF6-BFE9-C6AF332FBC83";
shapes = (
{
closed = 1;
nodes = (
(483,-10,o),
(579,84,o),
(579,260,cs),
(579,436,o),
(483,530,o),
(304,530,cs),
(124,530,o),
(29,436,o),
(29,260,cs),
(29,84,o),
(124,-10,o),
(304,-10,cs)
);
},
{
closed = 1;
nodes = (
(250,130,o),
(225,171,o),
(225,260,cs),
(225,349,o),
(250,390,o),
(304,390,cs),
(358,390,o),
(383,349,o),
(383,260,cs),
(383,171,o),
(358,130,o),
(304,130,cs)
);
}
);
width = 608;
},
{
anchors = (
{
name = bottom;
position = "{293, 0}";
},
{
name = center;
position = "{293, 260}";
},
{
name = ogonek;
position = "{389, 3}";
},
{
name = top;
position = "{293, 520}";
},
{
name = topright;
position = "{465, 483}";
}
);
layerId = "A825F678-EB93-40C4-A48C-B705E79FBCA5";
shapes = (
{
closed = 1;
nodes = (
(459,-10,o),
(553,87,o),
(553,260,cs),
(553,433,o),
(459,530,o),
(293,530,cs),
(126,530,o),
(33,433,o),
(33,260,cs),
(33,87,o),
(126,-10,o),
(293,-10,cs)
);
},
{
closed = 1;
nodes = (
(212,97,o),
(170,152,o),
(170,260,cs),
(170,368,o),
(212,423,o),
(293,423,cs),
(374,423,o),
(416,368,o),
(416,260,cs),
(416,152,o),
(374,97,o),
(293,97,cs)
);
}
);
width = 586;
},
{
anchors = (
{
name = bottom;
position = "{283, 0}";
},
{
name = center;
position = "{283, 260}";
},
{
name = ogonek;
position = "{353, 0}";
},
{
name = top;
position = "{283, 520}";
},
{
name = topright;
position = "{445, 481}";
}
);
layerId = "0F4B55C1-D1AF-4339-8523-EC07133CB1AA";
shapes = (
{
closed = 1;
nodes = (
(438,-10,o),
(529,90,o),
(529,260,cs),
(529,430,o),
(438,530,o),
(284,530,cs),
(129,530,o),
(38,430,o),
(38,260,cs),
(38,90,o),
(129,-10,o),
(284,-10,cs)
);
},
{
closed = 1;
nodes = (
(177,57,o),
(117,129,o),
(117,260,cs),
(117,391,o),
(177,463,o),
(284,463,cs),
(391,463,o),
(450,391,o),
(450,260,cs),
(450,129,o),
(391,57,o),
(284,57,cs)
);
}
);
width = 567;
},
{
anchors = (
{
name = bottom;
position = "{272, 0}";
},
{
name = center;
position = "{272, 260}";
},
{
name = ogonek;
position = "{320, 0}";
},
{
name = top;
position = "{272, 520}";
},
{
name = topright;
position = "{418, 480}";
}
);
layerId = "2AC8629E-CA28-4614-8069-B83962E1F0CC";
shapes = (
{
closed = 1;
nodes = (
(415,-10,o),
(502,92,o),
(502,260,cs),
(502,428,o),
(415,530,o),
(272,530,cs),
(129,530,o),
(42,428,o),
(42,260,cs),
(42,92,o),
(129,-10,o),
(272,-10,cs)
);
},
{
closed = 1;
nodes = (
(141,10,o),
(62,102,o),
(62,260,cs),
(62,418,o),
(141,510,o),
(272,510,cs),
(403,510,o),
(482,418,o),
(482,260,cs),
(482,102,o),
(403,10,o),
(272,10,cs)
);
}
);
width = 544;
}
);
leftKerningGroup = o;
rightKerningGroup = o;
unicode = 111;
}
{
color = 11;
glyphname = p;
leftMetricsKey = n;
rightMetricsKey = o;
layers = (
{
layerId = "F2505AC5-901F-4BF6-BFE9-C6AF332FBC83";
shapes = (
{
closed = 1;
nodes = (
(254,-210,l),
(254,60,l),
(256,60,l),
(301,11,o),
(347,-10,o),
(409,-10,cs),
(542,-10,o),
(618,88,o),
(618,260,cs),
(618,432,o),
(542,530,o),
(409,530,cs),
(347,530,o),
(298,509,o),
(248,460,c),
(246,460,l),
(244,520,l),
(58,520,l),
(58,-210,l)
);
},
{
closed = 1;
nodes = (
(280,140,o),
(254,177,o),
(254,240,cs),
(254,280,ls),
(254,343,o),
(280,380,o),
(338,380,cs),
(398,380,o),
(426,341,o),
(426,260,cs),
(426,179,o),
(398,140,o),
(338,140,cs)
);
}
);
width = 647;
},
{
layerId = "A825F678-EB93-40C4-A48C-B705E79FBCA5";
shapes = (
{
closed = 1;
nodes = (
(205,-210,l),
(205,65,l),
(207,65,l),
(249,14,o),
(301,-10,o),
(369,-10,cs),
(506,-10,o),
(585,89,o),
(585,260,cs),
(585,431,o),
(507,530,o),
(369,530,cs),
(301,530,o),
(247,506,o),
(201,455,c),
(199,455,l),
(198,520,l),
(67,520,l),
(67,-210,l)
);
},
{
closed = 1;
nodes = (
(249,100,o),
(205,156,o),
(205,240,cs),
(205,280,ls),
(205,364,o),
(249,420,o),
(327,420,cs),
(407,420,o),
(450,364,o),
(450,260,cs),
(450,156,o),
(407,100,o),
(327,100,cs)
);
}
);
width = 618;
},
{
layerId = "0F4B55C1-D1AF-4339-8523-EC07133CB1AA";
shapes = (
{
closed = 1;
nodes = (
(155,-210,l),
(155,79,l),
(157,79,l),
(196,21,o),
(257,-10,o),
(335,-10,cs),
(473,-10,o),
(553,89,o),
(553,260,cs),
(553,431,o),
(474,530,o),
(335,530,cs),
(258,530,o),
(195,499,o),
(154,441,c),
(152,441,l),
(152,520,l),
(76,520,l),
(76,-210,l)
);
},
{
closed = 1;
nodes = (
(217,57,o),
(155,131,o),
(155,239,cs),
(155,281,ls),
(155,389,o),
(217,463,o),
(317,463,cs),
(416,463,o),
(474,389,o),
(474,260,cs),
(474,131,o),
(416,57,o),
(317,57,cs)
);
}
);
width = 591;
},
{
layerId = "AEE2284A-A56F-4448-96E7-8687C65E5DBB";
partSelection = {
Wt = 2;
};
associatedMasterId = "2AC8629E-CA28-4614-8069-B83962E1F0CC";
shapes = (
{
closed = 1;
nodes = (
(130,-210,l),
(130,90,l),
(132,90,l),
(168,27,o),
(236,-10,o),
(320,-10,cs),
(458,-10,o),
(536,88,o),
(536,260,cs),
(536,432,o),
(458,530,o),
(320,530,cs),
(237,530,o),
(168,494,o),
(130,430,c),
(128,430,l),
(128,520,l),
(81,520,l),
(81,-210,l)
);
},
{
closed = 1;
nodes = (
(200,33,o),
(130,115,o),
(130,237,cs),
(130,283,ls),
(130,405,o),
(200,487,o),
(311,487,cs),
(422,487,o),
(487,404,o),
(487,260,cs),
(487,116,o),
(422,33,o),
(311,33,cs)
);
}
);
width = 577;
},
{
layerId = "2AC8629E-CA28-4614-8069-B83962E1F0CC";
shapes = (
{
closed = 1;
nodes = (
(105,-210,l),
(105,120,l),
(107,120,l),
(141,39,o),
(212,-10,o),
(305,-10,cs),
(440,-10,o),
(519,91,o),
(519,260,cs),
(519,429,o),
(440,530,o),
(305,530,cs),
(212,530,o),
(141,481,o),
(107,400,c),
(105,400,l),
(105,520,l),
(85,520,l),
(85,-210,l)
);
},
{
closed = 1;
nodes = (
(183,10,o),
(105,100,o),
(105,235,cs),
(105,285,ls),
(105,420,o),
(183,510,o),
(305,510,cs),
(428,510,o),
(499,419,o),
(499,260,cs),
(499,101,o),
(428,10,o),
(305,10,cs)
);
}
);
width = 561;
}
);
partsSettings = (
{
bottomValue = 0;
name = Wt;
topValue = 1000;
}
);
leftKerningGroup = n;
rightKerningGroup = o;
unicode = 112;
}
{
color = 11;
glyphname = q;
layers = (
{
layerId = "F2505AC5-901F-4BF6-BFE9-C6AF332FBC83";
shapes = (
{
closed = 1;
nodes = (
(393,-210,l),
(393,60,l),
(391,60,l),
(346,11,o),
(300,-10,o),
(238,-10,cs),
(105,-10,o),
(29,88,o),
(29,260,cs),
(29,432,o),
(105,530,o),
(238,530,cs),
(300,530,o),
(349,509,o),
(399,460,c),
(401,460,l),
(403,520,l),
(589,520,l),
(589,-210,l)
);
},
{
closed = 1;
nodes = (
(367,140,o),
(393,177,o),
(393,240,cs),
(393,280,ls),
(393,343,o),
(367,380,o),
(309,380,cs),
(249,380,o),
(221,341,o),
(221,260,cs),
(221,179,o),
(249,140,o),
(309,140,cs)
);
}
);
width = 647;
},
{
layerId = "A825F678-EB93-40C4-A48C-B705E79FBCA5";
shapes = (
{
closed = 1;
nodes = (
(414,-210,l),
(414,65,l),
(412,65,l),
(370,14,o),
(318,-10,o),
(250,-10,cs),
(113,-10,o),
(34,89,o),
(34,260,cs),
(34,431,o),
(112,530,o),
(250,530,cs),
(318,530,o),
(372,506,o),
(418,455,c),
(420,455,l),
(421,520,l),
(552,520,l),
(552,-210,l)
);
},
{
closed = 1;
nodes = (
(370,100,o),
(414,156,o),
(414,240,cs),
(414,280,ls),
(414,364,o),
(370,420,o),
(292,420,cs),
(212,420,o),
(169,364,o),
(169,260,cs),
(169,156,o),
(212,100,o),
(292,100,cs)
);
}
);
width = 619;
},
{
layerId = "0F4B55C1-D1AF-4339-8523-EC07133CB1AA";
shapes = (
{
closed = 1;
nodes = (
(436,-210,l),
(436,79,l),
(434,79,l),
(395,21,o),
(334,-10,o),
(256,-10,cs),
(118,-10,o),
(38,89,o),
(38,260,cs),
(38,431,o),
(117,530,o),
(256,530,cs),
(333,530,o),
(396,499,o),
(437,441,c),
(439,441,l),
(439,520,l),
(515,520,l),
(515,-210,l)
);
},
{
closed = 1;
nodes = (
(374,57,o),
(436,131,o),
(436,239,cs),
(436,281,ls),
(436,389,o),
(374,463,o),
(274,463,cs),
(175,463,o),
(117,389,o),
(117,260,cs),
(117,131,o),
(175,57,o),
(274,57,cs)
);
}
);
width = 591;
},
{
layerId = "AEE2284A-A56F-4448-96E7-8687C65E5DBB";
partSelection = {
Wt = 2;
};
associatedMasterId = "2AC8629E-CA28-4614-8069-B83962E1F0CC";
shapes = (
{
alignment = -1;
pos = (577,0);
ref = p;
scale = (-1,1);
}
);
width = 577;
},
{
layerId = "2AC8629E-CA28-4614-8069-B83962E1F0CC";
shapes = (
{
closed = 1;
nodes = (
(478,-210,l),
(478,520,l),
(458,520,l),
(458,400,l),
(456,400,l),
(422,481,o),
(351,530,o),
(258,530,cs),
(123,530,o),
(44,429,o),
(44,260,cs),
(44,91,o),
(123,-10,o),
(258,-10,cs),
(351,-10,o),
(422,39,o),
(456,120,c),
(458,120,l),
(458,-210,l)
);
},
{
closed = 1;
nodes = (
(135,10,o),
(64,101,o),
(64,260,cs),
(64,419,o),
(135,510,o),
(258,510,cs),
(380,510,o),
(458,420,o),
(458,285,cs),
(458,235,ls),
(458,100,o),
(380,10,o),
(258,10,cs)
);
}
);
width = 563;
}
);
partsSettings = (
{
bottomValue = 0;
name = Wt;
topValue = 1000;
}
);
leftKerningGroup = o;
rightKerningGroup = u;
unicode = 113;
}
{
color = 11;
glyphname = r;
leftMetricsKey = n;
rightMetricsKey = "=|*.2";
layers = (
{
anchors = (
{
name = bottom;
position = "{259, 0}";
},
{
name = top;
position = "{259, 520}";
}
);
layerId = "F2505AC5-901F-4BF6-BFE9-C6AF332FBC83";
rightMetricsKey = "=|*.3";
shapes = (
{
closed = 1;
nodes = (
(256,0,l),
(256,220,ls),
(256,303,o),
(356,370,o),
(478,370,c),
(478,530,l),
(391,530,o),
(313,496,o),
(250,430,c),
(248,430,l),
(246,520,l),
(58,520,l),
(58,0,l)
);
}
);
width = 495;
},
{
anchors = (
{
name = bottom;
position = "{248, 0}";
},
{
name = top;
position = "{248, 520}";
}
);
layerId = "A825F678-EB93-40C4-A48C-B705E79FBCA5";
shapes = (
{
closed = 1;
nodes = (
(206,0,l),
(206,240,ls),
(206,336,o),
(317,413,o),
(454,413,c),
(454,530,l),
(352,530,o),
(260,491,o),
(203,423,c),
(201,423,l),
(199,520,l),
(67,520,l),
(67,0,l)
);
}
);
width = 467;
},
{
anchors = (
{
name = bottom;
position = "{237, 0}";
},
{
name = top;
position = "{237, 520}";
}
);
layerId = "0F4B55C1-D1AF-4339-8523-EC07133CB1AA";
shapes = (
{
closed = 1;
nodes = (
(156,0,l),
(156,260,ls),
(156,375,o),
(272,460,o),
(430,460,c),
(430,530,l),
(312,530,o),
(207,485,o),
(155,412,c),
(153,412,l),
(152,520,l),
(76,520,l),
(76,0,l)
);
}
);
width = 445;
},
{
anchors = (
{
name = bottom;
position = "{231, 0}";
},
{
name = top;
position = "{231, 520}";
}
);
layerId = "AEE2284A-A56F-4448-96E7-8687C65E5DBB";
partSelection = {
Wt = 2;
};
associatedMasterId = "2AC8629E-CA28-4614-8069-B83962E1F0CC";
shapes = (
{
closed = 1;
nodes = (
(130,0,l),
(130,270,ls),
(130,398,o),
(246,485,o),
(417,485,c),
(417,530,l),
(291,530,o),
(180,481,o),
(131,404,c),
(129,404,l),
(128,520,l),
(81,520,l),
(81,0,l)
);
}
);
width = 433;
},
{
anchors = (
{
name = bottom;
position = "{225, 0}";
},
{
name = top;
position = "{225, 520}";
}
);
layerId = "2AC8629E-CA28-4614-8069-B83962E1F0CC";
shapes = (
{
closed = 1;
nodes = (
(105,0,l),
(105,280,ls),
(105,408,o),
(238,510,o),
(405,510,c),
(405,530,l),
(271,530,o),
(153,466,o),
(107,370,c),
(105,370,l),
(105,520,l),
(85,520,l),
(85,0,l)
);
}
);
width = 422;
}
);
partsSettings = (
{
bottomValue = 0;
name = Wt;
topValue = 1000;
}
);
leftKerningGroup = n;
rightKerningGroup = r;
unicode = 114;
}
{
color = 11;
glyphname = s;
leftMetricsKey = "=h*.5";
rightMetricsKey = "=|";
layers = (
{
anchors = (
{
name = bottom;
position = "{246, 0}";
},
{
name = cedi;
position = "{188, 0}";
},
{
name = top;
position = "{246, 520}";
}
);
layerId = "B3DF76C3-CC98-4C87-AD2C-A718B67601D0";
name = "Medium.Dec 5 20, 15:24";
shapes = (
{
closed = 1;
nodes = (
(377,-10,o),
(459,48,o),
(459,143,cs),
(459,241,o),
(376,283,o),
(257,310,c),
(174,332,o),
(146,350,o),
(146,384,cs),
(146,421,o),
(181,440,o),
(257,440,cs),
(315,440,o),
(372,428,o),
(424,404,c),
(439,494,l),
(379,517,o),
(310,530,o),
(244,530,cs),
(111,530,o),
(36,478,o),
(36,385,cs),
(36,288,o),
(112,251,o),
(235,221,cs),
(323,198,o),
(349,180,o),
(349,144,cs),
(349,101,o),
(310,80,o),
(233,80,cs),
(171,80,o),
(117,94,o),
(57,122,c),
(42,32,l),
(98,6,o),
(175,-10,o),
(246,-10,cs)
);
}
);
width = 495;
},
{
anchors = (
{
name = bottom;
position = "{264, 0}";
},
{
name = cedi;
position = "{207, 0}";
},
{
name = top;
position = "{264, 520}";
}
);
layerId = "F2505AC5-901F-4BF6-BFE9-C6AF332FBC83";
shapes = (
{
closed = 1;
nodes = (
(412,-10,o),
(504,54,o),
(504,155,cs),
(504,244,o),
(435,299,o),
(286,331,c),
(245,342,o),
(229,351,o),
(229,367,cs),
(229,384,o),
(245,390,o),
(291,390,cs),
(348,390,o),
(393,380,o),
(464,354,c),
(484,494,l),
(411,517,o),
(331,530,o),
(264,530,cs),
(110,530,o),
(29,475,o),
(29,370,cs),
(29,277,o),
(88,229,o),
(247,191,c),
(294,178,o),
(304,172,o),
(304,157,cs),
(304,137,o),
(288,130,o),
(242,130,cs),
(183,130,o),
(127,143,o),
(54,172,c),
(34,32,l),
(103,4,o),
(181,-10,o),
(269,-10,cs)
);
}
);
width = 533;
},
{
anchors = (
{
name = bottom;
position = "{256, 0}";
},
{
name = cedi;
position = "{198, 0}";
},
{
name = top;
position = "{256, 520}";
}
);
layerId = "A825F678-EB93-40C4-A48C-B705E79FBCA5";
shapes = (
{
closed = 1;
nodes = (
(396,-10,o),
(482,50,o),
(482,147,cs),
(482,233,o),
(417,285,o),
(270,317,c),
(197,335,o),
(173,350,o),
(173,378,cs),
(173,409,o),
(203,423,o),
(272,423,cs),
(332,423,o),
(387,412,o),
(448,388,c),
(464,494,l),
(401,516,o),
(321,530,o),
(254,530,cs),
(110,530,o),
(33,477,o),
(33,380,cs),
(33,294,o),
(90,248,o),
(243,210,cs),
(321,191,o),
(342,178,o),
(342,150,cs),
(342,114,o),
(309,97,o),
(239,97,cs),
(177,97,o),
(119,110,o),
(52,138,c),
(36,32,l),
(97,5,o),
(179,-10,o),
(257,-10,cs)
);
}
);
width = 515;
},
{
anchors = (
{
name = bottom;
position = "{249, 0}";
},
{
name = cedi;
position = "{191, 0}";
},
{
name = top;
position = "{249, 520}";
}
);
layerId = "0F4B55C1-D1AF-4339-8523-EC07133CB1AA";
shapes = (
{
closed = 1;
nodes = (
(382,-10,o),
(463,46,o),
(463,139,cs),
(463,229,o),
(385,271,o),
(257,300,cs),
(166,321,o),
(118,340,o),
(118,389,cs),
(118,438,o),
(164,463,o),
(255,463,cs),
(318,463,o),
(384,451,o),
(433,429,c),
(445,494,l),
(393,516,o),
(314,530,o),
(246,530,cs),
(114,530,o),
(38,479,o),
(38,390,cs),
(38,303,o),
(109,265,o),
(240,233,c),
(335,211,o),
(383,193,o),
(383,141,cs),
(383,86,o),
(332,57,o),
(238,57,cs),
(174,57,o),
(113,71,o),
(53,97,c),
(41,32,l),
(97,5,o),
(175,-10,o),
(248,-10,cs)
);
}
);
width = 501;
},
{
anchors = (
{
name = bottom;
position = "{227, 0}";
},
{
name = cedi;
position = "{168, 0}";
},
{
name = top;
position = "{227, 520}";
}
);
layerId = "CF3B23B1-EC33-478C-BC19-1C035ADEDFFB";
associatedMasterId = "2AC8629E-CA28-4614-8069-B83962E1F0CC";
name = "Dec 5 20, 15:22";
shapes = (
{
closed = 1;
nodes = (
(341,-10,o),
(412,42,o),
(412,130,cs),
(412,231,o),
(315,256,o),
(226,279,cs),
(140,301,o),
(62,321,o),
(62,400,cs),
(62,469,o),
(121,510,o),
(222,510,cs),
(282,510,o),
(351,496,o),
(387,476,c),
(397,494,l),
(357,515,o),
(284,530,o),
(222,530,cs),
(111,530,o),
(42,481,o),
(42,400,cs),
(42,305,o),
(135,282,o),
(221,260,cs),
(310,237,o),
(392,216,o),
(392,130,cs),
(392,54,o),
(330,10,o),
(222,10,cs),
(160,10,o),
(101,24,o),
(53,49,c),
(43,31,l),
(95,4,o),
(158,-10,o),
(222,-10,cs)
);
}
);
width = 454;
},
{
anchors = (
{
name = bottom;
position = "{242, 0}";
},
{
name = cedi;
position = "{183, 0}";
},
{
name = top;
position = "{242, 520}";
}
);
background = {
shapes = (
{
closed = 0;
nodes = (
(49,40,l),
(103,14,o),
(169,0,o),
(237,0,cs),
(360,0,o),
(433,48,o),
(433,130,cs),
(433,315,o),
(53,224,o),
(53,400,cs),
(53,475,o),
(122,520,o),
(237,520,cs),
(305,520,o),
(382,505,o),
(422,485,c)
);
}
);
};
layerId = "2AC8629E-CA28-4614-8069-B83962E1F0CC";
shapes = (
{
closed = 1;
nodes = (
(365,-10,o),
(442,42,o),
(442,130,cs),
(442,232,o),
(337,256,o),
(241,279,cs),
(147,301,o),
(62,321,o),
(62,400,cs),
(62,469,o),
(126,510,o),
(236,510,cs),
(302,510,o),
(378,496,o),
(417,476,c),
(425,494,l),
(383,515,o),
(304,530,o),
(236,530,cs),
(116,530,o),
(42,481,o),
(42,400,cs),
(42,305,o),
(142,282,o),
(236,259,cs),
(332,237,o),
(422,216,o),
(422,130,cs),
(422,54,o),
(354,10,o),
(236,10,cs),
(169,10,o),
(105,24,o),
(52,49,c),
(44,31,l),
(99,4,o),
(167,-10,o),
(236,-10,cs)
);
}
);
width = 484;
}
);
leftKerningGroup = s;
rightKerningGroup = s;
unicode = 115;
}
{
color = 11;
glyphname = t;
leftMetricsKey = "=f*1.4";
rightMetricsKey = "=c*.6";
layers = (
{
anchors = (
{
name = bottom;
position = "{238, 0}";
},
{
name = cedi;
position = "{235, 0}";
},
{
name = center;
position = "{242, 260}";
},
{
name = top;
position = "{242, 520}";
},
{
name = topright;
position = "{462, 520}";
}
);
layerId = "AB1C3EFE-7F44-4566-8BDB-BBA89E8FD842";
name = "Medium.Dec 5 20, 15:36";
shapes = (
{
closed = 1;
nodes = (
(342,-10,o),
(381,-5,o),
(427,8,c),
(417,100,l),
(386,90,o),
(353,85,o),
(325,85,cs),
(269,85,o),
(250,106,o),
(250,170,cs),
(250,430,l),
(427,430,l),
(427,520,l),
(250,520,l),
(250,690,l),
(141,690,l),
(141,520,l),
(18,520,l),
(18,430,l),
(141,430,l),
(141,150,ls),
(141,35,o),
(186,-10,o),
(303,-10,cs)
);
}
);
width = 473;
},
{
anchors = (
{
name = bottom;
position = "{268, 0}";
},
{
name = cedi;
position = "{228, 0}";
},
{
name = center;
position = "{268, 260}";
},
{
name = top;
position = "{268, 520}";
},
{
name = topright;
position = "{520, 520}";
}
);
layerId = "F2505AC5-901F-4BF6-BFE9-C6AF332FBC83";
leftMetricsKey = "=f*.8";
rightMetricsKey = "=c*1";
shapes = (
{
closed = 1;
nodes = (
(368,-10,o),
(417,-4,o),
(474,10,c),
(459,155,l),
(431,147,o),
(389,140,o),
(364,140,cs),
(331,140,o),
(322,152,o),
(322,200,cs),
(322,380,l),
(477,380,l),
(477,520,l),
(322,520,l),
(322,690,l),
(124,690,l),
(124,520,l),
(14,520,l),
(14,380,l),
(124,380,l),
(124,160,ls),
(124,38,o),
(180,-10,o),
(319,-10,cs)
);
}
);
width = 523;
},
{
anchors = (
{
name = bottom;
position = "{269, 0}";
},
{
name = cedi;
position = "{245, 0}";
},
{
name = center;
position = "{269, 260}";
},
{
name = top;
position = "{269, 520}";
},
{
name = topright;
position = "{499, 520}";
}
);
layerId = "A825F678-EB93-40C4-A48C-B705E79FBCA5";
shapes = (
{
closed = 1;
nodes = (
(374,-10,o),
(418,-5,o),
(468,9,c),
(455,118,l),
(424,109,o),
(387,103,o),
(359,103,cs),
(307,103,o),
(290,121,o),
(290,180,cs),
(290,413,l),
(469,413,l),
(469,520,l),
(290,520,l),
(290,690,l),
(152,690,l),
(152,520,l),
(28,520,l),
(28,413,l),
(152,413,l),
(152,153,ls),
(152,35,o),
(202,-10,o),
(329,-10,cs)
);
}
);
width = 501;
},
{
anchors = (
{
name = bottom;
position = "{260, 0}";
},
{
name = cedi;
position = "{252, 0}";
},
{
name = center;
position = "{260, 260}";
},
{
name = top;
position = "{260, 520}";
},
{
name = topright;
position = "{469, 520}";
}
);
layerId = "0F4B55C1-D1AF-4339-8523-EC07133CB1AA";
shapes = (
{
closed = 1;
nodes = (
(371,-10,o),
(410,-5,o),
(452,7,c),
(443,75,l),
(410,65,o),
(377,60,o),
(345,60,cs),
(273,60,o),
(249,84,o),
(249,160,cs),
(249,453,l),
(451,453,l),
(451,520,l),
(249,520,l),
(249,690,l),
(170,690,l),
(170,520,l),
(32,520,l),
(32,453,l),
(170,453,l),
(170,147,ls),
(170,33,o),
(214,-10,o),
(330,-10,cs)
);
}
);
width = 488;
},
{
anchors = (
{
name = bottom;
position = "{250, 0}";
},
{
name = cedi;
position = "{258, 0}";
},
{
name = center;
position = "{250, 260}";
},
{
name = top;
position = "{250, 520}";
},
{
name = topright;
position = "{437, 520}";
}
);
layerId = "2AC8629E-CA28-4614-8069-B83962E1F0CC";
shapes = (
{
closed = 1;
nodes = (
(367,-10,o),
(401,-5,o),
(435,5,c),
(429,24,l),
(397,15,o),
(365,10,o),
(330,10,cs),
(237,10,o),
(207,41,o),
(207,140,cs),
(207,500,l),
(433,500,l),
(433,520,l),
(207,520,l),
(207,690,l),
(187,690,l),
(187,520,l),
(35,520,l),
(35,500,l),
(187,500,l),
(187,140,ls),
(187,30,o),
(225,-10,o),
(330,-10,cs)
);
}
);
width = 476;
}
);
leftKerningGroup = f;
rightKerningGroup = c;
unicode = 116;
}
{
color = 11;
glyphname = u;
leftMetricsKey = "|n";
rightMetricsKey = "|n";
layers = (
{
anchors = (
{
name = bottom;
position = "{309, 0}";
},
{
name = ogonek;
position = "{566, 0}";
},
{
name = top;
position = "{309, 520}";
},
{
name = top_ring;
position = "{309, 540}";
},
{
name = topright;
position = "{536, 480}";
}
);
layerId = "F2505AC5-901F-4BF6-BFE9-C6AF332FBC83";
shapes = (
{
closed = 1;
nodes = (
(284,-10,o),
(329,10,o),
(376,60,c),
(378,60,l),
(380,0,l),
(566,0,l),
(566,520,l),
(370,520,l),
(370,220,ls),
(370,179,o),
(338,150,o),
(296,150,cs),
(257,150,o),
(242,175,o),
(242,240,cs),
(242,520,l),
(46,520,l),
(46,200,ls),
(46,53,o),
(97,-10,o),
(216,-10,cs)
);
}
);
width = 624;
},
{
anchors = (
{
name = bottom;
position = "{298, 0}";
},
{
name = ogonek;
position = "{534, 0}";
},
{
name = top;
position = "{298, 520}";
},
{
name = top_ring;
position = "{298, 540}";
},
{
name = topright;
position = "{514, 480}";
}
);
layerId = "A825F678-EB93-40C4-A48C-B705E79FBCA5";
shapes = (
{
closed = 1;
nodes = (
(297,-10,o),
(356,17,o),
(400,71,c),
(402,71,l),
(403,0,l),
(534,0,l),
(534,520,l),
(397,520,l),
(397,243,ls),
(397,168,o),
(338,103,o),
(271,103,cs),
(217,103,o),
(191,144,o),
(191,227,cs),
(191,520,l),
(54,520,l),
(54,200,ls),
(54,57,o),
(108,-10,o),
(224,-10,cs)
);
}
);
width = 601;
},
{
anchors = (
{
name = bottom;
position = "{286, 0}";
},
{
name = ogonek;
position = "{502, 0}";
},
{
name = top;
position = "{286, 520}";
},
{
name = top_ring;
position = "{286, 540}";
},
{
name = topright;
position = "{492, 480}";
}
);
layerId = "0F4B55C1-D1AF-4339-8523-EC07133CB1AA";
shapes = (
{
closed = 1;
nodes = (
(311,-10,o),
(383,26,o),
(423,87,c),
(425,87,l),
(426,0,l),
(501,0,l),
(501,520,l),
(422,520,l),
(422,247,ls),
(422,144,o),
(343,57,o),
(250,57,cs),
(177,57,o),
(140,110,o),
(140,214,cs),
(140,520,l),
(61,520,l),
(61,200,ls),
(61,59,o),
(117,-10,o),
(230,-10,cs)
);
}
);
width = 577;
},
{
anchors = (
{
name = bottom;
position = "{279, 0}";
},
{
name = ogonek;
position = "{484, 0}";
},
{
name = top;
position = "{279, 520}";
},
{
name = top_ring;
position = "{279, 540}";
},
{
name = topright;
position = "{480, 480}";
}
);
layerId = "AEE2284A-A56F-4448-96E7-8687C65E5DBB";
partSelection = {
Wt = 2;
};
associatedMasterId = "2AC8629E-CA28-4614-8069-B83962E1F0CC";
shapes = (
{
closed = 1;
nodes = (
(318,-10,o),
(396,32,o),
(435,98,c),
(437,98,l),
(437,0,l),
(484,0,l),
(484,520,l),
(435,520,l),
(435,238,ls),
(435,125,o),
(349,33,o),
(242,33,cs),
(157,33,o),
(114,92,o),
(114,207,cs),
(114,520,l),
(65,520,l),
(65,200,ls),
(65,60,o),
(120,-10,o),
(232,-10,cs)
);
}
);
width = 565;
},
{
anchors = (
{
name = bottom;
position = "{272, 0}";
},
{
name = ogonek;
position = "{468, 0}";
},
{
name = top;
position = "{272, 520}";
},
{
name = top_ring;
position = "{272, 540}";
},
{
name = topright;
position = "{468, 480}";
}
);
layerId = "2AC8629E-CA28-4614-8069-B83962E1F0CC";
shapes = (
{
closed = 1;
nodes = (
(327,-10,o),
(408,44,o),
(446,132,c),
(448,132,l),
(448,0,l),
(468,0,l),
(468,520,l),
(448,520,l),
(448,230,ls),
(448,107,o),
(354,10,o),
(234,10,cs),
(137,10,o),
(88,74,o),
(88,200,cs),
(88,520,l),
(68,520,l),
(68,200,ls),
(68,64,o),
(125,-10,o),
(234,-10,cs)
);
}
);
width = 553;
}
);
partsSettings = (
{
bottomValue = 0;
name = Wt;
topValue = 1000;
}
);
leftKerningGroup = u;
rightKerningGroup = u;
unicode = 117;
}
{
color = 11;
glyphname = v;
leftMetricsKey = "=|k*.4";
rightMetricsKey = "=|";
layers = (
{
layerId = "F2505AC5-901F-4BF6-BFE9-C6AF332FBC83";
shapes = (
{
closed = 1;
nodes = (
(430,0,l),
(582,520,l),
(380,520,l),
(294,120,l),
(292,120,l),
(206,520,l),
(4,520,l),
(156,0,l)
);
}
);
width = 586;
},
{
layerId = "A825F678-EB93-40C4-A48C-B705E79FBCA5";
shapes = (
{
closed = 1;
nodes = (
(377,0,l),
(552,520,l),
(406,520,l),
(282,92,l),
(280,92,l),
(156,520,l),
(10,520,l),
(184,0,l)
);
}
);
width = 562;
},
{
layerId = "0F4B55C1-D1AF-4339-8523-EC07133CB1AA";
shapes = (
{
closed = 1;
nodes = (
(320,0,l),
(518,520,l),
(432,520,l),
(266,58,l),
(264,58,l),
(98,520,l),
(12,520,l),
(209,0,l)
);
}
);
width = 530;
},
{
layerId = "2AC8629E-CA28-4614-8069-B83962E1F0CC";
shapes = (
{
closed = 1;
nodes = (
(263,0,l),
(483,520,l),
(461,520,l),
(249,17,l),
(247,17,l),
(35,520,l),
(13,520,l),
(233,0,l)
);
}
);
width = 496;
}
);
leftKerningGroup = v;
rightKerningGroup = v;
unicode = 118;
}
{
color = 11;
glyphname = w;
leftMetricsKey = "=v*2";
rightMetricsKey = "=|";
layers = (
{
anchors = (
{
name = bottom;
position = "{414, 0}";
},
{
name = top;
position = "{414, 520}";
}
);
layerId = "F2505AC5-901F-4BF6-BFE9-C6AF332FBC83";
leftMetricsKey = "=v*2.8";
shapes = (
{
closed = 1;
nodes = (
(369,0,l),
(413,350,l),
(415,350,l),
(459,0,l),
(694,0,l),
(816,520,l),
(622,520,l),
(580,170,l),
(578,170,l),
(532,520,l),
(296,520,l),
(250,170,l),
(248,170,l),
(206,520,l),
(12,520,l),
(134,0,l)
);
}
);
width = 828;
},
{
anchors = (
{
name = bottom;
position = "{403, 0}";
},
{
name = top;
position = "{403, 520}";
}
);
layerId = "A825F678-EB93-40C4-A48C-B705E79FBCA5";
shapes = (
{
closed = 1;
nodes = (
(327,0,l),
(401,387,l),
(403,387,l),
(477,0,l),
(649,0,l),
(784,520,l),
(640,520,l),
(567,127,l),
(565,127,l),
(490,520,l),
(314,520,l),
(240,127,l),
(238,127,l),
(164,520,l),
(21,520,l),
(156,0,l)
);
}
);
width = 805;
},
{
anchors = (
{
name = bottom;
position = "{385, 0}";
},
{
name = top;
position = "{385, 520}";
}
);
layerId = "0F4B55C1-D1AF-4339-8523-EC07133CB1AA";
shapes = (
{
closed = 1;
nodes = (
(275,0,l),
(384,436,l),
(386,436,l),
(495,0,l),
(598,0,l),
(746,520,l),
(660,520,l),
(550,77,l),
(548,77,l),
(439,520,l),
(331,520,l),
(222,77,l),
(220,77,l),
(110,520,l),
(24,520,l),
(172,0,l)
);
}
);
width = 770;
},
{
anchors = (
{
name = bottom;
position = "{367, 0}";
},
{
name = top;
position = "{367, 520}";
}
);
layerId = "2AC8629E-CA28-4614-8069-B83962E1F0CC";
shapes = (
{
closed = 1;
nodes = (
(217,0,l),
(366,499,l),
(368,499,l),
(517,0,l),
(547,0,l),
(707,520,l),
(686,520,l),
(533,21,l),
(531,21,l),
(382,520,l),
(352,520,l),
(203,21,l),
(201,21,l),
(48,520,l),
(27,520,l),
(187,0,l)
);
}
);
width = 734;
}
);
leftKerningGroup = v;
rightKerningGroup = v;
unicode = 119;
}
{
color = 11;
glyphname = x;
leftMetricsKey = "|k";
rightMetricsKey = "=|";
layers = (
{
layerId = "F2505AC5-901F-4BF6-BFE9-C6AF332FBC83";
leftMetricsKey = "=|k*1.8";
shapes = (
{
closed = 1;
nodes = (
(222,0,l),
(292,160,l),
(294,160,l),
(364,0,l),
(566,0,l),
(428,260,l),
(564,520,l),
(362,520,l),
(294,360,l),
(292,360,l),
(224,520,l),
(22,520,l),
(158,260,l),
(20,0,l)
);
}
);
width = 586;
},
{
layerId = "A825F678-EB93-40C4-A48C-B705E79FBCA5";
shapes = (
{
closed = 1;
nodes = (
(176,0,l),
(280,189,l),
(282,189,l),
(387,0,l),
(537,0,l),
(376,261,l),
(534,520,l),
(384,520,l),
(282,333,l),
(280,333,l),
(178,520,l),
(28,520,l),
(187,261,l),
(26,0,l)
);
}
);
width = 563;
},
{
layerId = "0F4B55C1-D1AF-4339-8523-EC07133CB1AA";
shapes = (
{
closed = 1;
nodes = (
(122,0,l),
(267,218,l),
(269,218,l),
(415,0,l),
(506,0,l),
(322,262,l),
(503,520,l),
(411,520,l),
(269,306,l),
(267,306,l),
(125,520,l),
(34,520,l),
(215,262,l),
(30,0,l)
);
}
);
width = 536;
},
{
layerId = "2AC8629E-CA28-4614-8069-B83962E1F0CC";
shapes = (
{
closed = 1;
nodes = (
(60,0,l),
(253,247,l),
(255,247,l),
(448,0,l),
(474,0,l),
(267,263,l),
(469,520,l),
(443,520,l),
(255,279,l),
(253,279,l),
(65,520,l),
(39,520,l),
(241,263,l),
(34,0,l)
);
}
);
width = 508;
}
);
leftKerningGroup = x;
rightKerningGroup = x;
unicode = 120;
}
{
color = 11;
glyphname = y;
leftMetricsKey = "=v*1.6";
rightMetricsKey = v;
layers = (
{
anchors = (
{
name = bottom;
position = "{295, 0}";
},
{
name = dotR;
position = "{429, -210}";
},
{
name = top;
position = "{295, 520}";
}
);
layerId = "F2505AC5-901F-4BF6-BFE9-C6AF332FBC83";
leftMetricsKey = "=v*.2";
rightMetricsKey = "=v*.2";
shapes = (
{
closed = 1;
nodes = (
(590,520,l),
(380,520,l),
(300,170,l),
(298,170,l),
(210,520,l),
(0,520,l),
(201,0,l),
(123,-210,l),
(328,-210,l)
);
}
);
width = 590;
},
{
anchors = (
{
name = bottom;
position = "{293, 0}";
},
{
name = dotR;
position = "{390, -210}";
},
{
name = top;
position = "{293, 520}";
}
);
layerId = "A825F678-EB93-40C4-A48C-B705E79FBCA5";
shapes = (
{
closed = 1;
nodes = (
(571,520,l),
(424,520,l),
(295,135,l),
(293,135,l),
(165,520,l),
(17,519,l),
(225,3,l),
(138,-210,l),
(283,-210,l)
);
}
);
width = 581;
},
{
anchors = (
{
name = bottom;
position = "{276, 0}";
},
{
name = dotR;
position = "{335, -210}";
},
{
name = top;
position = "{276, 520}";
}
);
layerId = "0F4B55C1-D1AF-4339-8523-EC07133CB1AA";
shapes = (
{
closed = 1;
nodes = (
(537,520,l),
(452,520,l),
(274,90,l),
(272,90,l),
(104,520,l),
(19,519,l),
(234,6,l),
(139,-210,l),
(222,-210,l)
);
}
);
width = 549;
},
{
anchors = (
{
name = bottom;
position = "{258, 0}";
},
{
name = dotR;
position = "{280, -210}";
},
{
name = top;
position = "{258, 520}";
}
);
layerId = "2AC8629E-CA28-4614-8069-B83962E1F0CC";
shapes = (
{
closed = 1;
nodes = (
(503,520,l),
(480,520,l),
(254,35,l),
(252,35,l),
(44,520,l),
(21,518,l),
(242,9,l),
(139,-210,l),
(161,-210,l)
);
}
);
width = 516;
}
);
leftKerningGroup = v;
rightKerningGroup = v;
unicode = 121;
}
{
color = 11;
glyphname = z;
leftMetricsKey = "=h*.6";
rightMetricsKey = "=|";
layers = (
{
anchors = (
{
name = bottom;
position = "{264, 0}";
},
{
name = center;
position = "{264, 260}";
},
{
name = top;
position = "{264, 520}";
}
);
layerId = "0A6FD175-EBE5-4FFC-BFA6-6D7CF76DBA36";
name = "Medium.Dec 5 20, 16:52";
shapes = (
{
closed = 1;
nodes = (
(474,0,l),
(474,90,l),
(190,90,l),
(190,92,l),
(474,430,l),
(474,520,l),
(54,520,l),
(54,430,l),
(338,430,l),
(338,428,l),
(54,90,l),
(54,0,l)
);
}
);
width = 528;
},
{
anchors = (
{
name = bottom;
position = "{287, 0}";
},
{
name = center;
position = "{287, 260}";
},
{
name = top;
position = "{287, 520}";
}
);
layerId = "F2505AC5-901F-4BF6-BFE9-C6AF332FBC83";
leftMetricsKey = "=h*.9";
shapes = (
{
closed = 1;
nodes = (
(522,0,l),
(522,140,l),
(299,140,l),
(299,142,l),
(522,380,l),
(522,520,l),
(52,520,l),
(52,380,l),
(275,380,l),
(275,378,l),
(52,140,l),
(52,0,l)
);
}
);
width = 574;
},
{
anchors = (
{
name = bottom;
position = "{262, 0}";
},
{
name = center;
position = "{262, 260}";
},
{
name = top;
position = "{262, 520}";
}
);
layerId = "A825F678-EB93-40C4-A48C-B705E79FBCA5";
shapes = (
{
closed = 1;
nodes = (
(484,0,l),
(484,107,l),
(217,107,l),
(217,109,l),
(484,413,l),
(484,520,l),
(40,520,l),
(40,413,l),
(307,413,l),
(307,411,l),
(40,107,l),
(40,0,l)
);
}
);
width = 524;
},
{
anchors = (
{
name = bottom;
position = "{253, 0}";
},
{
name = center;
position = "{253, 260}";
},
{
name = top;
position = "{253, 520}";
}
);
layerId = "0F4B55C1-D1AF-4339-8523-EC07133CB1AA";
shapes = (
{
closed = 1;
nodes = (
(462,0,l),
(462,67,l),
(148,67,l),
(148,69,l),
(462,453,l),
(462,520,l),
(45,520,l),
(45,453,l),
(359,453,l),
(359,451,l),
(45,67,l),
(45,0,l)
);
}
);
width = 507;
},
{
anchors = (
{
name = bottom;
position = "{246, 0}";
},
{
name = center;
position = "{246, 260}";
},
{
name = top;
position = "{246, 520}";
}
);
layerId = "2AC8629E-CA28-4614-8069-B83962E1F0CC";
shapes = (
{
closed = 1;
nodes = (
(441,0,l),
(441,20,l),
(78,20,l),
(78,22,l),
(441,500,l),
(441,520,l),
(51,520,l),
(51,500,l),
(414,500,l),
(414,498,l),
(51,20,l),
(51,0,l)
);
}
);
width = 492;
}
);
leftKerningGroup = z;
rightKerningGroup = z;
unicode = 122;
}
{
color = 10;
glyphname = braceleft;
leftMetricsKey = plus;
rightMetricsKey = "=bracketleft*1.2";
layers = (
{
layerId = "F2505AC5-901F-4BF6-BFE9-C6AF332FBC83";
shapes = (
{
closed = 1;
nodes = (
(482,-110,l),
(482,20,l),
(442,20,ls),
(358,20,o),
(352,26,o),
(352,110,cs),
(352,155,ls),
(352,253,o),
(319,301,o),
(232,329,c),
(232,331,l),
(319,359,o),
(352,407,o),
(352,505,cs),
(352,550,ls),
(352,634,o),
(358,640,o),
(442,640,cs),
(482,640,l),
(482,770,l),
(352,770,ls),
(231,770,o),
(182,721,o),
(182,600,cs),
(182,520,ls),
(182,438,o),
(159,410,o),
(92,410,cs),
(52,410,l),
(52,250,l),
(92,250,ls),
(159,250,o),
(182,222,o),
(182,140,cs),
(182,60,ls),
(182,-61,o),
(231,-110,o),
(352,-110,cs)
);
}
);
width = 542;
},
{
layerId = "A825F678-EB93-40C4-A48C-B705E79FBCA5";
shapes = (
{
closed = 1;
nodes = (
(441,-110,l),
(441,-3,l),
(395,-3,ls),
(315,-3,o),
(301,11,o),
(301,97,cs),
(301,166,ls),
(301,255,o),
(272,303,o),
(201,329,c),
(201,331,l),
(272,357,o),
(301,405,o),
(301,494,cs),
(301,563,ls),
(301,649,o),
(315,663,o),
(395,663,cs),
(441,663,l),
(441,770,l),
(328,770,ls),
(220,770,o),
(175,724,o),
(175,610,cs),
(175,507,ls),
(175,426,o),
(148,390,o),
(88,390,cs),
(45,390,l),
(45,270,l),
(88,270,ls),
(148,270,o),
(175,234,o),
(175,153,cs),
(175,50,ls),
(175,-64,o),
(220,-110,o),
(328,-110,cs)
);
}
);
width = 500;
},
{
layerId = "0F4B55C1-D1AF-4339-8523-EC07133CB1AA";
shapes = (
{
closed = 1;
nodes = (
(415,-110,l),
(415,-40,l),
(355,-40,ls),
(279,-40,o),
(258,-16,o),
(258,70,cs),
(258,178,ls),
(258,257,o),
(232,305,o),
(177,329,c),
(177,331,l),
(232,355,o),
(258,403,o),
(258,482,cs),
(258,590,ls),
(258,676,o),
(279,700,o),
(355,700,cs),
(415,700,l),
(415,770,l),
(318,770,ls),
(222,770,o),
(181,726,o),
(181,620,cs),
(181,490,ls),
(181,410,o),
(152,367,o),
(98,367,cs),
(51,367,l),
(51,293,l),
(98,293,ls),
(152,293,o),
(181,250,o),
(181,170,cs),
(181,40,ls),
(181,-66,o),
(222,-110,o),
(318,-110,cs)
);
}
);
width = 482;
},
{
layerId = "2AC8629E-CA28-4614-8069-B83962E1F0CC";
shapes = (
{
closed = 1;
nodes = (
(387,-110,l),
(387,-90,l),
(307,-90,ls),
(235,-90,o),
(207,-57,o),
(207,30,cs),
(207,190,ls),
(207,258,o),
(184,308,o),
(146,329,c),
(146,331,l),
(184,352,o),
(207,402,o),
(207,470,cs),
(207,630,ls),
(207,717,o),
(235,750,o),
(307,750,cs),
(387,750,l),
(387,770,l),
(307,770,ls),
(223,770,o),
(187,727,o),
(187,630,cs),
(187,470,ls),
(187,391,o),
(155,340,o),
(107,340,cs),
(57,340,l),
(57,320,l),
(107,320,ls),
(155,320,o),
(187,269,o),
(187,190,cs),
(187,30,ls),
(187,-67,o),
(223,-110,o),
(307,-110,cs)
);
}
);
width = 462;
}
);
leftKerningGroup = "-";
rightKerningGroup = bracketin;
unicode = 123;
}
{
color = 10;
glyphname = bar;
leftMetricsKey = "=I*1.2";
rightMetricsKey = "=|";
layers = (
{
layerId = "F2505AC5-901F-4BF6-BFE9-C6AF332FBC83";
leftMetricsKey = "=I*1.4";
shapes = (
{
closed = 1;
nodes = (
(270,-210,l),
(270,810,l),
(100,810,l),
(100,-210,l)
);
}
);
width = 370;
},
{
layerId = "A825F678-EB93-40C4-A48C-B705E79FBCA5";
shapes = (
{
closed = 1;
nodes = (
(226,-210,l),
(226,810,l),
(99,810,l),
(99,-210,l)
);
}
);
width = 325;
},
{
layerId = "0F4B55C1-D1AF-4339-8523-EC07133CB1AA";
shapes = (
{
closed = 1;
nodes = (
(188,-210,l),
(188,810,l),
(112,810,l),
(112,-210,l)
);
}
);
width = 300;
},
{
layerId = "2AC8629E-CA28-4614-8069-B83962E1F0CC";
shapes = (
{
closed = 1;
nodes = (
(145,-210,l),
(145,810,l),
(125,810,l),
(125,-210,l)
);
}
);
width = 270;
}
);
leftKerningGroup = I;
rightKerningGroup = I;
unicode = 124;
}
{
color = 10;
glyphname = braceright;
leftMetricsKey = "|braceleft";
rightMetricsKey = "|braceleft";
layers = (
{
layerId = "F2505AC5-901F-4BF6-BFE9-C6AF332FBC83";
shapes = (
{
closed = 1;
nodes = (
(190,-110,ls),
(311,-110,o),
(360,-61,o),
(360,60,cs),
(360,140,ls),
(360,222,o),
(383,250,o),
(450,250,cs),
(490,250,l),
(490,410,l),
(450,410,ls),
(383,410,o),
(360,438,o),
(360,520,cs),
(360,600,ls),
(360,721,o),
(311,770,o),
(190,770,cs),
(60,770,l),
(60,640,l),
(100,640,ls),
(184,640,o),
(190,634,o),
(190,550,cs),
(190,505,ls),
(190,407,o),
(223,359,o),
(310,331,c),
(310,329,l),
(223,301,o),
(190,253,o),
(190,155,cs),
(190,110,ls),
(190,26,o),
(184,20,o),
(100,20,cs),
(60,20,l),
(60,-110,l)
);
}
);
width = 542;
},
{
layerId = "A825F678-EB93-40C4-A48C-B705E79FBCA5";
shapes = (
{
closed = 1;
nodes = (
(172,-110,ls),
(280,-110,o),
(325,-64,o),
(325,50,cs),
(325,153,ls),
(325,234,o),
(352,270,o),
(412,270,cs),
(455,270,l),
(455,390,l),
(412,390,ls),
(352,390,o),
(325,426,o),
(325,507,cs),
(325,610,ls),
(325,724,o),
(280,770,o),
(172,770,cs),
(59,770,l),
(59,663,l),
(105,663,ls),
(185,663,o),
(199,649,o),
(199,563,cs),
(199,494,ls),
(199,405,o),
(228,357,o),
(299,331,c),
(299,329,l),
(228,303,o),
(199,255,o),
(199,166,cs),
(199,97,ls),
(199,11,o),
(185,-3,o),
(105,-3,cs),
(59,-3,l),
(59,-110,l)
);
}
);
width = 500;
},
{
layerId = "0F4B55C1-D1AF-4339-8523-EC07133CB1AA";
shapes = (
{
closed = 1;
nodes = (
(164,-110,ls),
(260,-110,o),
(301,-66,o),
(301,40,cs),
(301,170,ls),
(301,250,o),
(330,293,o),
(384,293,cs),
(431,293,l),
(431,367,l),
(384,367,ls),
(330,367,o),
(301,410,o),
(301,490,cs),
(301,620,ls),
(301,726,o),
(260,770,o),
(164,770,cs),
(67,770,l),
(67,700,l),
(127,700,ls),
(203,700,o),
(224,676,o),
(224,590,cs),
(224,482,ls),
(224,403,o),
(250,355,o),
(305,331,c),
(305,329,l),
(250,305,o),
(224,257,o),
(224,178,cs),
(224,70,ls),
(224,-16,o),
(203,-40,o),
(127,-40,cs),
(67,-40,l),
(67,-110,l)
);
}
);
width = 482;
},
{
layerId = "2AC8629E-CA28-4614-8069-B83962E1F0CC";
shapes = (
{
closed = 1;
nodes = (
(155,-110,ls),
(239,-110,o),
(275,-67,o),
(275,30,cs),
(275,190,ls),
(275,269,o),
(307,320,o),
(355,320,cs),
(405,320,l),
(405,340,l),
(355,340,ls),
(307,340,o),
(275,391,o),
(275,470,cs),
(275,630,ls),
(275,727,o),
(239,770,o),
(155,770,cs),
(75,770,l),
(75,750,l),
(155,750,ls),
(227,750,o),
(255,717,o),
(255,630,cs),
(255,470,ls),
(255,402,o),
(278,352,o),
(316,331,c),
(316,329,l),
(278,308,o),
(255,258,o),
(255,190,cs),
(255,30,ls),
(255,-57,o),
(227,-90,o),
(155,-90,cs),
(75,-90,l),
(75,-110,l)
);
}
);
width = 462;
}
);
leftKerningGroup = bracketin;
rightKerningGroup = "-";
unicode = 125;
}
{
color = 10;
glyphname = asciitilde;
leftMetricsKey = plus;
rightMetricsKey = "=|";
layers = (
{
layerId = "F2505AC5-901F-4BF6-BFE9-C6AF332FBC83";
shapes = (
{
closed = 1;
nodes = (
(212,190,l),
(212,257,o),
(221,270,o),
(242,270,cs),
(257,270,o),
(283,263,o),
(322,245,cs),
(406,206,o),
(471,190,o),
(532,190,cs),
(635,190,o),
(692,258,o),
(692,420,c),
(532,420,l),
(532,363,o),
(523,350,o),
(502,350,cs),
(487,350,o),
(461,357,o),
(422,375,cs),
(338,414,o),
(273,430,o),
(212,430,cs),
(109,430,o),
(52,362,o),
(52,190,c)
);
}
);
width = 744;
},
{
layerId = "A825F678-EB93-40C4-A48C-B705E79FBCA5";
shapes = (
{
closed = 1;
nodes = (
(162,205,l),
(162,268,o),
(173,285,o),
(207,285,cs),
(232,285,o),
(264,276,o),
(317,252,cs),
(399,216,o),
(464,199,o),
(517,199,cs),
(610,199,o),
(658,261,o),
(658,399,c),
(541,399,l),
(541,339,o),
(530,323,o),
(496,323,cs),
(471,323,o),
(439,332,o),
(386,355,cs),
(303,391,o),
(239,409,o),
(186,409,cs),
(92,409,o),
(45,346,o),
(45,205,c)
);
}
);
width = 703;
},
{
layerId = "0F4B55C1-D1AF-4339-8523-EC07133CB1AA";
shapes = (
{
closed = 1;
nodes = (
(122,220,l),
(122,286,o),
(139,310,o),
(185,310,cs),
(218,310,o),
(258,298,o),
(325,268,cs),
(408,231,o),
(469,214,o),
(515,214,cs),
(590,214,o),
(638,261,o),
(638,377,c),
(567,377,l),
(567,314,o),
(550,291,o),
(504,291,cs),
(472,291,o),
(431,303,o),
(364,333,cs),
(281,369,o),
(221,387,o),
(174,387,cs),
(92,387,o),
(51,332,o),
(51,220,c)
);
}
);
width = 689;
},
{
layerId = "2AC8629E-CA28-4614-8069-B83962E1F0CC";
shapes = (
{
closed = 1;
nodes = (
(77,235,l),
(77,311,o),
(103,345,o),
(162,345,cs),
(200,345,o),
(251,329,o),
(333,291,cs),
(417,252,o),
(471,235,o),
(512,235,cs),
(560,235,o),
(617,256,o),
(617,355,c),
(597,355,l),
(597,288,o),
(569,255,o),
(512,255,cs),
(474,255,o),
(423,271,o),
(341,309,cs),
(257,348,o),
(203,365,o),
(162,365,cs),
(92,365,o),
(57,321,o),
(57,235,c)
);
}
);
width = 674;
}
);
leftKerningGroup = "-";
rightKerningGroup = "-";
unicode = 126;
}
{
color = 3;
glyphname = cent;
leftMetricsKey = o;
rightMetricsKey = c;
layers = (
{
layerId = "F2505AC5-901F-4BF6-BFE9-C6AF332FBC83";
shapes = (
{
closed = 1;
nodes = (
(418,-10,o),
(472,1,o),
(539,30,c),
(499,165,l),
(447,142,o),
(398,130,o),
(352,130,cs),
(264,130,o),
(219,174,o),
(219,260,cs),
(219,346,o),
(264,390,o),
(352,390,cs),
(398,390,o),
(447,378,o),
(499,355,c),
(539,490,l),
(472,519,o),
(418,530,o),
(348,530,cs),
(144,530,o),
(29,432,o),
(29,260,cs),
(29,88,o),
(144,-10,o),
(348,-10,cs)
);
},
{
closed = 1;
nodes = (
(438,-105,l),
(438,625,l),
(298,625,l),
(298,-105,l)
);
}
);
width = 585;
},
{
layerId = "A825F678-EB93-40C4-A48C-B705E79FBCA5";
shapes = (
{
closed = 1;
nodes = (
(394,-10,o),
(449,2,o),
(506,29,c),
(476,130,l),
(427,108,o),
(378,97,o),
(331,97,cs),
(224,97,o),
(166,154,o),
(166,260,cs),
(166,366,o),
(224,423,o),
(331,423,cs),
(378,423,o),
(427,412,o),
(476,390,c),
(506,491,l),
(449,518,o),
(394,530,o),
(328,530,cs),
(140,530,o),
(33,432,o),
(33,260,cs),
(33,88,o),
(140,-10,o),
(328,-10,cs)
);
},
{
closed = 1;
nodes = (
(391,-105,l),
(391,625,l),
(291,625,l),
(291,-105,l)
);
}
);
width = 560;
},
{
layerId = "0F4B55C1-D1AF-4339-8523-EC07133CB1AA";
shapes = (
{
closed = 1;
nodes = (
(372,-10,o),
(424,2,o),
(475,27,c),
(455,90,l),
(409,67,o),
(362,57,o),
(314,57,cs),
(188,57,o),
(115,131,o),
(115,260,cs),
(115,389,o),
(188,463,o),
(314,463,cs),
(362,463,o),
(409,453,o),
(455,430,c),
(475,493,l),
(424,518,o),
(372,530,o),
(312,530,cs),
(139,530,o),
(38,430,o),
(38,260,cs),
(38,90,o),
(139,-10,o),
(312,-10,cs)
);
},
{
closed = 1;
nodes = (
(349,-105,l),
(349,625,l),
(289,625,l),
(289,-105,l)
);
}
);
width = 536;
},
{
layerId = "2AC8629E-CA28-4614-8069-B83962E1F0CC";
shapes = (
{
closed = 1;
nodes = (
(350,-10,o),
(395,1,o),
(442,25,c),
(433,43,l),
(388,20,o),
(347,10,o),
(298,10,cs),
(151,10,o),
(62,105,o),
(62,260,cs),
(62,415,o),
(151,510,o),
(298,510,cs),
(347,510,o),
(388,500,o),
(433,477,c),
(442,495,l),
(395,519,o),
(350,530,o),
(298,530,cs),
(140,530,o),
(42,426,o),
(42,260,cs),
(42,94,o),
(140,-10,o),
(298,-10,cs)
);
},
{
closed = 1;
nodes = (
(308,-105,l),
(308,625,l),
(288,625,l),
(288,-105,l)
);
}
);
width = 510;
}
);
leftKerningGroup = o;
rightKerningGroup = c;
unicode = 162;
}
{
color = 3;
glyphname = sterling;
leftMetricsKey = equal;
rightMetricsKey = E;
layers = (
{
layerId = "F2505AC5-901F-4BF6-BFE9-C6AF332FBC83";
shapes = (
{
closed = 1;
nodes = (
(611,0,l),
(611,160,l),
(296,160,l),
(296,162,l),
(336,178,o),
(361,230,o),
(361,298,cs),
(361,500,ls),
(361,560,o),
(383,580,o),
(451,580,cs),
(493,580,o),
(524,574,o),
(566,555,c),
(591,715,l),
(533,732,o),
(480,740,o),
(426,740,cs),
(254,740,o),
(161,663,o),
(161,520,cs),
(161,298,ls),
(161,213,o),
(129,164,o),
(71,160,c),
(71,0,l)
);
},
{
closed = 1;
nodes = (
(546,306,l),
(546,446,l),
(71,446,l),
(71,306,l)
);
}
);
width = 666;
},
{
layerId = "A825F678-EB93-40C4-A48C-B705E79FBCA5";
shapes = (
{
closed = 1;
nodes = (
(602,0,l),
(602,119,l),
(252,119,l),
(252,121,l),
(295,143,o),
(322,201,o),
(322,271,cs),
(322,511,ls),
(322,589,o),
(358,621,o),
(444,621,cs),
(484,621,o),
(517,615,o),
(555,597,c),
(578,714,l),
(526,732,o),
(479,740,o),
(427,740,cs),
(269,740,o),
(182,665,o),
(182,530,cs),
(182,271,ls),
(182,182,o),
(144,123,o),
(82,119,c),
(82,0,l)
);
},
{
closed = 1;
nodes = (
(539,327,l),
(539,434,l),
(82,434,l),
(82,327,l)
);
}
);
width = 658;
},
{
layerId = "0F4B55C1-D1AF-4339-8523-EC07133CB1AA";
shapes = (
{
closed = 1;
nodes = (
(593,0,l),
(593,72,l),
(207,72,l),
(207,74,l),
(254,103,o),
(283,164,o),
(283,238,cs),
(283,528,ls),
(283,622,o),
(332,668,o),
(436,668,cs),
(476,668,o),
(511,661,o),
(546,644,c),
(564,714,l),
(519,732,o),
(476,740,o),
(428,740,cs),
(283,740,o),
(203,668,o),
(203,540,cs),
(203,238,ls),
(203,140,o),
(155,76,o),
(93,72,c),
(93,0,l)
);
},
{
closed = 1;
nodes = (
(531,352,l),
(531,419,l),
(93,419,l),
(93,352,l)
);
}
);
width = 656;
},
{
layerId = "2AC8629E-CA28-4614-8069-B83962E1F0CC";
shapes = (
{
closed = 1;
nodes = (
(584,0,l),
(584,20,l),
(162,20,l),
(162,22,l),
(211,56,o),
(244,120,o),
(244,200,cs),
(244,550,ls),
(244,661,o),
(307,720,o),
(429,720,cs),
(468,720,o),
(506,712,o),
(539,696,c),
(547,714,l),
(511,731,o),
(471,740,o),
(429,740,cs),
(296,740,o),
(224,673,o),
(224,550,cs),
(224,200,ls),
(224,89,o),
(162,24,o),
(104,20,c),
(104,0,l)
);
},
{
closed = 1;
nodes = (
(524,380,l),
(524,400,l),
(104,400,l),
(104,380,l)
);
}
);
width = 655;
}
);
leftKerningGroup = equal;
rightKerningGroup = E;
unicode = 163;
}
{
color = 3;
glyphname = currency;
leftMetricsKey = "=|";
rightMetricsKey = c;
layers = (
{
layerId = "F2505AC5-901F-4BF6-BFE9-C6AF332FBC83";
shapes = (
{
closed = 1;
nodes = (
(492,115,o),
(604,227,o),
(604,365,cs),
(604,503,o),
(492,615,o),
(354,615,cs),
(216,615,o),
(104,503,o),
(104,365,cs),
(104,227,o),
(216,115,o),
(354,115,cs)
);
},
{
closed = 1;
nodes = (
(307,280,o),
(269,318,o),
(269,365,cs),
(269,412,o),
(307,450,o),
(354,450,cs),
(401,450,o),
(439,412,o),
(439,365,cs),
(439,318,o),
(401,280,o),
(354,280,cs)
);
},
{
closed = 1;
nodes = (
(281,186,l),
(175,292,l),
(46,163,l),
(152,57,l)
);
},
{
closed = 1;
nodes = (
(662,163,l),
(533,292,l),
(427,186,l),
(556,57,l)
);
},
{
closed = 1;
nodes = (
(281,544,l),
(152,673,l),
(46,567,l),
(175,438,l)
);
},
{
closed = 1;
nodes = (
(662,567,l),
(556,673,l),
(427,544,l),
(533,438,l)
);
}
);
width = 708;
},
{
layerId = "A825F678-EB93-40C4-A48C-B705E79FBCA5";
shapes = (
{
closed = 1;
nodes = (
(484,125,o),
(591,232,o),
(591,365,cs),
(591,498,o),
(484,605,o),
(351,605,cs),
(218,605,o),
(111,498,o),
(111,365,cs),
(111,232,o),
(218,125,o),
(351,125,cs)
);
},
{
closed = 1;
nodes = (
(286,247,o),
(233,300,o),
(233,365,cs),
(233,431,o),
(285,483,o),
(351,483,cs),
(416,483,o),
(469,430,o),
(469,365,cs),
(469,300,o),
(416,247,o),
(351,247,cs)
);
},
{
closed = 1;
nodes = (
(256,190,l),
(175,272,l),
(54,150,l),
(136,70,l)
);
},
{
closed = 1;
nodes = (
(644,150,l),
(523,272,l),
(443,191,l),
(564,70,l)
);
},
{
closed = 1;
nodes = (
(256,538,l),
(136,660,l),
(54,579,l),
(175,457,l)
);
},
{
closed = 1;
nodes = (
(645,579,l),
(564,660,l),
(443,539,l),
(523,457,l)
);
}
);
width = 699;
},
{
layerId = "0F4B55C1-D1AF-4339-8523-EC07133CB1AA";
shapes = (
{
closed = 1;
nodes = (
(469,135,o),
(572,238,o),
(572,365,cs),
(572,492,o),
(469,595,o),
(342,595,cs),
(215,595,o),
(112,492,o),
(112,365,cs),
(112,238,o),
(215,135,o),
(342,135,cs)
);
},
{
closed = 1;
nodes = (
(256,208,o),
(185,279,o),
(185,365,cs),
(185,452,o),
(255,522,o),
(342,522,cs),
(428,522,o),
(499,451,o),
(499,365,cs),
(499,279,o),
(428,208,o),
(342,208,cs)
);
},
{
closed = 1;
nodes = (
(224,198,l),
(174,249,l),
(61,135,l),
(112,85,l)
);
},
{
closed = 1;
nodes = (
(620,135,l),
(507,249,l),
(456,198,l),
(570,85,l)
);
},
{
closed = 1;
nodes = (
(224,530,l),
(112,644,l),
(61,594,l),
(174,480,l)
);
},
{
closed = 1;
nodes = (
(621,594,l),
(570,645,l),
(456,531,l),
(507,480,l)
);
}
);
width = 682;
},
{
layerId = "2AC8629E-CA28-4614-8069-B83962E1F0CC";
shapes = (
{
closed = 1;
nodes = (
(452,145,o),
(550,243,o),
(550,365,cs),
(550,487,o),
(452,585,o),
(330,585,cs),
(208,585,o),
(110,487,o),
(110,365,cs),
(110,243,o),
(208,145,o),
(330,145,cs)
);
},
{
closed = 1;
nodes = (
(220,165,o),
(130,255,o),
(130,365,cs),
(130,475,o),
(220,565,o),
(330,565,cs),
(440,565,o),
(530,475,o),
(530,365,cs),
(530,255,o),
(440,165,o),
(330,165,cs)
);
},
{
closed = 1;
nodes = (
(189,209,l),
(174,224,l),
(68,118,l),
(83,103,l)
);
},
{
closed = 1;
nodes = (
(592,118,l),
(486,224,l),
(471,209,l),
(577,103,l)
);
},
{
closed = 1;
nodes = (
(189,521,l),
(83,627,l),
(68,613,l),
(174,506,l)
);
},
{
closed = 1;
nodes = (
(592,612,l),
(577,627,l),
(471,521,l),
(486,506,l)
);
}
);
width = 660;
}
);
unicode = 164;
}
{
color = 3;
glyphname = yen;
leftMetricsKey = Y;
rightMetricsKey = "=|";
layers = (
{
layerId = "F2505AC5-901F-4BF6-BFE9-C6AF332FBC83";
shapes = (
{
closed = 1;
nodes = (
(448,0,l),
(448,270,l),
(683,730,l),
(463,730,l),
(344,440,l),
(342,440,l),
(223,730,l),
(3,730,l),
(238,270,l),
(238,0,l)
);
},
{
closed = 1;
nodes = (
(633,110,l),
(633,230,l),
(53,230,l),
(53,110,l)
);
},
{
closed = 1;
nodes = (
(633,280,l),
(633,400,l),
(53,400,l),
(53,280,l)
);
}
);
width = 686;
},
{
layerId = "A825F678-EB93-40C4-A48C-B705E79FBCA5";
shapes = (
{
closed = 1;
nodes = (
(408,0,l),
(408,289,l),
(662,730,l),
(505,730,l),
(336,414,l),
(334,414,l),
(166,730,l),
(9,730,l),
(262,289,l),
(262,0,l)
);
},
{
closed = 1;
nodes = (
(609,117,l),
(609,217,l),
(62,217,l),
(62,117,l)
);
},
{
closed = 1;
nodes = (
(609,287,l),
(609,387,l),
(62,387,l),
(62,287,l)
);
}
);
width = 671;
},
{
layerId = "0F4B55C1-D1AF-4339-8523-EC07133CB1AA";
shapes = (
{
closed = 1;
nodes = (
(365,0,l),
(365,308,l),
(637,730,l),
(545,730,l),
(325,383,l),
(323,383,l),
(103,730,l),
(10,730,l),
(282,308,l),
(282,0,l)
);
},
{
closed = 1;
nodes = (
(580,130,l),
(580,197,l),
(67,197,l),
(67,130,l)
);
},
{
closed = 1;
nodes = (
(580,300,l),
(580,367,l),
(67,367,l),
(67,300,l)
);
}
);
width = 647;
},
{
layerId = "2AC8629E-CA28-4614-8069-B83962E1F0CC";
shapes = (
{
closed = 1;
nodes = (
(321,0,l),
(321,327,l),
(611,730,l),
(586,730,l),
(312,348,l),
(310,348,l),
(36,730,l),
(11,730,l),
(301,327,l),
(301,0,l)
);
},
{
closed = 1;
nodes = (
(551,150,l),
(551,170,l),
(71,170,l),
(71,150,l)
);
},
{
closed = 1;
nodes = (
(551,320,l),
(551,340,l),
(71,340,l),
(71,320,l)
);
}
);
width = 622;
}
);
leftKerningGroup = W;
rightKerningGroup = W;
unicode = 165;
}
{
color = 3;
glyphname = brokenbar;
leftMetricsKey = bar;
rightMetricsKey = "=|";
layers = (
{
layerId = "F2505AC5-901F-4BF6-BFE9-C6AF332FBC83";
shapes = (
{
closed = 1;
nodes = (
(270,370,l),
(270,810,l),
(100,810,l),
(100,370,l)
);
},
{
closed = 1;
nodes = (
(270,-220,l),
(270,220,l),
(100,220,l),
(100,-220,l)
);
}
);
width = 370;
},
{
layerId = "A825F678-EB93-40C4-A48C-B705E79FBCA5";
shapes = (
{
closed = 1;
nodes = (
(226,370,l),
(226,810,l),
(99,810,l),
(99,370,l)
);
},
{
closed = 1;
nodes = (
(226,-220,l),
(226,220,l),
(99,220,l),
(99,-220,l)
);
}
);
width = 325;
},
{
layerId = "0F4B55C1-D1AF-4339-8523-EC07133CB1AA";
shapes = (
{
closed = 1;
nodes = (
(188,370,l),
(188,810,l),
(112,810,l),
(112,370,l)
);
},
{
closed = 1;
nodes = (
(188,-220,l),
(188,220,l),
(112,220,l),
(112,-220,l)
);
}
);
width = 300;
},
{
layerId = "2AC8629E-CA28-4614-8069-B83962E1F0CC";
shapes = (
{
closed = 1;
nodes = (
(145,370,l),
(145,810,l),
(125,810,l),
(125,370,l)
);
},
{
closed = 1;
nodes = (
(145,-220,l),
(145,220,l),
(125,220,l),
(125,-220,l)
);
}
);
width = 270;
}
);
leftKerningGroup = I;
rightKerningGroup = I;
unicode = 166;
}
{
color = 3;
glyphname = section;
leftMetricsKey = "=H*.8";
rightMetricsKey = "=|";
layers = (
{
layerId = "F2505AC5-901F-4BF6-BFE9-C6AF332FBC83";
shapes = (
{
closed = 1;
nodes = (
(312,120,l),
(468,131,o),
(547,198,o),
(547,310,cs),
(547,417,o),
(479,480,o),
(307,505,cs),
(255,513,o),
(237,528,o),
(237,550,cs),
(237,572,o),
(261,590,o),
(322,590,cs),
(377,590,o),
(436,577,o),
(502,550,c),
(537,700,l),
(463,726,o),
(380,740,o),
(302,740,cs),
(141,740,o),
(52,662,o),
(52,550,cs),
(52,445,o),
(100,397,o),
(287,360,cs),
(371,344,o),
(387,326,o),
(387,285,cs),
(387,242,o),
(353,210,o),
(312,210,c)
);
},
{
closed = 1;
nodes = (
(463,-120,o),
(552,-42,o),
(552,70,cs),
(552,175,o),
(504,222,o),
(317,260,cs),
(233,277,o),
(217,294,o),
(217,335,cs),
(217,378,o),
(251,410,o),
(292,410,c),
(292,500,l),
(136,489,o),
(57,422,o),
(57,310,cs),
(57,204,o),
(125,141,o),
(297,115,cs),
(349,107,o),
(367,92,o),
(367,70,cs),
(367,48,o),
(343,30,o),
(282,30,cs),
(227,30,o),
(168,43,o),
(102,70,c),
(67,-80,l),
(141,-106,o),
(224,-120,o),
(302,-120,cs)
);
}
);
width = 604;
},
{
layerId = "A825F678-EB93-40C4-A48C-B705E79FBCA5";
shapes = (
{
closed = 1;
nodes = (
(332,125,l),
(447,144,o),
(510,207,o),
(510,300,cs),
(510,399,o),
(441,461,o),
(289,486,cs),
(218,499,o),
(190,522,o),
(190,563,cs),
(190,607,o),
(224,630,o),
(298,630,cs),
(355,630,o),
(408,618,o),
(470,590,c),
(500,697,l),
(432,725,o),
(357,740,o),
(285,740,cs),
(141,740,o),
(60,673,o),
(60,563,cs),
(60,464,o),
(117,412,o),
(275,380,cs),
(369,361,o),
(397,339,o),
(397,292,cs),
(397,247,o),
(367,213,o),
(327,202,c)
);
},
{
closed = 1;
nodes = (
(430,-120,o),
(510,-53,o),
(510,57,cs),
(510,156,o),
(454,207,o),
(296,240,cs),
(201,260,o),
(174,281,o),
(174,328,cs),
(174,373,o),
(203,407,o),
(244,418,c),
(238,495,l),
(124,476,o),
(61,413,o),
(61,320,cs),
(61,221,o),
(130,160,o),
(281,134,cs),
(353,121,o),
(381,98,o),
(381,57,cs),
(381,13,o),
(347,-10,o),
(272,-10,cs),
(216,-10,o),
(162,2,o),
(100,30,c),
(71,-77,l),
(139,-105,o),
(214,-120,o),
(286,-120,cs)
);
}
);
width = 570;
},
{
layerId = "0F4B55C1-D1AF-4339-8523-EC07133CB1AA";
shapes = (
{
closed = 1;
nodes = (
(348,132,l),
(429,156,o),
(477,213,o),
(477,290,cs),
(477,384,o),
(412,441,o),
(276,468,cs),
(178,488,o),
(147,522,o),
(147,577,cs),
(147,639,o),
(194,673,o),
(279,673,cs),
(336,673,o),
(386,661,o),
(444,632,c),
(466,695,l),
(403,725,o),
(339,740,o),
(272,740,cs),
(147,740,o),
(73,679,o),
(73,577,cs),
(73,484,o),
(130,433,o),
(266,403,cs),
(373,381,o),
(411,350,o),
(411,290,cs),
(411,242,o),
(383,204,o),
(340,185,c)
);
},
{
closed = 1;
nodes = (
(399,-120,o),
(473,-59,o),
(473,43,cs),
(473,136,o),
(415,187,o),
(279,217,cs),
(173,239,o),
(135,270,o),
(135,330,cs),
(135,378,o),
(162,416,o),
(205,435,c),
(198,488,l),
(116,464,o),
(68,407,o),
(68,330,cs),
(68,236,o),
(133,179,o),
(270,152,cs),
(367,132,o),
(398,98,o),
(398,43,cs),
(398,-19,o),
(352,-53,o),
(266,-53,cs),
(209,-53,o),
(159,-41,o),
(101,-12,c),
(80,-75,l),
(142,-105,o),
(207,-120,o),
(273,-120,cs)
);
}
);
width = 545;
},
{
layerId = "2AC8629E-CA28-4614-8069-B83962E1F0CC";
shapes = (
{
closed = 1;
nodes = (
(355,139,l),
(412,167,o),
(446,218,o),
(446,280,cs),
(446,371,o),
(391,421,o),
(263,450,cs),
(133,479,o),
(106,527,o),
(106,590,cs),
(106,669,o),
(167,720,o),
(261,720,cs),
(318,720,o),
(367,707,o),
(421,676,c),
(431,694,l),
(374,726,o),
(322,740,o),
(261,740,cs),
(156,740,o),
(86,680,o),
(86,590,cs),
(86,504,o),
(136,458,o),
(259,430,cs),
(378,404,o),
(426,360,o),
(426,280,cs),
(426,227,o),
(398,183,o),
(349,158,c)
);
},
{
closed = 1;
nodes = (
(366,-120,o),
(436,-60,o),
(436,30,cs),
(436,116,o),
(386,162,o),
(263,190,cs),
(144,216,o),
(96,260,o),
(96,340,cs),
(96,393,o),
(124,437,o),
(173,462,c),
(167,481,l),
(110,453,o),
(76,402,o),
(76,340,cs),
(76,249,o),
(131,199,o),
(259,170,cs),
(389,141,o),
(416,93,o),
(416,30,cs),
(416,-49,o),
(355,-100,o),
(261,-100,cs),
(204,-100,o),
(155,-86,o),
(101,-56,c),
(91,-74,l),
(148,-106,o),
(200,-120,o),
(261,-120,cs)
);
}
);
width = 522;
}
);
leftKerningGroup = S;
rightKerningGroup = S;
unicode = 167;
}
{
color = 3;
glyphname = copyright;
leftMetricsKey = O;
rightMetricsKey = "=|";
layers = (
{
layerId = "F2505AC5-901F-4BF6-BFE9-C6AF332FBC83";
shapes = (
{
closed = 1;
nodes = (
(614,-10,o),
(782,158,o),
(782,365,cs),
(782,572,o),
(614,740,o),
(407,740,cs),
(200,740,o),
(32,572,o),
(32,365,cs),
(32,158,o),
(200,-10,o),
(407,-10,cs)
);
},
{
closed = 1;
nodes = (
(480,140,o),
(531,153,o),
(575,179,c),
(517,289,l),
(484,270,o),
(457,262,o),
(428,262,cs),
(373,262,o),
(343,297,o),
(343,365,cs),
(343,433,o),
(373,468,o),
(428,468,cs),
(456,468,o),
(483,459,o),
(517,440,c),
(575,550,l),
(531,577,o),
(480,590,o),
(422,590,cs),
(280,590,o),
(200,509,o),
(200,365,cs),
(200,220,o),
(280,140,o),
(422,140,cs)
);
},
{
closed = 1;
nodes = (
(247,75,o),
(117,205,o),
(117,365,cs),
(117,525,o),
(247,655,o),
(407,655,cs),
(567,655,o),
(697,525,o),
(697,365,cs),
(697,205,o),
(567,75,o),
(407,75,cs)
);
}
);
width = 814;
},
{
layerId = "A825F678-EB93-40C4-A48C-B705E79FBCA5";
shapes = (
{
closed = 1;
nodes = (
(614,-7,o),
(781,160,o),
(781,365,cs),
(781,571,o),
(614,737,o),
(409,737,cs),
(203,737,o),
(37,571,o),
(37,365,cs),
(37,160,o),
(203,-7,o),
(409,-7,cs)
);
},
{
closed = 1;
nodes = (
(477,140,o),
(527,153,o),
(569,179,c),
(519,270,l),
(487,250,o),
(459,241,o),
(426,241,cs),
(357,241,o),
(318,285,o),
(318,365,cs),
(318,445,o),
(358,489,o),
(426,489,cs),
(459,489,o),
(487,480,o),
(519,460,c),
(569,551,l),
(527,577,o),
(477,590,o),
(422,590,cs),
(285,590,o),
(203,506,o),
(203,365,cs),
(203,223,o),
(284,140,o),
(422,140,cs)
);
},
{
closed = 1;
nodes = (
(245,68,o),
(112,201,o),
(112,365,cs),
(112,529,o),
(245,662,o),
(409,662,cs),
(573,662,o),
(706,529,o),
(706,365,cs),
(706,201,o),
(573,68,o),
(409,68,cs)
);
}
);
width = 818;
},
{
layerId = "0F4B55C1-D1AF-4339-8523-EC07133CB1AA";
shapes = (
{
closed = 1;
nodes = (
(614,-3,o),
(779,162,o),
(779,365,cs),
(779,569,o),
(614,733,o),
(411,733,cs),
(207,733,o),
(42,569,o),
(42,365,cs),
(42,162,o),
(207,-3,o),
(411,-3,cs)
);
},
{
closed = 1;
nodes = (
(475,140,o),
(523,153,o),
(563,179,c),
(528,239,l),
(496,217,o),
(463,207,o),
(424,207,cs),
(334,207,o),
(280,266,o),
(280,365,cs),
(280,464,o),
(335,523,o),
(424,523,cs),
(463,523,o),
(496,513,o),
(528,491,c),
(563,551,l),
(523,577,o),
(475,590,o),
(422,590,cs),
(289,590,o),
(205,504,o),
(205,365,cs),
(205,226,o),
(288,140,o),
(422,140,cs)
);
},
{
closed = 1;
nodes = (
(236,50,o),
(96,191,o),
(96,365,cs),
(96,539,o),
(236,680,o),
(411,680,cs),
(585,680,o),
(726,539,o),
(726,365,cs),
(726,191,o),
(585,50,o),
(411,50,cs)
);
}
);
width = 821;
},
{
layerId = "2AC8629E-CA28-4614-8069-B83962E1F0CC";
shapes = (
{
closed = 1;
nodes = (
(614,0,o),
(777,163,o),
(777,365,cs),
(777,567,o),
(614,730,o),
(412,730,cs),
(210,730,o),
(47,567,o),
(47,365,cs),
(47,163,o),
(210,0,o),
(412,0,cs)
);
},
{
closed = 1;
nodes = (
(472,140,o),
(518,153,o),
(556,179,c),
(545,196,l),
(510,172,o),
(469,160,o),
(422,160,cs),
(303,160,o),
(228,239,o),
(228,365,cs),
(228,490,o),
(304,570,o),
(422,570,cs),
(469,570,o),
(510,558,o),
(545,534,c),
(556,551,l),
(518,577,o),
(472,590,o),
(422,590,cs),
(293,590,o),
(208,501,o),
(208,365,cs),
(208,229,o),
(292,140,o),
(422,140,cs)
);
},
{
closed = 1;
nodes = (
(221,20,o),
(67,174,o),
(67,365,cs),
(67,556,o),
(221,710,o),
(412,710,cs),
(603,710,o),
(757,556,o),
(757,365,cs),
(757,174,o),
(603,20,o),
(412,20,cs)
);
}
);
width = 824;
}
);
leftKerningGroup = O;
rightKerningGroup = O;
unicode = 169;
}
{
glyphname = ordfeminine;
layers = (
{
layerId = "F2505AC5-901F-4BF6-BFE9-C6AF332FBC83";
shapes = (
{
closed = 1;
nodes = (
(78,156,l),
(78,260,l),
(590,260,l),
(590,156,l)
);
},
{
closed = 1;
nodes = (
(256,428,o),
(269,416,o),
(296,416,cs),
(341,416,o),
(372,444,o),
(372,488,cs),
(372,500,l),
(348,500,ls),
(287,500,o),
(256,480,o),
(256,452,cs)
);
},
{
closed = 1;
nodes = (
(120,528,o),
(201,588,o),
(348,588,cs),
(372,588,l),
(372,624,o),
(361,636,o),
(324,636,cs),
(267,636,o),
(212,624,o),
(160,600,c),
(140,704,l),
(199,728,o),
(263,740,o),
(332,740,cs),
(471,740,o),
(524,692,o),
(524,572,cs),
(524,428,ls),
(524,389,o),
(528,352,o),
(536,316,c),
(392,316,l),
(387,343,o),
(385,362,o),
(384,372,c),
(382,372,l),
(353,333,o),
(304,308,o),
(256,308,cs),
(175,308,o),
(120,357,o),
(120,436,cs)
);
}
);
width = 668;
},
{
layerId = "A825F678-EB93-40C4-A48C-B705E79FBCA5";
shapes = (
{
closed = 1;
nodes = (
(83,175,l),
(83,257,l),
(578,257,l),
(578,175,l)
);
},
{
closed = 1;
nodes = (
(236,413,o),
(256,394,o),
(291,394,cs),
(347,394,o),
(389,432,o),
(389,488,cs),
(389,513,l),
(358,513,ls),
(279,513,o),
(236,486,o),
(236,445,cs)
);
},
{
closed = 1;
nodes = (
(128,526,o),
(211,586,o),
(358,586,cs),
(389,586,l),
(389,638,o),
(372,656,o),
(321,656,cs),
(267,656,o),
(215,644,o),
(166,619,c),
(149,704,l),
(202,728,o),
(261,740,o),
(326,740,cs),
(457,740,o),
(508,694,o),
(508,577,cs),
(508,428,ls),
(508,390,o),
(512,353,o),
(520,316,c),
(406,316,l),
(401,343,o),
(399,363,o),
(398,375,c),
(396,375,l),
(366,332,o),
(317,308,o),
(261,308,cs),
(181,308,o),
(128,355,o),
(128,434,cs)
);
}
);
width = 661;
},
{
layerId = "0F4B55C1-D1AF-4339-8523-EC07133CB1AA";
shapes = (
{
closed = 1;
nodes = (
(89,200,l),
(89,252,l),
(562,252,l),
(562,200,l)
);
},
{
closed = 1;
nodes = (
(209,391,o),
(238,364,o),
(285,364,cs),
(356,364,o),
(411,415,o),
(411,487,cs),
(411,529,l),
(372,529,ls),
(267,529,o),
(209,493,o),
(209,435,cs)
);
},
{
closed = 1;
nodes = (
(138,522,o),
(223,581,o),
(372,581,cs),
(411,581,l),
(411,655,o),
(386,682,o),
(316,682,cs),
(267,682,o),
(219,670,o),
(173,645,c),
(160,703,l),
(207,728,o),
(259,740,o),
(319,740,cs),
(439,740,o),
(486,696,o),
(486,582,cs),
(486,428,ls),
(486,391,o),
(490,353,o),
(498,316,c),
(426,316,l),
(421,342,o),
(418,363,o),
(417,380,c),
(416,380,l),
(383,331,o),
(333,307,o),
(267,307,cs),
(188,307,o),
(138,353,o),
(138,429,cs)
);
}
);
width = 651;
},
{
layerId = "2AC8629E-CA28-4614-8069-B83962E1F0CC";
shapes = (
{
closed = 1;
nodes = (
(96,224,l),
(96,244,l),
(544,244,l),
(544,224,l)
);
},
{
closed = 1;
nodes = (
(168,365,o),
(211,326,o),
(282,326,c),
(375,328,o),
(440,390,o),
(440,484,cs),
(440,558,l),
(394,558,ls),
(250,558,o),
(168,511,o),
(168,428,cs)
);
},
{
closed = 1;
nodes = (
(148,523,o),
(238,578,o),
(394,578,cs),
(440,578,l),
(442,675,o),
(417,720,o),
(316,720,cs),
(267,720,o),
(221,708,o),
(179,683,c),
(169,700,l),
(214,727,o),
(263,740,o),
(316,740,c),
(430,742,o),
(460,687,o),
(460,580,cs),
(460,428,ls),
(460,391,o),
(464,353,o),
(472,316,c),
(452,316,l),
(445,346,o),
(442,374,o),
(441,400,c),
(440,400,l),
(411,341,o),
(353,306,o),
(282,306,cs),
(201,306,o),
(148,355,o),
(148,428,cs)
);
}
);
width = 640;
}
);
leftKerningGroup = asterisk;
rightKerningGroup = asterisk;
unicode = 170;
}
{
color = 3;
glyphname = guillemotleft;
leftMetricsKey = guilsinglleft;
rightMetricsKey = guilsinglleft;
layers = (
{
layerId = "F2505AC5-901F-4BF6-BFE9-C6AF332FBC83";
shapes = (
{
closed = 1;
nodes = (
(330,0,l),
(172,260,l),
(330,520,l),
(157,520,l),
(4,260,l),
(157,0,l)
);
},
{
closed = 1;
nodes = (
(580,0,l),
(422,260,l),
(580,520,l),
(407,520,l),
(254,260,l),
(407,0,l)
);
}
);
width = 600;
},
{
layerId = "A825F678-EB93-40C4-A48C-B705E79FBCA5";
shapes = (
{
closed = 1;
nodes = (
(290,0,l),
(132,260,l),
(290,520,l),
(166,520,l),
(10,260,l),
(166,0,l)
);
},
{
closed = 1;
nodes = (
(507,0,l),
(349,260,l),
(507,520,l),
(383,520,l),
(227,260,l),
(383,0,l)
);
}
);
width = 533;
},
{
layerId = "0F4B55C1-D1AF-4339-8523-EC07133CB1AA";
shapes = (
{
closed = 1;
nodes = (
(243,0,l),
(85,260,l),
(243,520,l),
(168,520,l),
(12,260,l),
(168,0,l)
);
},
{
closed = 1;
nodes = (
(426,0,l),
(268,260,l),
(426,520,l),
(351,520,l),
(195,260,l),
(351,0,l)
);
}
);
width = 456;
},
{
layerId = "2AC8629E-CA28-4614-8069-B83962E1F0CC";
shapes = (
{
closed = 1;
nodes = (
(190,0,l),
(36,260,l),
(190,520,l),
(167,520,l),
(13,260,l),
(167,0,l)
);
},
{
closed = 1;
nodes = (
(339,0,l),
(185,260,l),
(339,520,l),
(316,520,l),
(162,260,l),
(316,0,l)
);
}
);
width = 373;
}
);
leftKerningGroup = plus;
rightKerningGroup = x;
unicode = 171;
}
{
color = 3;
glyphname = logicalnot;
leftMetricsKey = plus;
rightMetricsKey = equal;
layers = (
{
layerId = "F2505AC5-901F-4BF6-BFE9-C6AF332FBC83";
shapes = (
{
closed = 1;
nodes = (
(652,80,l),
(652,500,l),
(52,500,l),
(52,330,l),
(482,330,l),
(482,80,l)
);
}
);
width = 723;
},
{
layerId = "A825F678-EB93-40C4-A48C-B705E79FBCA5";
shapes = (
{
closed = 1;
nodes = (
(631,110,l),
(631,470,l),
(45,470,l),
(45,347,l),
(508,347,l),
(508,110,l)
);
}
);
width = 713;
},
{
layerId = "0F4B55C1-D1AF-4339-8523-EC07133CB1AA";
shapes = (
{
closed = 1;
nodes = (
(625,140,l),
(625,440,l),
(51,440,l),
(51,367,l),
(551,367,l),
(551,140,l)
);
}
);
width = 718;
},
{
layerId = "2AC8629E-CA28-4614-8069-B83962E1F0CC";
shapes = (
{
closed = 1;
nodes = (
(617,170,l),
(617,410,l),
(57,410,l),
(57,390,l),
(597,390,l),
(597,170,l)
);
}
);
width = 721;
}
);
leftKerningGroup = "-";
rightKerningGroup = equal;
unicode = 172;
}
{
color = 3;
glyphname = registered;
leftMetricsKey = O;
rightMetricsKey = "=|";
layers = (
{
layerId = "6C591208-8A32-414E-9E22-53FF69D2712D";
partSelection = {
Wt = 2;
};
name = Medium.;
shapes = (
{
closed = 1;
nodes = (
(614,-8,o),
(781,159,o),
(781,365,cs),
(781,571,o),
(614,738,o),
(408,738,cs),
(202,738,o),
(35,571,o),
(35,365,cs),
(35,159,o),
(202,-8,o),
(408,-8,cs)
);
},
{
closed = 1;
nodes = (
(595,146,l),
(475,352,l),
(350,352,l),
(451,146,l)
);
},
{
closed = 1;
nodes = (
(246,72,o),
(115,203,o),
(115,365,cs),
(115,527,o),
(246,658,o),
(408,658,cs),
(570,658,o),
(701,527,o),
(701,365,cs),
(701,203,o),
(570,72,o),
(408,72,cs)
);
},
{
closed = 1;
nodes = (
(380,146,l),
(380,483,l),
(396,483,ls),
(441,483,o),
(461,468,o),
(461,437,cs),
(461,405,o),
(441,390,o),
(396,390,cs),
(304,390,l),
(304,297,l),
(411,297,ls),
(529,297,o),
(590,347,o),
(590,442,cs),
(590,538,o),
(526,584,o),
(391,584,cs),
(253,584,l),
(253,146,l)
);
}
);
width = 816;
},
{
background = {
shapes = (
{
closed = 1;
nodes = (
(376,146,l),
(376,481,l),
(390,481,ls),
(446,481,o),
(471,468,o),
(471,438,cs),
(471,407,o),
(445,392,o),
(390,392,cs),
(312,392,l),
(312,292,l),
(408,292,ls),
(523,292,o),
(588,347,o),
(588,444,cs),
(588,540,o),
(524,584,o),
(384,584,cs),
(246,584,l),
(246,146,l)
);
},
{
closed = 1;
nodes = (
(600,146,l),
(498,350,l),
(368,350,l),
(458,146,l)
);
},
{
closed = 1;
nodes = (
(615,-10,o),
(783,158,o),
(783,365,cs),
(783,572,o),
(615,740,o),
(408,740,cs),
(201,740,o),
(33,572,o),
(33,365,cs),
(33,158,o),
(201,-10,o),
(408,-10,cs)
);
},
{
closed = 1;
nodes = (
(248,75,o),
(118,205,o),
(118,365,cs),
(118,525,o),
(248,655,o),
(408,655,cs),
(568,655,o),
(698,525,o),
(698,365,cs),
(698,205,o),
(568,75,o),
(408,75,cs)
);
}
);
};
layerId = "F2505AC5-901F-4BF6-BFE9-C6AF332FBC83";
shapes = (
{
closed = 1;
nodes = (
(614,-10,o),
(782,158,o),
(782,365,cs),
(782,572,o),
(614,740,o),
(407,740,cs),
(200,740,o),
(32,572,o),
(32,365,cs),
(32,158,o),
(200,-10,o),
(407,-10,cs)
);
},
{
closed = 1;
nodes = (
(605,146,l),
(493,350,l),
(357,350,l),
(449,146,l)
);
},
{
closed = 1;
nodes = (
(247,75,o),
(117,205,o),
(117,365,cs),
(117,525,o),
(247,655,o),
(407,655,cs),
(567,655,o),
(697,525,o),
(697,365,cs),
(697,205,o),
(567,75,o),
(407,75,cs)
);
},
{
closed = 1;
nodes = (
(385,146,l),
(385,473,l),
(399,473,ls),
(436,473,o),
(454,459,o),
(454,432,cs),
(454,404,o),
(436,391,o),
(399,391,cs),
(305,391,l),
(305,289,l),
(417,289,ls),
(534,289,o),
(597,341,o),
(597,438,cs),
(597,536,o),
(531,584,o),
(393,584,cs),
(245,584,l),
(245,146,l)
);
}
);
width = 814;
},
{
layerId = "A825F678-EB93-40C4-A48C-B705E79FBCA5";
shapes = (
{
closed = 1;
nodes = (
(613,-6,o),
(779,160,o),
(779,365,cs),
(779,570,o),
(613,736,o),
(408,736,cs),
(203,736,o),
(37,570,o),
(37,365,cs),
(37,160,o),
(203,-6,o),
(408,-6,cs)
);
},
{
closed = 1;
nodes = (
(599,146,l),
(456,354,l),
(342,354,l),
(467,146,l)
);
},
{
closed = 1;
nodes = (
(244,68,o),
(111,201,o),
(111,365,cs),
(111,529,o),
(244,662,o),
(408,662,cs),
(572,662,o),
(705,529,o),
(705,365,cs),
(705,201,o),
(572,68,o),
(408,68,cs)
);
},
{
closed = 1;
nodes = (
(373,146,l),
(373,494,l),
(392,494,ls),
(445,494,o),
(467,477,o),
(467,442,cs),
(467,406,o),
(445,389,o),
(392,389,cs),
(302,389,l),
(302,305,l),
(404,305,ls),
(523,305,o),
(582,353,o),
(582,446,cs),
(582,540,o),
(520,584,o),
(388,584,cs),
(260,584,l),
(260,146,l)
);
}
);
width = 816;
},
{
layerId = "0F4B55C1-D1AF-4339-8523-EC07133CB1AA";
shapes = (
{
closed = 1;
nodes = (
(614,-3,o),
(779,162,o),
(779,365,cs),
(779,569,o),
(614,733,o),
(411,733,cs),
(207,733,o),
(42,569,o),
(42,365,cs),
(42,162,o),
(207,-3,o),
(411,-3,cs)
);
},
{
closed = 1;
nodes = (
(593,146,l),
(405,358,l),
(326,358,l),
(503,146,l)
);
},
{
closed = 1;
nodes = (
(236,50,o),
(96,191,o),
(96,365,cs),
(96,539,o),
(236,680,o),
(411,680,cs),
(585,680,o),
(726,539,o),
(726,365,cs),
(726,191,o),
(585,50,o),
(411,50,cs)
);
},
{
closed = 1;
nodes = (
(350,146,l),
(350,524,l),
(388,524,ls),
(465,524,o),
(495,503,o),
(495,454,cs),
(495,405,o),
(465,385,o),
(388,385,cs),
(301,385,l),
(301,327,l),
(394,327,ls),
(514,327,o),
(570,369,o),
(570,456,cs),
(570,544,o),
(512,584,o),
(386,584,cs),
(277,584,l),
(277,146,l)
);
}
);
width = 821;
},
{
layerId = "2AC8629E-CA28-4614-8069-B83962E1F0CC";
shapes = (
{
closed = 1;
nodes = (
(614,0,o),
(777,163,o),
(777,365,cs),
(777,567,o),
(614,730,o),
(412,730,cs),
(210,730,o),
(47,567,o),
(47,365,cs),
(47,163,o),
(210,0,o),
(412,0,cs)
);
},
{
closed = 1;
nodes = (
(571,146,l),
(335,362,l),
(305,362,l),
(540,146,l)
);
},
{
closed = 1;
nodes = (
(221,20,o),
(67,174,o),
(67,365,cs),
(67,556,o),
(221,710,o),
(412,710,cs),
(603,710,o),
(757,556,o),
(757,365,cs),
(757,174,o),
(603,20,o),
(412,20,cs)
);
},
{
closed = 1;
nodes = (
(312,146,l),
(312,564,l),
(382,564,ls),
(493,564,o),
(536,537,o),
(536,470,cs),
(536,403,o),
(493,376,o),
(382,376,cs),
(298,376,l),
(298,356,l),
(382,356,ls),
(503,356,o),
(556,390,o),
(556,470,cs),
(556,550,o),
(503,584,o),
(382,584,cs),
(292,584,l),
(292,146,l)
);
}
);
width = 824;
}
);
partsSettings = (
{
bottomValue = 0;
name = Wt;
topValue = 1000;
}
);
leftKerningGroup = O;
rightKerningGroup = O;
unicode = 174;
}
